{"glyphs":{"0":{"ha":694,"x_min":31,"x_max":664,"o":"m 347 -14 q 176 36 247 -14 q 68 173 106 86 q 31 368 31 260 q 68 563 31 476 q 176 700 106 650 q 347 750 247 750 q 518 700 447 750 q 626 563 589 650 q 664 368 664 476 q 626 173 664 260 q 518 36 589 86 q 347 -14 447 -14 m 347 72 q 537 153 467 72 q 607 368 607 233 q 537 583 607 503 q 347 664 467 664 q 158 583 228 664 q 88 368 88 503 q 158 153 88 233 q 347 72 228 72 z "},"1":{"ha":694,"x_min":132,"x_max":564,"o":"m 132 0 l 132 28 l 299 69 l 299 667 l 132 708 l 132 736 l 564 736 l 564 708 l 397 667 l 397 69 l 564 28 l 564 0 l 132 0 z "},"2":{"ha":694,"x_min":78,"x_max":607,"o":"m 82 0 l 82 35 q 260 204 188 136 q 376 322 332 272 q 440 417 421 372 q 460 513 460 461 q 422 624 460 578 q 308 669 383 669 q 194 632 238 669 q 121 525 150 594 l 78 544 q 188 697 117 643 q 344 750 258 750 q 513 688 456 750 q 571 533 571 626 q 543 422 571 474 q 465 320 515 371 q 348 212 415 269 q 200 82 281 154 l 525 82 l 582 217 l 607 217 l 593 0 l 82 0 z "},"3":{"ha":694,"x_min":58,"x_max":631,"o":"m 321 -193 q 166 -163 232 -193 q 69 -89 100 -133 q 61 -74 64 -82 q 58 -60 58 -67 q 79 -25 58 -42 l 121 3 l 135 3 l 147 -21 q 222 -107 178 -75 q 335 -139 265 -139 q 483 -82 433 -139 q 532 56 532 -25 q 458 226 532 163 q 232 289 383 289 l 217 339 l 221 339 q 399 390 331 339 q 467 524 467 442 q 428 630 467 590 q 315 669 390 669 q 201 632 244 669 q 128 525 157 594 l 85 544 q 198 697 125 643 q 357 750 271 750 q 517 696 457 750 q 578 556 578 642 q 530 432 578 485 q 406 350 482 379 q 577 250 524 321 q 631 86 631 179 q 590 -56 631 7 q 478 -156 549 -119 q 321 -193 408 -193 z "},"4":{"ha":694,"x_min":15,"x_max":669,"o":"m 406 -181 l 406 113 l 15 113 l 15 144 l 471 736 l 504 736 l 504 189 l 669 189 l 669 113 l 504 113 l 504 -181 l 406 -181 m 124 189 l 406 189 l 406 561 l 124 189 z "},"5":{"ha":694,"x_min":82,"x_max":617,"o":"m 267 -194 q 159 -177 204 -194 q 94 -131 114 -160 q 82 -101 82 -117 q 108 -65 82 -83 l 146 -36 l 158 -36 l 175 -62 q 232 -113 194 -94 q 319 -132 269 -132 q 467 -69 408 -132 q 525 93 525 -7 q 502 198 525 147 q 422 281 479 249 q 261 314 364 314 q 125 301 204 314 l 125 736 l 553 736 l 553 644 l 186 644 l 186 404 q 264 407 228 407 q 474 367 397 407 q 584 265 551 328 q 617 133 617 203 q 570 -37 617 36 q 444 -153 524 -111 q 267 -194 365 -194 z "},"6":{"ha":694,"x_min":58,"x_max":642,"o":"m 353 -14 q 200 30 267 -14 q 96 151 133 74 q 58 325 58 228 q 121 592 58 471 q 299 799 183 713 q 574 931 414 886 l 574 890 q 300 715 403 836 q 176 424 197 593 q 269 508 213 476 q 397 540 325 540 q 527 506 472 540 q 612 413 582 472 q 642 278 642 353 q 610 138 642 206 q 513 28 578 71 q 353 -14 449 -14 m 171 338 q 226 112 171 182 q 357 42 281 42 q 453 71 414 42 q 513 148 493 100 q 533 250 533 196 q 354 460 533 460 q 247 432 294 460 q 171 358 200 404 q 171 338 171 349 z "},"7":{"ha":694,"x_min":76,"x_max":633,"o":"m 135 -181 q 188 -53 164 -111 q 240 66 213 6 q 305 203 267 126 q 400 388 343 281 q 540 646 457 494 l 76 646 l 76 736 l 633 736 l 633 710 q 497 442 568 586 q 365 141 426 299 q 267 -181 303 -17 l 135 -181 z "},"8":{"ha":694,"x_min":67,"x_max":628,"o":"m 350 -14 q 210 13 275 -14 q 106 88 146 40 q 67 200 67 136 q 82 288 67 246 q 140 374 97 331 q 261 465 182 417 q 129 573 167 522 q 92 700 92 624 q 128 815 92 763 q 224 899 165 867 q 351 931 283 931 q 479 901 422 931 q 570 822 536 872 q 604 707 604 771 q 556 592 604 644 q 425 494 508 540 q 578 376 529 433 q 628 231 628 318 q 585 96 628 150 q 478 14 542 42 q 350 -14 414 -14 m 193 733 q 208 662 193 694 q 262 596 222 629 q 378 521 301 563 q 469 597 435 556 q 504 694 504 638 q 458 826 504 782 q 340 871 411 871 q 236 833 279 871 q 193 733 193 796 m 169 228 q 223 91 169 139 q 356 43 276 43 q 482 85 433 43 q 531 200 531 128 q 502 297 531 258 q 423 369 474 336 q 304 440 372 401 q 197 342 225 388 q 169 228 169 297 z "},"9":{"ha":694,"x_min":53,"x_max":636,"o":"m 122 -194 l 122 -154 q 394 22 292 -100 q 518 311 497 143 q 426 227 482 258 q 299 196 369 196 q 169 230 224 196 q 83 324 114 264 q 53 458 53 383 q 85 598 53 531 q 181 708 117 665 q 342 750 246 750 q 494 706 428 750 q 599 585 561 663 q 636 411 636 508 q 574 144 636 265 q 396 -63 511 24 q 122 -194 281 -150 m 163 486 q 342 276 163 276 q 447 304 400 276 q 524 376 494 332 q 524 399 524 388 q 469 624 524 554 q 339 694 415 694 q 242 665 281 694 q 183 588 203 636 q 163 486 163 540 z "},"\u0000":{"ha":0,"x_min":0,"x_max":0,"o":""}," ":{"ha":347,"x_min":0,"x_max":0,"o":""}," ":{"ha":694,"x_min":0,"x_max":0,"o":""}," ":{"ha":347,"x_min":0,"x_max":0,"o":""}," ":{"ha":174,"x_min":0,"x_max":0,"o":""}," ":{"ha":35,"x_min":0,"x_max":0,"o":""},"​":{"ha":0,"x_min":0,"x_max":0,"o":""},"A":{"ha":1018,"x_min":46,"x_max":972,"o":"m 46 0 l 46 28 l 129 63 l 483 924 l 532 924 l 885 64 l 972 28 l 972 0 l 649 0 l 649 28 l 768 64 l 660 335 l 317 335 l 210 63 l 329 28 l 329 0 l 46 0 m 343 400 l 633 400 l 488 764 l 343 400 z "},"B":{"ha":876,"x_min":90,"x_max":804,"o":"m 90 0 l 90 28 l 200 69 l 200 847 l 90 889 l 90 917 l 401 917 q 565 894 492 917 q 682 826 639 871 q 725 711 725 781 q 677 578 725 639 q 540 492 629 518 q 735 417 665 475 q 804 267 804 358 q 756 130 804 190 q 626 35 708 69 q 439 0 544 0 l 90 0 m 386 851 l 308 851 l 308 506 l 394 506 q 551 550 493 506 q 610 675 610 594 q 553 807 610 763 q 386 851 496 851 m 439 440 l 308 440 l 308 64 l 449 64 q 624 117 558 64 q 689 253 689 171 q 623 395 689 350 q 439 440 557 440 z "},"C":{"ha":1001,"x_min":97,"x_max":874,"o":"m 551 -14 q 312 44 414 -14 q 153 204 210 103 q 97 433 97 306 q 135 625 97 535 q 238 784 172 715 q 390 892 304 853 q 574 931 476 931 q 690 922 642 931 q 776 897 738 913 q 853 864 814 882 l 858 632 l 832 632 l 760 797 q 663 853 706 835 q 567 872 619 872 q 380 821 461 872 q 251 681 299 769 q 204 481 204 592 q 251 249 204 347 q 378 99 299 151 q 558 46 458 46 q 679 65 629 46 q 768 111 729 85 l 849 269 l 874 269 l 860 54 q 777 18 819 33 q 681 -6 735 3 q 551 -14 628 -14 z "},"D":{"ha":1042,"x_min":90,"x_max":944,"o":"m 90 0 l 90 28 l 201 69 l 201 847 l 90 889 l 90 917 l 463 917 q 724 863 617 917 q 888 714 832 808 q 944 500 944 619 q 882 239 944 351 q 708 63 819 126 q 453 0 597 0 l 90 0 m 449 851 l 310 851 l 310 65 l 464 65 q 658 115 575 65 q 785 252 740 164 q 831 457 831 340 q 786 665 831 576 q 656 803 742 754 q 449 851 571 851 z "},"E":{"ha":882,"x_min":90,"x_max":785,"o":"m 90 0 l 90 28 l 200 69 l 200 847 l 90 889 l 90 917 l 746 917 l 746 683 l 722 683 l 647 851 l 308 851 l 308 506 l 551 506 l 607 621 l 631 621 l 631 328 l 607 328 l 551 440 l 308 440 l 308 65 l 686 65 l 761 247 l 785 247 l 785 0 l 90 0 z "},"F":{"ha":836,"x_min":90,"x_max":739,"o":"m 90 0 l 90 28 l 201 69 l 201 847 l 92 889 l 92 917 l 739 917 l 739 683 l 714 683 l 640 851 l 310 851 l 310 506 l 544 506 l 600 621 l 624 621 l 624 328 l 600 328 l 544 440 l 310 440 l 310 69 l 435 28 l 435 0 l 90 0 z "},"G":{"ha":1054,"x_min":97,"x_max":985,"o":"m 560 -14 q 322 44 426 -14 q 157 203 217 103 q 97 433 97 304 q 135 631 97 540 q 240 788 174 721 q 396 893 307 856 q 585 931 485 931 q 709 922 658 931 q 801 899 760 914 q 881 864 842 883 l 888 640 l 863 640 l 788 796 q 683 855 729 838 q 579 872 638 872 q 382 822 467 872 q 249 687 297 772 q 201 497 201 601 q 254 260 201 358 q 395 108 307 161 q 589 56 483 56 q 683 62 638 56 q 776 88 728 68 l 776 331 l 654 375 l 654 403 l 985 403 l 985 375 l 885 331 l 885 97 q 735 16 825 46 q 560 -14 644 -14 z "},"H":{"ha":1110,"x_min":90,"x_max":1019,"o":"m 90 0 l 90 28 l 200 69 l 200 847 l 90 889 l 90 917 l 422 917 l 422 889 l 308 847 l 308 506 l 801 506 l 801 847 l 688 889 l 688 917 l 1019 917 l 1019 889 l 910 847 l 910 69 l 1019 28 l 1019 0 l 688 0 l 688 28 l 801 69 l 801 440 l 308 440 l 308 69 l 422 28 l 422 0 l 90 0 z "},"I":{"ha":522,"x_min":97,"x_max":425,"o":"m 97 0 l 97 28 l 207 69 l 207 847 l 97 889 l 97 917 l 425 917 l 425 889 l 315 847 l 315 69 l 425 28 l 425 0 l 97 0 z "},"J":{"ha":525,"x_min":18,"x_max":428,"o":"m 64 -240 q 32 -232 46 -240 q 18 -201 18 -224 q 20 -186 18 -199 q 32 -131 22 -174 l 40 -131 q 78 -140 64 -136 q 111 -143 92 -143 q 163 -128 142 -143 q 197 -68 185 -114 q 208 71 208 -22 l 208 847 l 97 889 l 97 917 l 428 917 l 428 889 l 317 847 l 317 317 q 294 37 317 154 q 215 -143 272 -81 q 152 -206 175 -186 q 110 -233 129 -226 q 64 -240 90 -240 z "},"K":{"ha":989,"x_min":90,"x_max":957,"o":"m 90 0 l 90 28 l 201 69 l 201 847 l 90 889 l 90 917 l 421 917 l 421 889 l 310 847 l 310 472 l 703 851 l 600 889 l 600 917 l 885 917 l 885 889 l 800 863 l 418 500 l 868 56 l 957 28 l 957 0 l 775 0 l 310 467 l 310 69 l 421 28 l 421 0 l 90 0 z "},"L":{"ha":865,"x_min":90,"x_max":768,"o":"m 90 0 l 90 28 l 200 69 l 200 847 l 90 889 l 90 917 l 433 917 l 433 889 l 308 847 l 308 65 l 661 65 l 744 303 l 768 303 l 768 0 l 90 0 z "},"M":{"ha":1318,"x_min":83,"x_max":1235,"o":"m 83 0 l 83 28 l 193 69 l 222 844 l 103 889 l 103 917 l 343 917 l 669 156 l 1000 917 l 1231 917 l 1231 889 l 1114 846 l 1138 69 l 1235 28 l 1235 0 l 929 0 l 929 28 l 1032 68 l 1017 788 l 672 -7 l 624 -7 l 286 785 l 269 68 l 382 28 l 382 0 l 83 0 z "},"N":{"ha":1101,"x_min":86,"x_max":1015,"o":"m 86 0 l 86 28 l 196 69 l 196 846 l 88 889 l 88 917 l 282 917 l 826 210 l 826 849 l 696 889 l 696 917 l 1015 917 l 1015 889 l 906 847 l 906 -7 l 863 -7 l 276 750 l 276 71 l 410 28 l 410 0 l 86 0 z "},"O":{"ha":1099,"x_min":97,"x_max":1001,"o":"m 549 -14 q 369 22 451 -14 q 226 120 286 57 q 131 269 165 183 q 97 458 97 356 q 131 647 97 561 q 226 797 165 733 q 369 895 286 860 q 549 931 451 931 q 728 895 646 931 q 872 797 811 860 q 967 647 933 733 q 1001 458 1001 561 q 967 269 1001 356 q 872 120 933 183 q 728 22 811 57 q 549 -14 646 -14 m 578 44 q 739 90 669 44 q 847 219 808 136 q 886 415 886 303 q 838 657 886 554 q 707 817 789 760 q 525 874 625 874 q 363 828 433 874 q 252 700 292 783 q 213 504 213 617 q 261 262 213 365 q 392 101 310 158 q 578 44 475 44 z "},"P":{"ha":851,"x_min":90,"x_max":779,"o":"m 90 0 l 90 28 l 201 69 l 201 847 l 90 889 l 90 917 l 417 917 q 680 857 581 917 q 779 668 779 797 q 729 533 779 592 q 591 439 679 474 q 390 404 503 404 l 310 404 l 310 69 l 435 28 l 435 0 l 90 0 m 310 851 l 310 469 l 422 469 q 597 522 532 469 q 663 657 663 574 q 597 806 663 760 q 413 851 531 851 l 310 851 z "},"Q":{"ha":1104,"x_min":97,"x_max":1104,"o":"m 935 -207 q 824 -193 881 -207 q 693 -137 767 -179 q 515 -12 619 -96 q 300 58 394 -4 q 151 224 206 121 q 97 458 97 328 q 131 647 97 561 q 226 797 165 733 q 369 895 286 860 q 549 931 451 931 q 728 895 646 931 q 872 797 811 860 q 967 647 933 733 q 1001 458 1001 561 q 958 248 1001 343 q 838 88 915 153 q 661 -1 761 24 q 803 -98 744 -64 q 908 -146 861 -132 q 1003 -160 956 -160 q 1104 -144 1061 -160 l 1104 -169 q 1029 -196 1072 -185 q 935 -207 986 -207 m 578 44 q 739 90 669 44 q 847 219 808 136 q 886 415 886 303 q 838 657 886 554 q 707 817 789 760 q 525 874 625 874 q 363 828 433 874 q 252 700 292 783 q 213 504 213 617 q 261 262 213 365 q 392 101 310 158 q 578 44 475 44 z "},"R":{"ha":885,"x_min":90,"x_max":892,"o":"m 90 0 l 90 28 l 201 69 l 201 847 l 90 889 l 90 917 l 414 917 q 644 856 560 917 q 728 690 728 796 q 674 549 728 610 q 535 460 621 489 l 800 64 l 892 28 l 892 0 l 708 0 l 436 426 l 310 426 l 310 71 l 414 28 l 414 0 l 90 0 m 400 851 l 310 851 l 310 492 l 408 492 q 553 543 496 492 q 611 672 611 594 q 554 803 611 756 q 400 851 497 851 z "},"S":{"ha":729,"x_min":83,"x_max":653,"o":"m 361 -14 q 219 2 278 -14 q 97 50 161 18 l 83 272 l 107 272 l 179 113 q 275 58 229 74 q 368 42 321 42 q 501 88 454 42 q 549 214 549 133 q 519 313 549 276 q 437 376 490 349 q 311 440 383 404 q 204 504 247 472 q 138 578 161 536 q 115 682 115 619 q 138 772 115 728 q 198 852 160 817 q 284 909 236 888 q 383 931 332 931 q 499 915 447 931 q 607 872 551 900 l 621 656 l 597 656 l 536 808 q 458 859 493 844 q 376 874 422 874 q 263 830 304 874 q 221 721 221 786 q 241 638 221 672 q 303 576 261 604 q 408 517 344 547 q 546 440 492 476 q 626 358 600 404 q 653 240 653 311 q 626 133 653 181 q 557 53 600 86 q 463 3 514 21 q 361 -14 411 -14 z "},"T":{"ha":931,"x_min":63,"x_max":868,"o":"m 272 0 l 272 28 l 411 69 l 411 851 l 167 851 l 88 647 l 63 647 l 63 917 l 868 917 l 868 647 l 843 647 l 764 851 l 519 851 l 519 69 l 658 28 l 658 0 l 272 0 z "},"U":{"ha":1107,"x_min":90,"x_max":1017,"o":"m 554 -14 q 373 24 453 -14 q 247 140 293 61 q 201 346 201 219 l 201 847 l 90 889 l 90 917 l 421 917 l 421 889 l 310 847 l 310 365 q 345 183 310 250 q 443 86 381 115 q 586 57 506 57 q 707 84 653 57 q 794 169 761 111 q 826 322 826 228 l 826 850 l 688 889 l 688 917 l 1017 917 l 1017 889 l 907 849 l 907 346 q 861 140 907 219 q 735 24 815 61 q 554 -14 656 -14 z "},"V":{"ha":1001,"x_min":49,"x_max":953,"o":"m 485 -7 l 140 851 l 49 889 l 49 917 l 375 917 l 375 889 l 257 851 l 257 846 l 522 172 l 531 172 l 792 849 l 792 853 l 675 889 l 675 917 l 953 917 l 953 889 l 876 858 l 525 -7 l 485 -7 z "},"W":{"ha":1347,"x_min":21,"x_max":1326,"o":"m 378 -7 l 124 851 l 21 889 l 21 917 l 358 917 l 358 889 l 238 851 l 422 207 l 429 207 l 672 924 l 715 924 l 969 207 l 976 207 l 1156 847 l 1035 889 l 1035 917 l 1326 917 l 1326 889 l 1235 850 l 979 -7 l 939 -7 l 681 699 l 674 699 l 418 -7 l 378 -7 z "},"X":{"ha":1011,"x_min":49,"x_max":963,"o":"m 49 0 l 49 28 l 150 68 l 446 458 l 160 851 l 69 889 l 69 917 l 400 917 l 400 889 l 290 850 l 290 843 l 519 532 l 754 844 l 754 850 l 650 889 l 650 917 l 928 917 l 928 889 l 843 853 l 558 479 l 860 71 l 963 28 l 963 0 l 625 0 l 625 28 l 728 65 l 728 71 l 483 407 l 236 72 l 236 67 l 347 28 l 347 0 l 49 0 z "},"Y":{"ha":981,"x_min":49,"x_max":932,"o":"m 317 0 l 317 28 l 442 69 l 442 432 l 135 853 l 49 889 l 49 917 l 365 917 l 365 889 l 268 853 l 268 847 l 522 494 l 753 846 l 753 851 l 651 889 l 651 917 l 932 917 l 932 889 l 844 856 l 550 429 l 550 69 l 675 28 l 675 0 l 317 0 z "},"Z":{"ha":886,"x_min":125,"x_max":761,"o":"m 125 0 l 125 32 l 610 851 l 240 851 l 167 669 l 142 669 l 142 917 l 746 917 l 746 885 l 261 65 l 663 65 l 738 261 l 761 261 l 761 0 l 125 0 z "},"À":{"ha":1018,"x_min":46,"x_max":972,"o":"m 46 0 l 46 28 l 129 63 l 483 924 l 532 924 l 885 64 l 972 28 l 972 0 l 649 0 l 649 28 l 768 64 l 660 335 l 317 335 l 210 63 l 329 28 l 329 0 l 46 0 m 343 400 l 633 400 l 488 764 l 343 400 m 500 986 l 344 1110 q 307 1155 315 1133 q 299 1197 299 1176 l 393 1197 l 517 986 l 500 986 z "},"Á":{"ha":1018,"x_min":46,"x_max":972,"o":"m 46 0 l 46 28 l 129 63 l 483 924 l 532 924 l 885 64 l 972 28 l 972 0 l 649 0 l 649 28 l 768 64 l 660 335 l 317 335 l 210 63 l 329 28 l 329 0 l 46 0 m 343 400 l 633 400 l 488 764 l 343 400 m 501 986 l 626 1197 l 719 1197 q 711 1155 719 1176 q 674 1110 703 1133 l 518 986 l 501 986 z "},"Â":{"ha":1018,"x_min":46,"x_max":972,"o":"m 46 0 l 46 28 l 129 63 l 483 924 l 532 924 l 885 64 l 972 28 l 972 0 l 649 0 l 649 28 l 768 64 l 660 335 l 317 335 l 210 63 l 329 28 l 329 0 l 46 0 m 343 400 l 633 400 l 488 764 l 343 400 m 311 986 l 490 1197 l 526 1197 l 706 986 l 689 986 l 508 1106 l 328 986 l 311 986 z "},"Ã":{"ha":1018,"x_min":46,"x_max":972,"o":"m 46 0 l 46 28 l 129 63 l 483 924 l 532 924 l 885 64 l 972 28 l 972 0 l 649 0 l 649 28 l 768 64 l 660 335 l 317 335 l 210 63 l 329 28 l 329 0 l 46 0 m 343 400 l 633 400 l 488 764 l 343 400 m 304 1011 q 344 1112 325 1078 q 384 1158 364 1146 q 429 1169 404 1169 q 494 1148 464 1169 q 551 1105 524 1126 q 608 1083 579 1083 q 655 1102 635 1083 q 694 1169 675 1121 l 713 1169 q 672 1067 692 1101 q 633 1022 653 1033 q 588 1011 613 1011 q 523 1032 553 1011 q 465 1074 493 1053 q 408 1096 438 1096 q 362 1078 382 1096 q 322 1011 342 1060 l 304 1011 z "},"Ä":{"ha":1018,"x_min":46,"x_max":972,"o":"m 46 0 l 46 28 l 129 63 l 483 924 l 532 924 l 885 64 l 972 28 l 972 0 l 649 0 l 649 28 l 768 64 l 660 335 l 317 335 l 210 63 l 329 28 l 329 0 l 46 0 m 343 400 l 633 400 l 488 764 l 343 400 m 379 1029 q 334 1047 353 1029 q 315 1092 315 1064 q 334 1138 315 1119 q 379 1156 353 1156 q 424 1138 406 1156 q 443 1092 443 1119 q 424 1047 443 1064 q 379 1029 406 1029 m 638 1029 q 592 1047 611 1029 q 574 1092 574 1064 q 592 1138 574 1119 q 638 1156 611 1156 q 683 1138 664 1156 q 701 1092 701 1119 q 683 1047 701 1064 q 638 1029 664 1029 z "},"Ā":{"ha":1018,"x_min":46,"x_max":972,"o":"m 46 0 l 46 28 l 129 63 l 483 924 l 532 924 l 885 64 l 972 28 l 972 0 l 649 0 l 649 28 l 768 64 l 660 335 l 317 335 l 210 63 l 329 28 l 329 0 l 46 0 m 343 400 l 633 400 l 488 764 l 343 400 m 326 1064 l 326 1125 l 690 1125 l 690 1064 l 326 1064 z "},"Ă":{"ha":1018,"x_min":46,"x_max":972,"o":"m 46 0 l 46 28 l 129 63 l 483 924 l 532 924 l 885 64 l 972 28 l 972 0 l 649 0 l 649 28 l 768 64 l 660 335 l 317 335 l 210 63 l 329 28 l 329 0 l 46 0 m 343 400 l 633 400 l 488 764 l 343 400 m 508 986 q 379 1041 422 986 q 311 1197 336 1096 l 328 1197 q 376 1114 351 1142 q 433 1076 401 1086 q 508 1065 465 1065 q 583 1076 551 1065 q 639 1114 614 1086 q 689 1197 664 1142 l 706 1197 q 637 1041 679 1096 q 508 986 594 986 z "},"Å":{"ha":1018,"x_min":46,"x_max":972,"o":"m 46 0 l 46 28 l 129 63 l 483 924 l 532 924 l 885 64 l 972 28 l 972 0 l 649 0 l 649 28 l 768 64 l 660 335 l 317 335 l 210 63 l 329 28 l 329 0 l 46 0 m 343 400 l 633 400 l 488 764 l 343 400 m 508 986 q 423 1019 456 986 q 390 1100 390 1051 q 423 1181 390 1147 q 508 1214 456 1214 q 594 1181 561 1214 q 626 1100 626 1147 q 594 1019 626 1051 q 508 986 561 986 m 515 1017 q 551 1034 538 1017 q 564 1090 564 1051 q 547 1160 564 1136 q 503 1183 531 1183 q 468 1167 481 1183 q 456 1110 456 1150 q 515 1017 456 1017 z "},"Ǻ":{"ha":1018,"x_min":46,"x_max":972,"o":"m 46 0 l 46 28 l 129 63 l 483 924 l 532 924 l 885 64 l 972 28 l 972 0 l 649 0 l 649 28 l 768 64 l 660 335 l 317 335 l 210 63 l 329 28 l 329 0 l 46 0 m 343 400 l 633 400 l 488 764 l 343 400 m 508 986 q 423 1019 456 986 q 390 1100 390 1051 q 423 1181 390 1147 q 508 1214 456 1214 q 594 1181 561 1214 q 626 1100 626 1147 q 594 1019 626 1051 q 508 986 561 986 m 515 1017 q 551 1034 538 1017 q 564 1090 564 1051 q 547 1160 564 1136 q 503 1183 531 1183 q 468 1167 481 1183 q 456 1110 456 1150 q 515 1017 456 1017 m 501 1257 l 626 1468 l 719 1468 q 711 1426 719 1447 q 674 1381 703 1404 l 518 1257 l 501 1257 z "},"Ạ":{"ha":1018,"x_min":46,"x_max":972,"o":"m 46 0 l 46 28 l 129 63 l 483 924 l 532 924 l 885 64 l 972 28 l 972 0 l 649 0 l 649 28 l 768 64 l 660 335 l 317 335 l 210 63 l 329 28 l 329 0 l 46 0 m 343 400 l 633 400 l 488 764 l 343 400 z "},"Ą":{"ha":1018,"x_min":46,"x_max":972,"o":"m 771 -192 q 794 -261 771 -239 q 861 -283 818 -283 q 899 -278 881 -283 q 936 -261 917 -274 l 940 -261 l 940 -278 q 895 -318 924 -303 q 828 -333 867 -333 q 733 -302 771 -333 q 696 -215 696 -271 q 729 -109 696 -161 q 817 0 763 -57 l 649 0 l 649 28 l 768 64 l 660 335 l 317 335 l 210 63 l 329 28 l 329 0 l 46 0 l 46 28 l 129 63 l 483 924 l 532 924 l 885 64 l 972 28 l 972 0 l 850 0 q 771 -192 771 -106 m 343 400 l 633 400 l 488 764 l 343 400 z "},"Ȁ":{"ha":1018,"x_min":46,"x_max":972,"o":"m 46 0 l 46 28 l 129 63 l 483 924 l 532 924 l 885 64 l 972 28 l 972 0 l 649 0 l 649 28 l 768 64 l 660 335 l 317 335 l 210 63 l 329 28 l 329 0 l 46 0 m 343 400 l 633 400 l 488 764 l 343 400 m 419 986 l 294 1110 q 272 1154 272 1132 q 278 1197 271 1176 l 351 1197 l 438 986 l 419 986 m 578 986 l 461 1110 q 439 1155 440 1133 q 444 1197 438 1176 l 518 1197 l 594 986 l 578 986 z "},"Ȃ":{"ha":1018,"x_min":46,"x_max":972,"o":"m 46 0 l 46 28 l 129 63 l 483 924 l 532 924 l 885 64 l 972 28 l 972 0 l 649 0 l 649 28 l 768 64 l 660 335 l 317 335 l 210 63 l 329 28 l 329 0 l 46 0 m 343 400 l 633 400 l 488 764 l 343 400 m 311 986 q 380 1142 338 1088 q 508 1197 422 1197 q 638 1142 594 1197 q 706 986 681 1088 l 689 986 q 640 1069 665 1042 q 583 1108 615 1097 q 508 1118 551 1118 q 434 1108 465 1118 q 378 1069 403 1097 q 328 986 353 1042 l 311 986 z "},"Ắ":{"ha":1018,"x_min":46,"x_max":972,"o":"m 46 0 l 46 28 l 129 63 l 483 924 l 532 924 l 885 64 l 972 28 l 972 0 l 649 0 l 649 28 l 768 64 l 660 335 l 317 335 l 210 63 l 329 28 l 329 0 l 46 0 m 343 400 l 633 400 l 488 764 l 343 400 z "},"Ặ":{"ha":1018,"x_min":46,"x_max":972,"o":"m 46 0 l 46 28 l 129 63 l 483 924 l 532 924 l 885 64 l 972 28 l 972 0 l 649 0 l 649 28 l 768 64 l 660 335 l 317 335 l 210 63 l 329 28 l 329 0 l 46 0 m 343 400 l 633 400 l 488 764 l 343 400 m 508 986 q 379 1041 422 986 q 311 1197 336 1096 l 328 1197 q 376 1114 351 1142 q 433 1076 401 1086 q 508 1065 465 1065 q 583 1076 551 1065 q 639 1114 614 1086 q 689 1197 664 1142 l 706 1197 q 637 1041 679 1096 q 508 986 594 986 z "},"Ằ":{"ha":1018,"x_min":46,"x_max":972,"o":"m 46 0 l 46 28 l 129 63 l 483 924 l 532 924 l 885 64 l 972 28 l 972 0 l 649 0 l 649 28 l 768 64 l 660 335 l 317 335 l 210 63 l 329 28 l 329 0 l 46 0 m 343 400 l 633 400 l 488 764 l 343 400 z "},"Ẳ":{"ha":1018,"x_min":46,"x_max":972,"o":"m 46 0 l 46 28 l 129 63 l 483 924 l 532 924 l 885 64 l 972 28 l 972 0 l 649 0 l 649 28 l 768 64 l 660 335 l 317 335 l 210 63 l 329 28 l 329 0 l 46 0 m 343 400 l 633 400 l 488 764 l 343 400 z "},"Ẵ":{"ha":1018,"x_min":46,"x_max":972,"o":"m 46 0 l 46 28 l 129 63 l 483 924 l 532 924 l 885 64 l 972 28 l 972 0 l 649 0 l 649 28 l 768 64 l 660 335 l 317 335 l 210 63 l 329 28 l 329 0 l 46 0 m 343 400 l 633 400 l 488 764 l 343 400 z "},"Ấ":{"ha":1018,"x_min":46,"x_max":972,"o":"m 46 0 l 46 28 l 129 63 l 483 924 l 532 924 l 885 64 l 972 28 l 972 0 l 649 0 l 649 28 l 768 64 l 660 335 l 317 335 l 210 63 l 329 28 l 329 0 l 46 0 m 343 400 l 633 400 l 488 764 l 343 400 m 661 1118 l 726 1317 l 817 1317 q 808 1284 817 1299 q 781 1246 800 1269 l 672 1118 l 661 1118 m 311 986 l 490 1197 l 526 1197 l 706 986 l 689 986 l 508 1106 l 328 986 l 311 986 z "},"Ậ":{"ha":1018,"x_min":46,"x_max":972,"o":"m 46 0 l 46 28 l 129 63 l 483 924 l 532 924 l 885 64 l 972 28 l 972 0 l 649 0 l 649 28 l 768 64 l 660 335 l 317 335 l 210 63 l 329 28 l 329 0 l 46 0 m 343 400 l 633 400 l 488 764 l 343 400 m 311 986 l 490 1197 l 526 1197 l 706 986 l 689 986 l 508 1106 l 328 986 l 311 986 z "},"Ầ":{"ha":1018,"x_min":46,"x_max":972,"o":"m 46 0 l 46 28 l 129 63 l 483 924 l 532 924 l 885 64 l 972 28 l 972 0 l 649 0 l 649 28 l 768 64 l 660 335 l 317 335 l 210 63 l 329 28 l 329 0 l 46 0 m 343 400 l 633 400 l 488 764 l 343 400 m 344 1118 l 236 1246 q 208 1284 217 1269 q 200 1317 200 1299 l 290 1317 l 356 1118 l 344 1118 m 311 986 l 490 1197 l 526 1197 l 706 986 l 689 986 l 508 1106 l 328 986 l 311 986 z "},"Ẩ":{"ha":1018,"x_min":46,"x_max":972,"o":"m 46 0 l 46 28 l 129 63 l 483 924 l 532 924 l 885 64 l 972 28 l 972 0 l 649 0 l 649 28 l 768 64 l 660 335 l 317 335 l 210 63 l 329 28 l 329 0 l 46 0 m 343 400 l 633 400 l 488 764 l 343 400 z "},"Ẫ":{"ha":1018,"x_min":46,"x_max":972,"o":"m 46 0 l 46 28 l 129 63 l 483 924 l 532 924 l 885 64 l 972 28 l 972 0 l 649 0 l 649 28 l 768 64 l 660 335 l 317 335 l 210 63 l 329 28 l 329 0 l 46 0 m 343 400 l 633 400 l 488 764 l 343 400 z "},"Ả":{"ha":1018,"x_min":46,"x_max":972,"o":"m 46 0 l 46 28 l 129 63 l 483 924 l 532 924 l 885 64 l 972 28 l 972 0 l 649 0 l 649 28 l 768 64 l 660 335 l 317 335 l 210 63 l 329 28 l 329 0 l 46 0 m 343 400 l 633 400 l 488 764 l 343 400 m 444 985 l 444 986 q 522 1022 494 1003 q 550 1074 550 1040 q 525 1120 550 1101 q 435 1150 500 1139 l 447 1215 q 578 1172 542 1207 q 614 1101 614 1138 q 573 1018 614 1047 q 454 975 532 989 l 444 985 z "},"Æ":{"ha":1328,"x_min":42,"x_max":1231,"o":"m 632 917 l 1192 917 l 1192 683 l 1168 683 l 1093 851 l 754 851 l 754 506 l 997 506 l 1053 621 l 1076 621 l 1076 328 l 1053 328 l 997 440 l 754 440 l 754 65 l 1132 65 l 1207 247 l 1231 247 l 1231 0 l 536 0 l 536 28 l 646 69 l 646 335 l 365 335 l 208 64 l 324 28 l 324 0 l 42 0 l 42 28 l 126 65 l 632 917 m 403 400 l 646 400 l 646 819 l 403 400 z "},"Ǽ":{"ha":1328,"x_min":42,"x_max":1231,"o":"m 632 917 l 1192 917 l 1192 683 l 1168 683 l 1093 851 l 754 851 l 754 506 l 997 506 l 1053 621 l 1076 621 l 1076 328 l 1053 328 l 997 440 l 754 440 l 754 65 l 1132 65 l 1207 247 l 1231 247 l 1231 0 l 536 0 l 536 28 l 646 69 l 646 335 l 365 335 l 208 64 l 324 28 l 324 0 l 42 0 l 42 28 l 126 65 l 632 917 m 403 400 l 646 400 l 646 819 l 403 400 m 707 986 l 832 1197 l 925 1197 q 917 1155 925 1176 q 879 1110 908 1133 l 724 986 l 707 986 z "},"Ć":{"ha":1001,"x_min":97,"x_max":874,"o":"m 551 -14 q 312 44 414 -14 q 153 204 210 103 q 97 433 97 306 q 135 625 97 535 q 238 784 172 715 q 390 892 304 853 q 574 931 476 931 q 690 922 642 931 q 776 897 738 913 q 853 864 814 882 l 858 632 l 832 632 l 760 797 q 663 853 706 835 q 567 872 619 872 q 380 821 461 872 q 251 681 299 769 q 204 481 204 592 q 251 249 204 347 q 378 99 299 151 q 558 46 458 46 q 679 65 629 46 q 768 111 729 85 l 849 269 l 874 269 l 860 54 q 777 18 819 33 q 681 -6 735 3 q 551 -14 628 -14 m 542 986 l 667 1197 l 760 1197 q 751 1155 760 1176 q 714 1110 743 1133 l 558 986 l 542 986 z "},"Ĉ":{"ha":1001,"x_min":97,"x_max":874,"o":"m 551 -14 q 312 44 414 -14 q 153 204 210 103 q 97 433 97 306 q 135 625 97 535 q 238 784 172 715 q 390 892 304 853 q 574 931 476 931 q 690 922 642 931 q 776 897 738 913 q 853 864 814 882 l 858 632 l 832 632 l 760 797 q 663 853 706 835 q 567 872 619 872 q 380 821 461 872 q 251 681 299 769 q 204 481 204 592 q 251 249 204 347 q 378 99 299 151 q 558 46 458 46 q 679 65 629 46 q 768 111 729 85 l 849 269 l 874 269 l 860 54 q 777 18 819 33 q 681 -6 735 3 q 551 -14 628 -14 m 351 986 l 531 1197 l 567 1197 l 746 986 l 729 986 l 549 1106 l 368 986 l 351 986 z "},"Č":{"ha":1001,"x_min":97,"x_max":874,"o":"m 551 -14 q 312 44 414 -14 q 153 204 210 103 q 97 433 97 306 q 135 625 97 535 q 238 784 172 715 q 390 892 304 853 q 574 931 476 931 q 690 922 642 931 q 776 897 738 913 q 853 864 814 882 l 858 632 l 832 632 l 760 797 q 663 853 706 835 q 567 872 619 872 q 380 821 461 872 q 251 681 299 769 q 204 481 204 592 q 251 249 204 347 q 378 99 299 151 q 558 46 458 46 q 679 65 629 46 q 768 111 729 85 l 849 269 l 874 269 l 860 54 q 777 18 819 33 q 681 -6 735 3 q 551 -14 628 -14 m 531 986 l 351 1197 l 368 1197 l 549 1078 l 729 1197 l 746 1197 l 567 986 l 531 986 z "},"Ċ":{"ha":1001,"x_min":97,"x_max":874,"o":"m 551 -14 q 312 44 414 -14 q 153 204 210 103 q 97 433 97 306 q 135 625 97 535 q 238 784 172 715 q 390 892 304 853 q 574 931 476 931 q 690 922 642 931 q 776 897 738 913 q 853 864 814 882 l 858 632 l 832 632 l 760 797 q 663 853 706 835 q 567 872 619 872 q 380 821 461 872 q 251 681 299 769 q 204 481 204 592 q 251 249 204 347 q 378 99 299 151 q 558 46 458 46 q 679 65 629 46 q 768 111 729 85 l 849 269 l 874 269 l 860 54 q 777 18 819 33 q 681 -6 735 3 q 551 -14 628 -14 m 549 1024 q 499 1044 519 1024 q 478 1094 478 1064 q 499 1144 478 1124 q 549 1165 519 1165 q 599 1144 578 1165 q 619 1094 619 1124 q 599 1044 619 1064 q 549 1024 578 1024 z "},"Ç":{"ha":1001,"x_min":97,"x_max":874,"o":"m 535 -297 q 596 -281 578 -297 q 614 -237 614 -264 q 579 -180 614 -201 q 464 -135 544 -158 l 528 -14 q 301 51 397 -8 q 151 210 204 111 q 97 433 97 308 q 135 625 97 535 q 238 784 172 715 q 390 892 304 853 q 574 931 476 931 q 690 922 642 931 q 776 897 738 913 q 853 864 814 882 l 858 632 l 832 632 l 760 797 q 663 853 706 835 q 567 872 619 872 q 380 821 461 872 q 251 681 299 769 q 204 481 204 592 q 251 249 204 347 q 378 99 299 151 q 558 46 458 46 q 677 65 628 46 q 765 108 726 83 l 849 269 l 874 269 l 860 54 q 780 19 821 35 q 688 -4 739 4 q 567 -14 638 -12 l 532 -82 q 642 -134 604 -104 q 681 -218 681 -164 q 647 -301 681 -268 q 550 -333 613 -333 q 443 -296 478 -333 l 443 -279 l 447 -279 q 535 -297 485 -297 z "},"Ḉ":{"ha":1001,"x_min":97,"x_max":874,"o":"m 540 986 l 665 1197 l 760 1197 q 751 1155 760 1176 q 714 1110 743 1133 l 558 986 l 540 986 m 550 -333 q 443 -296 478 -333 l 443 -279 l 447 -279 q 535 -297 485 -297 q 596 -281 578 -297 q 614 -237 614 -264 q 579 -180 614 -201 q 464 -135 544 -158 l 528 -14 q 301 51 397 -8 q 151 210 204 111 q 97 433 97 308 q 135 625 97 535 q 238 784 172 715 q 390 892 304 853 q 574 931 476 931 q 690 922 642 931 q 776 897 738 913 q 853 864 814 882 l 858 632 l 832 632 l 760 797 q 663 853 706 835 q 567 872 619 872 q 380 821 461 872 q 251 681 299 769 q 204 481 204 592 q 251 249 204 347 q 378 99 299 151 q 558 46 458 46 q 679 65 629 46 q 768 111 729 85 l 849 269 l 874 269 l 860 54 q 780 19 821 35 q 688 -4 739 4 q 567 -14 638 -12 l 532 -82 q 642 -134 604 -104 q 681 -218 681 -164 q 647 -301 681 -268 q 550 -333 613 -333 z "},"Ď":{"ha":1042,"x_min":90,"x_max":944,"o":"m 90 0 l 90 28 l 201 69 l 201 847 l 90 889 l 90 917 l 463 917 q 724 863 617 917 q 888 714 832 808 q 944 500 944 619 q 882 239 944 351 q 708 63 819 126 q 453 0 597 0 l 90 0 m 449 851 l 310 851 l 310 65 l 464 65 q 658 115 575 65 q 785 252 740 164 q 831 457 831 340 q 786 665 831 576 q 656 803 742 754 q 449 851 571 851 m 501 986 l 322 1197 l 339 1197 l 519 1078 l 700 1197 l 717 1197 l 538 986 l 501 986 z "},"Đ":{"ha":1042,"x_min":90,"x_max":944,"o":"m 90 0 l 90 28 l 201 69 l 201 444 l 90 444 l 90 506 l 201 506 l 201 847 l 90 889 l 90 917 l 463 917 q 724 863 617 917 q 888 714 832 808 q 944 500 944 619 q 882 239 944 351 q 708 63 819 126 q 453 0 597 0 l 90 0 m 547 444 l 310 444 l 310 65 l 464 65 q 658 115 575 65 q 785 252 740 164 q 831 457 831 340 q 786 665 831 576 q 656 803 742 754 q 449 851 571 851 l 310 851 l 310 506 l 547 506 l 547 444 z "},"Ḍ":{"ha":1042,"x_min":90,"x_max":944,"o":"m 90 0 l 90 28 l 201 69 l 201 847 l 90 889 l 90 917 l 463 917 q 724 863 617 917 q 888 714 832 808 q 944 500 944 619 q 882 239 944 351 q 708 63 819 126 q 453 0 597 0 l 90 0 m 449 851 l 310 851 l 310 65 l 464 65 q 658 115 575 65 q 785 252 740 164 q 831 457 831 340 q 786 665 831 576 q 656 803 742 754 q 449 851 571 851 z "},"Ḏ":{"ha":1042,"x_min":90,"x_max":944,"o":"m 90 0 l 90 28 l 201 69 l 201 847 l 90 889 l 90 917 l 463 917 q 724 863 617 917 q 888 714 832 808 q 944 500 944 619 q 882 239 944 351 q 708 63 819 126 q 453 0 597 0 l 90 0 m 449 851 l 310 851 l 310 65 l 464 65 q 658 115 575 65 q 785 252 740 164 q 831 457 831 340 q 786 665 831 576 q 656 803 742 754 q 449 851 571 851 z "},"È":{"ha":882,"x_min":90,"x_max":785,"o":"m 90 0 l 90 28 l 200 69 l 200 847 l 90 889 l 90 917 l 746 917 l 746 683 l 722 683 l 647 851 l 308 851 l 308 506 l 551 506 l 607 621 l 631 621 l 631 328 l 607 328 l 551 440 l 308 440 l 308 65 l 686 65 l 761 247 l 785 247 l 785 0 l 90 0 m 453 986 l 297 1110 q 260 1155 268 1133 q 251 1197 251 1176 l 346 1197 l 469 986 l 453 986 z "},"É":{"ha":882,"x_min":90,"x_max":785,"o":"m 90 0 l 90 28 l 200 69 l 200 847 l 90 889 l 90 917 l 746 917 l 746 683 l 722 683 l 647 851 l 308 851 l 308 506 l 551 506 l 607 621 l 631 621 l 631 328 l 607 328 l 551 440 l 308 440 l 308 65 l 686 65 l 761 247 l 785 247 l 785 0 l 90 0 m 454 986 l 579 1197 l 672 1197 q 664 1155 672 1176 q 626 1110 656 1133 l 471 986 l 454 986 z "},"Ê":{"ha":882,"x_min":90,"x_max":785,"o":"m 90 0 l 90 28 l 200 69 l 200 847 l 90 889 l 90 917 l 746 917 l 746 683 l 722 683 l 647 851 l 308 851 l 308 506 l 551 506 l 607 621 l 631 621 l 631 328 l 607 328 l 551 440 l 308 440 l 308 65 l 686 65 l 761 247 l 785 247 l 785 0 l 90 0 m 264 986 l 443 1197 l 479 1197 l 658 986 l 642 986 l 461 1106 l 281 986 l 264 986 z "},"Ě":{"ha":882,"x_min":90,"x_max":785,"o":"m 90 0 l 90 28 l 200 69 l 200 847 l 90 889 l 90 917 l 746 917 l 746 683 l 722 683 l 647 851 l 308 851 l 308 506 l 551 506 l 607 621 l 631 621 l 631 328 l 607 328 l 551 440 l 308 440 l 308 65 l 686 65 l 761 247 l 785 247 l 785 0 l 90 0 m 443 986 l 264 1197 l 281 1197 l 461 1078 l 642 1197 l 658 1197 l 479 986 l 443 986 z "},"Ẽ":{"ha":882,"x_min":90,"x_max":785,"o":"m 90 0 l 90 28 l 200 69 l 200 847 l 90 889 l 90 917 l 746 917 l 746 683 l 722 683 l 647 851 l 308 851 l 308 506 l 551 506 l 607 621 l 631 621 l 631 328 l 607 328 l 551 440 l 308 440 l 308 65 l 686 65 l 761 247 l 785 247 l 785 0 l 90 0 m 257 1011 q 297 1112 278 1078 q 337 1158 317 1146 q 382 1169 357 1169 q 447 1148 417 1169 q 504 1105 476 1126 q 561 1083 532 1083 q 608 1102 588 1083 q 647 1169 628 1121 l 665 1169 q 625 1067 644 1101 q 585 1022 606 1033 q 540 1011 565 1011 q 476 1032 506 1011 q 418 1074 446 1053 q 361 1096 390 1096 q 315 1078 335 1096 q 275 1011 294 1060 l 257 1011 z "},"Ë":{"ha":882,"x_min":90,"x_max":785,"o":"m 90 0 l 90 28 l 200 69 l 200 847 l 90 889 l 90 917 l 746 917 l 746 683 l 722 683 l 647 851 l 308 851 l 308 506 l 551 506 l 607 621 l 631 621 l 631 328 l 607 328 l 551 440 l 308 440 l 308 65 l 686 65 l 761 247 l 785 247 l 785 0 l 90 0 m 332 1029 q 287 1047 306 1029 q 268 1092 268 1064 q 287 1138 268 1119 q 332 1156 306 1156 q 377 1138 358 1156 q 396 1092 396 1119 q 377 1047 396 1064 q 332 1029 358 1029 m 590 1029 q 545 1047 564 1029 q 526 1092 526 1064 q 545 1138 526 1119 q 590 1156 564 1156 q 635 1138 617 1156 q 654 1092 654 1119 q 635 1047 654 1064 q 590 1029 617 1029 z "},"Ē":{"ha":882,"x_min":90,"x_max":785,"o":"m 90 0 l 90 28 l 200 69 l 200 847 l 90 889 l 90 917 l 746 917 l 746 683 l 722 683 l 647 851 l 308 851 l 308 506 l 551 506 l 607 621 l 631 621 l 631 328 l 607 328 l 551 440 l 308 440 l 308 65 l 686 65 l 761 247 l 785 247 l 785 0 l 90 0 m 279 1064 l 279 1125 l 643 1125 l 643 1064 l 279 1064 z "},"Ĕ":{"ha":882,"x_min":90,"x_max":785,"o":"m 90 0 l 90 28 l 200 69 l 200 847 l 90 889 l 90 917 l 746 917 l 746 683 l 722 683 l 647 851 l 308 851 l 308 506 l 551 506 l 607 621 l 631 621 l 631 328 l 607 328 l 551 440 l 308 440 l 308 65 l 686 65 l 761 247 l 785 247 l 785 0 l 90 0 m 461 986 q 332 1041 375 986 q 264 1197 289 1096 l 281 1197 q 329 1114 304 1142 q 386 1076 354 1086 q 461 1065 418 1065 q 535 1076 504 1065 q 592 1114 567 1086 q 642 1197 617 1142 l 658 1197 q 590 1041 632 1096 q 461 986 547 986 z "},"Ė":{"ha":882,"x_min":90,"x_max":785,"o":"m 90 0 l 90 28 l 200 69 l 200 847 l 90 889 l 90 917 l 746 917 l 746 683 l 722 683 l 647 851 l 308 851 l 308 506 l 551 506 l 607 621 l 631 621 l 631 328 l 607 328 l 551 440 l 308 440 l 308 65 l 686 65 l 761 247 l 785 247 l 785 0 l 90 0 m 461 1024 q 411 1044 432 1024 q 390 1094 390 1064 q 411 1144 390 1124 q 461 1165 432 1165 q 511 1144 490 1165 q 532 1094 532 1124 q 511 1044 532 1064 q 461 1024 490 1024 z "},"Ę":{"ha":882,"x_min":90,"x_max":785,"o":"m 90 0 l 90 28 l 200 69 l 200 847 l 90 889 l 90 917 l 746 917 l 746 683 l 722 683 l 647 851 l 308 851 l 308 506 l 551 506 l 607 621 l 631 621 l 631 328 l 607 328 l 551 440 l 308 440 l 308 65 l 686 65 l 761 247 l 785 247 l 785 0 l 692 0 q 633 -101 651 -54 q 614 -192 614 -149 q 638 -261 614 -239 q 704 -283 661 -283 q 741 -278 722 -283 q 779 -261 760 -274 l 783 -261 l 783 -278 q 738 -318 767 -303 q 669 -333 708 -333 q 576 -302 614 -333 q 539 -215 539 -271 q 572 -109 539 -161 q 660 0 606 -57 l 90 0 z "},"Ẹ":{"ha":882,"x_min":90,"x_max":785,"o":"m 90 0 l 90 28 l 200 69 l 200 847 l 90 889 l 90 917 l 746 917 l 746 683 l 722 683 l 647 851 l 308 851 l 308 506 l 551 506 l 607 621 l 631 621 l 631 328 l 607 328 l 551 440 l 308 440 l 308 65 l 686 65 l 761 247 l 785 247 l 785 0 l 90 0 z "},"Ȅ":{"ha":882,"x_min":90,"x_max":785,"o":"m 90 0 l 90 28 l 200 69 l 200 847 l 90 889 l 90 917 l 746 917 l 746 683 l 722 683 l 647 851 l 308 851 l 308 506 l 551 506 l 607 621 l 631 621 l 631 328 l 607 328 l 551 440 l 308 440 l 308 65 l 686 65 l 761 247 l 785 247 l 785 0 l 90 0 m 372 986 l 247 1110 q 224 1154 225 1132 q 231 1197 224 1176 l 304 1197 l 390 986 l 372 986 m 531 986 l 414 1110 q 392 1155 393 1133 q 397 1197 390 1176 l 471 1197 l 547 986 l 531 986 z "},"Ȇ":{"ha":882,"x_min":90,"x_max":785,"o":"m 90 0 l 90 28 l 200 69 l 200 847 l 90 889 l 90 917 l 746 917 l 746 683 l 722 683 l 647 851 l 308 851 l 308 506 l 551 506 l 607 621 l 631 621 l 631 328 l 607 328 l 551 440 l 308 440 l 308 65 l 686 65 l 761 247 l 785 247 l 785 0 l 90 0 m 264 986 q 333 1142 290 1088 q 461 1197 375 1197 q 590 1142 547 1197 q 658 986 633 1088 l 642 986 q 593 1069 618 1042 q 536 1108 568 1097 q 461 1118 504 1118 q 387 1108 418 1118 q 331 1069 356 1097 q 281 986 306 1042 l 264 986 z "},"Ế":{"ha":882,"x_min":90,"x_max":785,"o":"m 90 0 l 90 28 l 200 69 l 200 847 l 90 889 l 90 917 l 746 917 l 746 683 l 722 683 l 647 851 l 308 851 l 308 506 l 551 506 l 607 621 l 631 621 l 631 328 l 607 328 l 551 440 l 308 440 l 308 65 l 686 65 l 761 247 l 785 247 l 785 0 l 90 0 m 614 1118 l 679 1317 l 769 1317 q 761 1284 769 1299 q 733 1246 753 1269 l 625 1118 l 614 1118 m 264 986 l 443 1197 l 479 1197 l 658 986 l 642 986 l 461 1106 l 281 986 l 264 986 z "},"Ệ":{"ha":882,"x_min":90,"x_max":785,"o":"m 90 0 l 90 28 l 200 69 l 200 847 l 90 889 l 90 917 l 746 917 l 746 683 l 722 683 l 647 851 l 308 851 l 308 506 l 551 506 l 607 621 l 631 621 l 631 328 l 607 328 l 551 440 l 308 440 l 308 65 l 686 65 l 761 247 l 785 247 l 785 0 l 90 0 m 264 986 l 443 1197 l 479 1197 l 658 986 l 642 986 l 461 1106 l 281 986 l 264 986 z "},"Ề":{"ha":882,"x_min":90,"x_max":785,"o":"m 90 0 l 90 28 l 200 69 l 200 847 l 90 889 l 90 917 l 746 917 l 746 683 l 722 683 l 647 851 l 308 851 l 308 506 l 551 506 l 607 621 l 631 621 l 631 328 l 607 328 l 551 440 l 308 440 l 308 65 l 686 65 l 761 247 l 785 247 l 785 0 l 90 0 m 297 1118 l 189 1246 q 161 1284 169 1269 q 153 1317 153 1299 l 243 1317 l 308 1118 l 297 1118 m 264 986 l 443 1197 l 479 1197 l 658 986 l 642 986 l 461 1106 l 281 986 l 264 986 z "},"Ể":{"ha":882,"x_min":90,"x_max":785,"o":"m 90 0 l 90 28 l 200 69 l 200 847 l 90 889 l 90 917 l 746 917 l 746 683 l 722 683 l 647 851 l 308 851 l 308 506 l 551 506 l 607 621 l 631 621 l 631 328 l 607 328 l 551 440 l 308 440 l 308 65 l 686 65 l 761 247 l 785 247 l 785 0 l 90 0 z "},"Ễ":{"ha":882,"x_min":90,"x_max":785,"o":"m 90 0 l 90 28 l 200 69 l 200 847 l 90 889 l 90 917 l 746 917 l 746 683 l 722 683 l 647 851 l 308 851 l 308 506 l 551 506 l 607 621 l 631 621 l 631 328 l 607 328 l 551 440 l 308 440 l 308 65 l 686 65 l 761 247 l 785 247 l 785 0 l 90 0 z "},"Ẻ":{"ha":882,"x_min":90,"x_max":785,"o":"m 90 0 l 90 28 l 200 69 l 200 847 l 90 889 l 90 917 l 746 917 l 746 683 l 722 683 l 647 851 l 308 851 l 308 506 l 551 506 l 607 621 l 631 621 l 631 328 l 607 328 l 551 440 l 308 440 l 308 65 l 686 65 l 761 247 l 785 247 l 785 0 l 90 0 m 397 985 l 397 986 q 475 1022 447 1003 q 503 1074 503 1040 q 478 1120 503 1101 q 388 1150 453 1139 l 400 1215 q 531 1172 494 1207 q 567 1101 567 1138 q 526 1018 567 1047 q 407 975 485 989 l 397 985 z "},"Ḕ":{"ha":882,"x_min":90,"x_max":785,"o":"m 90 0 l 90 28 l 200 69 l 200 847 l 90 889 l 90 917 l 746 917 l 746 683 l 722 683 l 647 851 l 308 851 l 308 506 l 551 506 l 607 621 l 631 621 l 631 328 l 607 328 l 551 440 l 308 440 l 308 65 l 686 65 l 761 247 l 785 247 l 785 0 l 90 0 z "},"Ḗ":{"ha":882,"x_min":90,"x_max":785,"o":"m 90 0 l 90 28 l 200 69 l 200 847 l 90 889 l 90 917 l 746 917 l 746 683 l 722 683 l 647 851 l 308 851 l 308 506 l 551 506 l 607 621 l 631 621 l 631 328 l 607 328 l 551 440 l 308 440 l 308 65 l 686 65 l 761 247 l 785 247 l 785 0 l 90 0 z "},"Ḝ":{"ha":882,"x_min":90,"x_max":785,"o":"m 461 986 q 332 1041 375 986 q 264 1197 289 1096 l 281 1197 q 331 1114 306 1142 q 387 1076 356 1086 q 461 1065 418 1065 q 535 1076 504 1065 q 592 1114 567 1086 q 642 1197 617 1142 l 658 1197 q 590 1041 632 1096 q 461 986 547 986 m 90 0 l 90 28 l 200 69 l 200 847 l 90 889 l 90 917 l 746 917 l 746 683 l 722 683 l 647 851 l 308 851 l 308 506 l 551 506 l 607 621 l 631 621 l 631 328 l 607 328 l 551 440 l 308 440 l 308 65 l 686 65 l 761 247 l 785 247 l 785 0 l 496 0 l 454 -82 q 565 -134 526 -104 q 603 -218 603 -164 q 569 -301 603 -268 q 472 -333 535 -333 q 410 -324 438 -333 q 365 -296 382 -314 l 365 -279 l 369 -279 q 456 -297 407 -297 q 517 -281 499 -297 q 536 -237 536 -264 q 501 -180 536 -201 q 385 -135 465 -158 l 456 0 l 90 0 z "},"Ĝ":{"ha":1054,"x_min":97,"x_max":985,"o":"m 560 -14 q 322 44 426 -14 q 157 203 217 103 q 97 433 97 304 q 135 631 97 540 q 240 788 174 721 q 396 893 307 856 q 585 931 485 931 q 709 922 658 931 q 801 899 760 914 q 881 864 842 883 l 888 640 l 863 640 l 788 796 q 683 855 729 838 q 579 872 638 872 q 382 822 467 872 q 249 687 297 772 q 201 497 201 601 q 254 260 201 358 q 395 108 307 161 q 589 56 483 56 q 683 62 638 56 q 776 88 728 68 l 776 331 l 654 375 l 654 403 l 985 403 l 985 375 l 885 331 l 885 97 q 735 16 825 46 q 560 -14 644 -14 m 367 986 l 546 1197 l 582 1197 l 761 986 l 744 986 l 564 1106 l 383 986 l 367 986 z "},"Ğ":{"ha":1054,"x_min":97,"x_max":985,"o":"m 560 -14 q 322 44 426 -14 q 157 203 217 103 q 97 433 97 304 q 135 631 97 540 q 240 788 174 721 q 396 893 307 856 q 585 931 485 931 q 709 922 658 931 q 801 899 760 914 q 881 864 842 883 l 888 640 l 863 640 l 788 796 q 683 855 729 838 q 579 872 638 872 q 382 822 467 872 q 249 687 297 772 q 201 497 201 601 q 254 260 201 358 q 395 108 307 161 q 589 56 483 56 q 683 62 638 56 q 776 88 728 68 l 776 331 l 654 375 l 654 403 l 985 403 l 985 375 l 885 331 l 885 97 q 735 16 825 46 q 560 -14 644 -14 m 564 986 q 435 1041 478 986 q 367 1197 392 1096 l 383 1197 q 432 1114 407 1142 q 489 1076 457 1086 q 564 1065 521 1065 q 638 1076 607 1065 q 694 1114 669 1086 q 744 1197 719 1142 l 761 1197 q 692 1041 735 1096 q 564 986 650 986 z "},"Ġ":{"ha":1054,"x_min":97,"x_max":985,"o":"m 560 -14 q 322 44 426 -14 q 157 203 217 103 q 97 433 97 304 q 135 631 97 540 q 240 788 174 721 q 396 893 307 856 q 585 931 485 931 q 709 922 658 931 q 801 899 760 914 q 881 864 842 883 l 888 640 l 863 640 l 788 796 q 683 855 729 838 q 579 872 638 872 q 382 822 467 872 q 249 687 297 772 q 201 497 201 601 q 254 260 201 358 q 395 108 307 161 q 589 56 483 56 q 683 62 638 56 q 776 88 728 68 l 776 331 l 654 375 l 654 403 l 985 403 l 985 375 l 885 331 l 885 97 q 735 16 825 46 q 560 -14 644 -14 m 564 1024 q 514 1044 535 1024 q 493 1094 493 1064 q 514 1144 493 1124 q 564 1165 535 1165 q 614 1144 593 1165 q 635 1094 635 1124 q 614 1044 635 1064 q 564 1024 593 1024 z "},"Ģ":{"ha":1054,"x_min":97,"x_max":985,"o":"m 560 -14 q 322 44 426 -14 q 157 203 217 103 q 97 433 97 304 q 135 631 97 540 q 240 788 174 721 q 396 893 307 856 q 585 931 485 931 q 709 922 658 931 q 801 899 760 914 q 881 864 842 883 l 888 640 l 863 640 l 788 796 q 683 855 729 838 q 579 872 638 872 q 382 822 467 872 q 249 687 297 772 q 201 497 201 601 q 254 260 201 358 q 395 108 307 161 q 589 56 483 56 q 683 62 638 56 q 776 88 728 68 l 776 331 l 654 375 l 654 403 l 985 403 l 985 375 l 885 331 l 885 97 q 735 16 825 46 q 560 -14 644 -14 m 600 986 q 492 1014 528 986 q 456 1093 456 1042 q 498 1173 456 1144 q 606 1201 540 1201 q 628 1201 615 1201 q 650 1197 642 1200 l 650 1178 q 630 1182 640 1181 q 613 1183 619 1183 q 524 1122 524 1183 q 553 1071 524 1085 q 651 1057 582 1057 l 651 1013 q 641 994 651 1001 q 600 986 631 986 z "},"Ǧ":{"ha":1054,"x_min":97,"x_max":985,"o":"m 560 -14 q 322 44 426 -14 q 157 203 217 103 q 97 433 97 304 q 135 631 97 540 q 240 788 174 721 q 396 893 307 856 q 585 931 485 931 q 709 922 658 931 q 801 899 760 914 q 881 864 842 883 l 888 640 l 863 640 l 788 796 q 683 855 729 838 q 579 872 638 872 q 382 822 467 872 q 249 687 297 772 q 201 497 201 601 q 254 260 201 358 q 395 108 307 161 q 589 56 483 56 q 683 62 638 56 q 776 88 728 68 l 776 331 l 654 375 l 654 403 l 985 403 l 985 375 l 885 331 l 885 97 q 735 16 825 46 q 560 -14 644 -14 m 546 986 l 367 1197 l 383 1197 l 564 1078 l 744 1197 l 761 1197 l 582 986 l 546 986 z "},"Ḡ":{"ha":1054,"x_min":97,"x_max":985,"o":"m 560 -14 q 322 44 426 -14 q 157 203 217 103 q 97 433 97 304 q 135 631 97 540 q 240 788 174 721 q 396 893 307 856 q 585 931 485 931 q 709 922 658 931 q 801 899 760 914 q 881 864 842 883 l 888 640 l 863 640 l 788 796 q 683 855 729 838 q 579 872 638 872 q 382 822 467 872 q 249 687 297 772 q 201 497 201 601 q 254 260 201 358 q 395 108 307 161 q 589 56 483 56 q 683 62 638 56 q 776 88 728 68 l 776 331 l 654 375 l 654 403 l 985 403 l 985 375 l 885 331 l 885 97 q 735 16 825 46 q 560 -14 644 -14 m 382 1064 l 382 1125 l 746 1125 l 746 1064 l 382 1064 z "},"Ĥ":{"ha":1110,"x_min":90,"x_max":1019,"o":"m 90 0 l 90 28 l 200 69 l 200 847 l 90 889 l 90 917 l 422 917 l 422 889 l 308 847 l 308 506 l 801 506 l 801 847 l 688 889 l 688 917 l 1019 917 l 1019 889 l 910 847 l 910 69 l 1019 28 l 1019 0 l 688 0 l 688 28 l 801 69 l 801 440 l 308 440 l 308 69 l 422 28 l 422 0 l 90 0 m 358 986 l 538 1197 l 574 1197 l 753 986 l 736 986 l 556 1106 l 375 986 l 358 986 z "},"Ħ":{"ha":1110,"x_min":90,"x_max":1019,"o":"m 90 0 l 90 28 l 200 69 l 200 657 l 90 657 l 90 718 l 200 718 l 200 847 l 90 889 l 90 917 l 422 917 l 422 889 l 308 847 l 308 718 l 801 718 l 801 847 l 688 889 l 688 917 l 1019 917 l 1019 889 l 910 847 l 910 718 l 1019 718 l 1019 657 l 910 657 l 910 69 l 1019 28 l 1019 0 l 688 0 l 688 28 l 801 69 l 801 440 l 308 440 l 308 69 l 422 28 l 422 0 l 90 0 m 308 506 l 801 506 l 801 657 l 308 657 l 308 506 z "},"Ḥ":{"ha":1110,"x_min":90,"x_max":1019,"o":"m 90 0 l 90 28 l 200 69 l 200 847 l 90 889 l 90 917 l 422 917 l 422 889 l 308 847 l 308 506 l 801 506 l 801 847 l 688 889 l 688 917 l 1019 917 l 1019 889 l 910 847 l 910 69 l 1019 28 l 1019 0 l 688 0 l 688 28 l 801 69 l 801 440 l 308 440 l 308 69 l 422 28 l 422 0 l 90 0 z "},"Ḫ":{"ha":1110,"x_min":90,"x_max":1019,"o":"m 90 0 l 90 28 l 200 69 l 200 847 l 90 889 l 90 917 l 422 917 l 422 889 l 308 847 l 308 506 l 801 506 l 801 847 l 688 889 l 688 917 l 1019 917 l 1019 889 l 910 847 l 910 69 l 1019 28 l 1019 0 l 688 0 l 688 28 l 801 69 l 801 440 l 308 440 l 308 69 l 422 28 l 422 0 l 90 0 z "},"Ì":{"ha":522,"x_min":51,"x_max":425,"o":"m 97 0 l 97 28 l 207 69 l 207 847 l 97 889 l 97 917 l 425 917 l 425 889 l 315 847 l 315 69 l 425 28 l 425 0 l 97 0 m 253 986 l 97 1110 q 60 1155 68 1133 q 51 1197 51 1176 l 146 1197 l 269 986 l 253 986 z "},"Í":{"ha":522,"x_min":97,"x_max":472,"o":"m 97 0 l 97 28 l 207 69 l 207 847 l 97 889 l 97 917 l 425 917 l 425 889 l 315 847 l 315 69 l 425 28 l 425 0 l 97 0 m 254 986 l 379 1197 l 472 1197 q 464 1155 472 1176 q 426 1110 456 1133 l 271 986 l 254 986 z "},"Î":{"ha":522,"x_min":64,"x_max":458,"o":"m 97 0 l 97 28 l 207 69 l 207 847 l 97 889 l 97 917 l 425 917 l 425 889 l 315 847 l 315 69 l 425 28 l 425 0 l 97 0 m 64 986 l 243 1197 l 279 1197 l 458 986 l 442 986 l 261 1106 l 81 986 l 64 986 z "},"Ĩ":{"ha":522,"x_min":57,"x_max":465,"o":"m 97 0 l 97 28 l 207 69 l 207 847 l 97 889 l 97 917 l 425 917 l 425 889 l 315 847 l 315 69 l 425 28 l 425 0 l 97 0 m 57 1011 q 97 1112 78 1078 q 137 1158 117 1146 q 182 1169 157 1169 q 247 1148 217 1169 q 304 1105 276 1126 q 361 1083 332 1083 q 408 1102 388 1083 q 447 1169 428 1121 l 465 1169 q 425 1067 444 1101 q 385 1022 406 1033 q 340 1011 365 1011 q 276 1032 306 1011 q 218 1074 246 1053 q 161 1096 190 1096 q 115 1078 135 1096 q 75 1011 94 1060 l 57 1011 z "},"Ï":{"ha":522,"x_min":68,"x_max":454,"o":"m 97 0 l 97 28 l 207 69 l 207 847 l 97 889 l 97 917 l 425 917 l 425 889 l 315 847 l 315 69 l 425 28 l 425 0 l 97 0 m 132 1029 q 87 1047 106 1029 q 68 1092 68 1064 q 87 1138 68 1119 q 132 1156 106 1156 q 177 1138 158 1156 q 196 1092 196 1119 q 177 1047 196 1064 q 132 1029 158 1029 m 390 1029 q 345 1047 364 1029 q 326 1092 326 1064 q 345 1138 326 1119 q 390 1156 364 1156 q 435 1138 417 1156 q 454 1092 454 1119 q 435 1047 454 1064 q 390 1029 417 1029 z "},"Ī":{"ha":522,"x_min":79,"x_max":443,"o":"m 97 0 l 97 28 l 207 69 l 207 847 l 97 889 l 97 917 l 425 917 l 425 889 l 315 847 l 315 69 l 425 28 l 425 0 l 97 0 m 79 1064 l 79 1125 l 443 1125 l 443 1064 l 79 1064 z "},"Ĭ":{"ha":522,"x_min":64,"x_max":458,"o":"m 97 0 l 97 28 l 207 69 l 207 847 l 97 889 l 97 917 l 425 917 l 425 889 l 315 847 l 315 69 l 425 28 l 425 0 l 97 0 m 261 986 q 132 1041 175 986 q 64 1197 89 1096 l 81 1197 q 129 1114 104 1142 q 186 1076 154 1086 q 261 1065 218 1065 q 335 1076 304 1065 q 392 1114 367 1086 q 442 1197 417 1142 l 458 1197 q 390 1041 432 1096 q 261 986 347 986 z "},"İ":{"ha":522,"x_min":97,"x_max":425,"o":"m 97 0 l 97 28 l 207 69 l 207 847 l 97 889 l 97 917 l 425 917 l 425 889 l 315 847 l 315 69 l 425 28 l 425 0 l 97 0 m 261 1024 q 211 1044 232 1024 q 190 1094 190 1064 q 211 1144 190 1124 q 261 1165 232 1165 q 311 1144 290 1165 q 332 1094 332 1124 q 311 1044 332 1064 q 261 1024 290 1024 z "},"Į":{"ha":522,"x_min":97,"x_max":425,"o":"m 97 0 l 97 28 l 207 69 l 207 847 l 97 889 l 97 917 l 425 917 l 425 889 l 315 847 l 315 69 l 425 28 l 425 0 l 282 0 q 223 -101 242 -54 q 204 -192 204 -149 q 228 -261 204 -239 q 294 -283 251 -283 q 331 -278 313 -283 q 369 -261 350 -274 l 374 -261 l 374 -278 q 328 -318 357 -303 q 260 -333 299 -333 q 166 -302 203 -333 q 129 -215 129 -271 q 163 -109 129 -161 q 250 0 196 -57 l 97 0 z "},"Ị":{"ha":522,"x_min":97,"x_max":425,"o":"m 97 0 l 97 28 l 207 69 l 207 847 l 97 889 l 97 917 l 425 917 l 425 889 l 315 847 l 315 69 l 425 28 l 425 0 l 97 0 z "},"Ȉ":{"ha":522,"x_min":24,"x_max":425,"o":"m 97 0 l 97 28 l 207 69 l 207 847 l 97 889 l 97 917 l 425 917 l 425 889 l 315 847 l 315 69 l 425 28 l 425 0 l 97 0 m 172 986 l 47 1110 q 24 1154 25 1132 q 31 1197 24 1176 l 104 1197 l 190 986 l 172 986 m 331 986 l 214 1110 q 192 1155 193 1133 q 197 1197 190 1176 l 271 1197 l 347 986 l 331 986 z "},"Ȋ":{"ha":522,"x_min":64,"x_max":458,"o":"m 97 0 l 97 28 l 207 69 l 207 847 l 97 889 l 97 917 l 425 917 l 425 889 l 315 847 l 315 69 l 425 28 l 425 0 l 97 0 m 64 986 q 133 1142 90 1088 q 261 1197 175 1197 q 390 1142 347 1197 q 458 986 433 1088 l 442 986 q 393 1069 418 1042 q 336 1108 368 1097 q 261 1118 304 1118 q 187 1108 218 1118 q 131 1069 156 1097 q 81 986 106 1042 l 64 986 z "},"Ỉ":{"ha":522,"x_min":97,"x_max":425,"o":"m 97 0 l 97 28 l 207 69 l 207 847 l 97 889 l 97 917 l 425 917 l 425 889 l 315 847 l 315 69 l 425 28 l 425 0 l 97 0 m 196 985 l 196 986 q 274 1022 246 1003 q 301 1074 301 1040 q 276 1120 301 1101 q 186 1150 251 1139 l 199 1215 q 329 1172 293 1207 q 365 1101 365 1138 q 324 1018 365 1047 q 206 975 283 989 l 196 985 z "},"Ḯ":{"ha":522,"x_min":68,"x_max":471,"o":"m 97 0 l 97 28 l 207 69 l 207 847 l 97 889 l 97 917 l 425 917 l 425 889 l 315 847 l 315 69 l 425 28 l 425 0 l 97 0 z "},"Ĳ":{"ha":1047,"x_min":97,"x_max":950,"o":"m 97 0 l 97 28 l 207 69 l 207 847 l 97 889 l 97 917 l 425 917 l 425 889 l 315 847 l 315 69 l 425 28 l 425 0 l 97 0 m 586 -240 q 554 -232 568 -240 q 540 -201 540 -224 q 542 -186 540 -199 q 554 -131 544 -174 l 563 -131 q 600 -140 586 -136 q 633 -143 614 -143 q 685 -128 664 -143 q 719 -68 707 -114 q 731 71 731 -22 l 731 847 l 619 889 l 619 917 l 950 917 l 950 889 l 839 847 l 839 317 q 817 37 839 154 q 738 -143 794 -81 q 674 -206 697 -186 q 632 -233 651 -226 q 586 -240 613 -240 z "},"Ĵ":{"ha":525,"x_min":18,"x_max":460,"o":"m 64 -240 q 32 -232 46 -240 q 18 -201 18 -224 q 20 -186 18 -199 q 32 -131 22 -174 l 40 -131 q 78 -140 64 -136 q 111 -143 92 -143 q 163 -128 142 -143 q 197 -68 185 -114 q 208 71 208 -22 l 208 847 l 97 889 l 97 917 l 428 917 l 428 889 l 317 847 l 317 317 q 294 37 317 154 q 215 -143 272 -81 q 152 -206 175 -186 q 110 -233 129 -226 q 64 -240 90 -240 m 65 986 l 244 1197 l 281 1197 l 460 986 l 443 986 l 263 1106 l 82 986 l 65 986 z "},"Ķ":{"ha":989,"x_min":90,"x_max":957,"o":"m 90 0 l 90 28 l 201 69 l 201 847 l 90 889 l 90 917 l 421 917 l 421 889 l 310 847 l 310 472 l 703 851 l 600 889 l 600 917 l 885 917 l 885 889 l 800 863 l 418 500 l 868 56 l 957 28 l 957 0 l 775 0 l 310 467 l 310 69 l 421 28 l 421 0 l 90 0 m 468 -332 q 445 -331 458 -332 q 422 -328 432 -331 l 422 -308 q 443 -312 432 -311 q 461 -312 454 -312 q 550 -251 550 -312 q 520 -201 550 -215 q 421 -187 490 -187 l 421 -142 q 431 -124 421 -131 q 474 -117 442 -117 q 582 -144 546 -117 q 618 -222 618 -172 q 576 -303 618 -275 q 468 -332 533 -332 z "},"Ĺ":{"ha":865,"x_min":90,"x_max":768,"o":"m 90 0 l 90 28 l 200 69 l 200 847 l 90 889 l 90 917 l 433 917 l 433 889 l 308 847 l 308 65 l 661 65 l 744 303 l 768 303 l 768 0 l 90 0 m 247 986 l 372 1197 l 465 1197 q 457 1155 465 1176 q 419 1110 449 1133 l 264 986 l 247 986 z "},"Ľ":{"ha":865,"x_min":90,"x_max":768,"o":"m 90 0 l 90 28 l 200 69 l 200 847 l 90 889 l 90 917 l 433 917 l 433 889 l 308 847 l 308 65 l 661 65 l 744 303 l 768 303 l 768 0 l 90 0 m 574 657 l 608 917 l 696 917 q 698 876 700 897 q 681 826 696 856 l 590 657 l 574 657 z "},"Ļ":{"ha":865,"x_min":90,"x_max":768,"o":"m 90 0 l 90 28 l 200 69 l 200 847 l 90 889 l 90 917 l 433 917 l 433 889 l 308 847 l 308 65 l 661 65 l 744 303 l 768 303 l 768 0 l 90 0 m 424 -332 q 401 -331 414 -332 q 378 -328 388 -331 l 378 -308 q 399 -312 388 -311 q 417 -312 410 -312 q 506 -251 506 -312 q 476 -201 506 -215 q 376 -187 446 -187 l 376 -142 q 387 -124 376 -131 q 429 -117 397 -117 q 538 -144 501 -117 q 574 -222 574 -172 q 531 -303 574 -275 q 424 -332 489 -332 z "},"Ł":{"ha":865,"x_min":90,"x_max":768,"o":"m 90 0 l 90 28 l 200 69 l 200 365 l 92 290 l 92 364 l 200 438 l 200 847 l 90 889 l 90 917 l 433 917 l 433 889 l 308 847 l 308 499 l 515 639 l 515 565 l 308 425 l 308 65 l 661 65 l 744 303 l 768 303 l 768 0 l 90 0 z "},"Ŀ":{"ha":865,"x_min":90,"x_max":768,"o":"m 90 0 l 90 28 l 200 69 l 200 847 l 90 889 l 90 917 l 433 917 l 433 889 l 308 847 l 308 65 l 661 65 l 744 303 l 768 303 l 768 0 l 90 0 m 675 407 q 625 427 646 407 q 604 478 604 447 q 625 528 604 507 q 675 549 646 549 q 725 528 704 549 q 746 478 746 507 q 725 427 746 447 q 675 407 704 407 z "},"Ḷ":{"ha":865,"x_min":90,"x_max":768,"o":"m 90 0 l 90 28 l 200 69 l 200 847 l 90 889 l 90 917 l 433 917 l 433 889 l 308 847 l 308 65 l 661 65 l 744 303 l 768 303 l 768 0 l 90 0 z "},"Ḻ":{"ha":865,"x_min":90,"x_max":768,"o":"m 90 0 l 90 28 l 200 69 l 200 847 l 90 889 l 90 917 l 433 917 l 433 889 l 308 847 l 308 65 l 661 65 l 744 303 l 768 303 l 768 0 l 90 0 z "},"Ṃ":{"ha":1318,"x_min":83,"x_max":1235,"o":"m 83 0 l 83 28 l 193 69 l 222 844 l 103 889 l 103 917 l 343 917 l 669 156 l 1000 917 l 1231 917 l 1231 889 l 1114 846 l 1138 69 l 1235 28 l 1235 0 l 929 0 l 929 28 l 1032 68 l 1017 788 l 672 -7 l 624 -7 l 286 785 l 269 68 l 382 28 l 382 0 l 83 0 z "},"Ń":{"ha":1101,"x_min":86,"x_max":1015,"o":"m 86 0 l 86 28 l 196 69 l 196 846 l 88 889 l 88 917 l 282 917 l 826 210 l 826 849 l 696 889 l 696 917 l 1015 917 l 1015 889 l 906 847 l 906 -7 l 863 -7 l 276 750 l 276 71 l 410 28 l 410 0 l 86 0 m 551 986 l 676 1197 l 769 1197 q 761 1155 769 1176 q 724 1110 753 1133 l 568 986 l 551 986 z "},"Ň":{"ha":1101,"x_min":86,"x_max":1015,"o":"m 86 0 l 86 28 l 196 69 l 196 846 l 88 889 l 88 917 l 282 917 l 826 210 l 826 849 l 696 889 l 696 917 l 1015 917 l 1015 889 l 906 847 l 906 -7 l 863 -7 l 276 750 l 276 71 l 410 28 l 410 0 l 86 0 m 542 986 l 363 1197 l 379 1197 l 560 1078 l 740 1197 l 757 1197 l 578 986 l 542 986 z "},"Ñ":{"ha":1101,"x_min":86,"x_max":1015,"o":"m 86 0 l 86 28 l 196 69 l 196 846 l 88 889 l 88 917 l 282 917 l 826 210 l 826 849 l 696 889 l 696 917 l 1015 917 l 1015 889 l 906 847 l 906 -7 l 863 -7 l 276 750 l 276 71 l 410 28 l 410 0 l 86 0 m 356 1011 q 396 1112 376 1078 q 435 1158 415 1146 q 481 1169 456 1169 q 545 1148 515 1169 q 603 1105 575 1126 q 660 1083 631 1083 q 706 1102 686 1083 q 746 1169 726 1121 l 764 1169 q 724 1067 743 1101 q 684 1022 704 1033 q 639 1011 664 1011 q 574 1032 604 1011 q 517 1074 544 1053 q 460 1096 489 1096 q 413 1078 433 1096 q 374 1011 393 1060 l 356 1011 z "},"Ņ":{"ha":1101,"x_min":86,"x_max":1015,"o":"m 86 0 l 86 28 l 196 69 l 196 846 l 88 889 l 88 917 l 282 917 l 826 210 l 826 849 l 696 889 l 696 917 l 1015 917 l 1015 889 l 906 847 l 906 -7 l 863 -7 l 276 750 l 276 71 l 410 28 l 410 0 l 86 0 m 519 -332 q 497 -331 510 -332 q 474 -328 483 -331 l 474 -308 q 494 -312 483 -311 q 513 -312 506 -312 q 601 -251 601 -312 q 572 -201 601 -215 q 472 -187 542 -187 l 472 -142 q 483 -124 472 -131 q 525 -117 493 -117 q 633 -144 597 -117 q 669 -222 669 -172 q 627 -303 669 -275 q 519 -332 585 -332 z "},"Ṅ":{"ha":1101,"x_min":86,"x_max":1015,"o":"m 86 0 l 86 28 l 196 69 l 196 846 l 88 889 l 88 917 l 282 917 l 826 210 l 826 849 l 696 889 l 696 917 l 1015 917 l 1015 889 l 906 847 l 906 -7 l 863 -7 l 276 750 l 276 71 l 410 28 l 410 0 l 86 0 m 560 1024 q 510 1044 531 1024 q 489 1094 489 1064 q 510 1144 489 1124 q 560 1165 531 1165 q 610 1144 589 1165 q 631 1094 631 1124 q 610 1044 631 1064 q 560 1024 589 1024 z "},"Ṇ":{"ha":1101,"x_min":86,"x_max":1015,"o":"m 86 0 l 86 28 l 196 69 l 196 846 l 88 889 l 88 917 l 282 917 l 826 210 l 826 849 l 696 889 l 696 917 l 1015 917 l 1015 889 l 906 847 l 906 -7 l 863 -7 l 276 750 l 276 71 l 410 28 l 410 0 l 86 0 z "},"Ṉ":{"ha":1101,"x_min":86,"x_max":1015,"o":"m 86 0 l 86 28 l 196 69 l 196 846 l 88 889 l 88 917 l 282 917 l 826 210 l 826 849 l 696 889 l 696 917 l 1015 917 l 1015 889 l 906 847 l 906 -7 l 863 -7 l 276 750 l 276 71 l 410 28 l 410 0 l 86 0 z "},"Ò":{"ha":1099,"x_min":97,"x_max":1001,"o":"m 549 -14 q 369 22 451 -14 q 226 120 286 57 q 131 269 165 183 q 97 458 97 356 q 131 647 97 561 q 226 797 165 733 q 369 895 286 860 q 549 931 451 931 q 728 895 646 931 q 872 797 811 860 q 967 647 933 733 q 1001 458 1001 561 q 967 269 1001 356 q 872 120 933 183 q 728 22 811 57 q 549 -14 646 -14 m 578 44 q 739 90 669 44 q 847 219 808 136 q 886 415 886 303 q 838 657 886 554 q 707 817 789 760 q 525 874 625 874 q 363 828 433 874 q 252 700 292 783 q 213 504 213 617 q 261 262 213 365 q 392 101 310 158 q 578 44 475 44 m 531 986 l 375 1110 q 338 1155 346 1133 q 329 1197 329 1176 l 424 1197 l 547 986 l 531 986 z "},"Ó":{"ha":1099,"x_min":97,"x_max":1001,"o":"m 549 -14 q 369 22 451 -14 q 226 120 286 57 q 131 269 165 183 q 97 458 97 356 q 131 647 97 561 q 226 797 165 733 q 369 895 286 860 q 549 931 451 931 q 728 895 646 931 q 872 797 811 860 q 967 647 933 733 q 1001 458 1001 561 q 967 269 1001 356 q 872 120 933 183 q 728 22 811 57 q 549 -14 646 -14 m 578 44 q 739 90 669 44 q 847 219 808 136 q 886 415 886 303 q 838 657 886 554 q 707 817 789 760 q 525 874 625 874 q 363 828 433 874 q 252 700 292 783 q 213 504 213 617 q 261 262 213 365 q 392 101 310 158 q 578 44 475 44 m 532 986 l 657 1197 l 750 1197 q 742 1155 750 1176 q 704 1110 733 1133 l 549 986 l 532 986 z "},"Ô":{"ha":1099,"x_min":97,"x_max":1001,"o":"m 549 -14 q 369 22 451 -14 q 226 120 286 57 q 131 269 165 183 q 97 458 97 356 q 131 647 97 561 q 226 797 165 733 q 369 895 286 860 q 549 931 451 931 q 728 895 646 931 q 872 797 811 860 q 967 647 933 733 q 1001 458 1001 561 q 967 269 1001 356 q 872 120 933 183 q 728 22 811 57 q 549 -14 646 -14 m 578 44 q 739 90 669 44 q 847 219 808 136 q 886 415 886 303 q 838 657 886 554 q 707 817 789 760 q 525 874 625 874 q 363 828 433 874 q 252 700 292 783 q 213 504 213 617 q 261 262 213 365 q 392 101 310 158 q 578 44 475 44 m 342 986 l 521 1197 l 557 1197 l 736 986 l 719 986 l 539 1106 l 358 986 l 342 986 z "},"Õ":{"ha":1099,"x_min":97,"x_max":1001,"o":"m 549 -14 q 369 22 451 -14 q 226 120 286 57 q 131 269 165 183 q 97 458 97 356 q 131 647 97 561 q 226 797 165 733 q 369 895 286 860 q 549 931 451 931 q 728 895 646 931 q 872 797 811 860 q 967 647 933 733 q 1001 458 1001 561 q 967 269 1001 356 q 872 120 933 183 q 728 22 811 57 q 549 -14 646 -14 m 578 44 q 739 90 669 44 q 847 219 808 136 q 886 415 886 303 q 838 657 886 554 q 707 817 789 760 q 525 874 625 874 q 363 828 433 874 q 252 700 292 783 q 213 504 213 617 q 261 262 213 365 q 392 101 310 158 q 578 44 475 44 m 335 1011 q 375 1112 356 1078 q 415 1158 394 1146 q 460 1169 435 1169 q 524 1148 494 1169 q 582 1105 554 1126 q 639 1083 610 1083 q 685 1102 665 1083 q 725 1169 706 1121 l 743 1169 q 703 1067 722 1101 q 663 1022 683 1033 q 618 1011 643 1011 q 553 1032 583 1011 q 496 1074 524 1053 q 439 1096 468 1096 q 392 1078 413 1096 q 353 1011 372 1060 l 335 1011 z "},"Ö":{"ha":1099,"x_min":97,"x_max":1001,"o":"m 549 -14 q 369 22 451 -14 q 226 120 286 57 q 131 269 165 183 q 97 458 97 356 q 131 647 97 561 q 226 797 165 733 q 369 895 286 860 q 549 931 451 931 q 728 895 646 931 q 872 797 811 860 q 967 647 933 733 q 1001 458 1001 561 q 967 269 1001 356 q 872 120 933 183 q 728 22 811 57 q 549 -14 646 -14 m 578 44 q 739 90 669 44 q 847 219 808 136 q 886 415 886 303 q 838 657 886 554 q 707 817 789 760 q 525 874 625 874 q 363 828 433 874 q 252 700 292 783 q 213 504 213 617 q 261 262 213 365 q 392 101 310 158 q 578 44 475 44 m 410 1029 q 365 1047 383 1029 q 346 1092 346 1064 q 365 1138 346 1119 q 410 1156 383 1156 q 455 1138 436 1156 q 474 1092 474 1119 q 455 1047 474 1064 q 410 1029 436 1029 m 668 1029 q 623 1047 642 1029 q 604 1092 604 1064 q 623 1138 604 1119 q 668 1156 642 1156 q 713 1138 694 1156 q 732 1092 732 1119 q 713 1047 732 1064 q 668 1029 694 1029 z "},"Ō":{"ha":1099,"x_min":97,"x_max":1001,"o":"m 549 -14 q 369 22 451 -14 q 226 120 286 57 q 131 269 165 183 q 97 458 97 356 q 131 647 97 561 q 226 797 165 733 q 369 895 286 860 q 549 931 451 931 q 728 895 646 931 q 872 797 811 860 q 967 647 933 733 q 1001 458 1001 561 q 967 269 1001 356 q 872 120 933 183 q 728 22 811 57 q 549 -14 646 -14 m 578 44 q 739 90 669 44 q 847 219 808 136 q 886 415 886 303 q 838 657 886 554 q 707 817 789 760 q 525 874 625 874 q 363 828 433 874 q 252 700 292 783 q 213 504 213 617 q 261 262 213 365 q 392 101 310 158 q 578 44 475 44 m 357 1064 l 357 1125 l 721 1125 l 721 1064 l 357 1064 z "},"Ŏ":{"ha":1099,"x_min":97,"x_max":1001,"o":"m 549 -14 q 369 22 451 -14 q 226 120 286 57 q 131 269 165 183 q 97 458 97 356 q 131 647 97 561 q 226 797 165 733 q 369 895 286 860 q 549 931 451 931 q 728 895 646 931 q 872 797 811 860 q 967 647 933 733 q 1001 458 1001 561 q 967 269 1001 356 q 872 120 933 183 q 728 22 811 57 q 549 -14 646 -14 m 578 44 q 739 90 669 44 q 847 219 808 136 q 886 415 886 303 q 838 657 886 554 q 707 817 789 760 q 525 874 625 874 q 363 828 433 874 q 252 700 292 783 q 213 504 213 617 q 261 262 213 365 q 392 101 310 158 q 578 44 475 44 m 539 986 q 410 1041 453 986 q 342 1197 367 1096 l 358 1197 q 407 1114 382 1142 q 464 1076 432 1086 q 539 1065 496 1065 q 613 1076 582 1065 q 669 1114 644 1086 q 719 1197 694 1142 l 736 1197 q 667 1041 710 1096 q 539 986 625 986 z "},"Ő":{"ha":1099,"x_min":97,"x_max":1001,"o":"m 549 -14 q 369 22 451 -14 q 226 120 286 57 q 131 269 165 183 q 97 458 97 356 q 131 647 97 561 q 226 797 165 733 q 369 895 286 860 q 549 931 451 931 q 728 895 646 931 q 872 797 811 860 q 967 647 933 733 q 1001 458 1001 561 q 967 269 1001 356 q 872 120 933 183 q 728 22 811 57 q 549 -14 646 -14 m 578 44 q 739 90 669 44 q 847 219 808 136 q 886 415 886 303 q 838 657 886 554 q 707 817 789 760 q 525 874 625 874 q 363 828 433 874 q 252 700 292 783 q 213 504 213 617 q 261 262 213 365 q 392 101 310 158 q 578 44 475 44 m 453 986 l 522 1197 l 596 1197 q 601 1155 603 1176 q 579 1110 600 1133 l 469 986 l 453 986 m 610 986 l 688 1197 l 761 1197 q 767 1155 768 1176 q 744 1110 765 1133 l 626 986 l 610 986 z "},"Ọ":{"ha":1099,"x_min":97,"x_max":1001,"o":"m 549 -14 q 369 22 451 -14 q 226 120 286 57 q 131 269 165 183 q 97 458 97 356 q 131 647 97 561 q 226 797 165 733 q 369 895 286 860 q 549 931 451 931 q 728 895 646 931 q 872 797 811 860 q 967 647 933 733 q 1001 458 1001 561 q 967 269 1001 356 q 872 120 933 183 q 728 22 811 57 q 549 -14 646 -14 m 578 44 q 739 90 669 44 q 847 219 808 136 q 886 415 886 303 q 838 657 886 554 q 707 817 789 760 q 525 874 625 874 q 363 828 433 874 q 252 700 292 783 q 213 504 213 617 q 261 262 213 365 q 392 101 310 158 q 578 44 475 44 z "},"Ǫ":{"ha":1099,"x_min":97,"x_max":1001,"o":"m 549 -14 q 369 22 451 -14 q 226 120 286 57 q 131 269 165 183 q 97 458 97 356 q 131 647 97 561 q 226 797 165 733 q 369 895 286 860 q 549 931 451 931 q 728 895 646 931 q 872 797 811 860 q 967 647 933 733 q 1001 458 1001 561 q 948 226 1001 329 q 801 60 894 124 q 589 -12 708 -3 q 536 -106 553 -62 q 519 -192 519 -150 q 543 -261 519 -239 q 608 -283 567 -283 q 646 -278 628 -283 q 683 -261 664 -274 l 688 -261 l 688 -278 q 642 -318 671 -303 q 575 -333 614 -333 q 481 -302 518 -333 q 444 -215 444 -271 q 474 -115 444 -164 q 551 -14 504 -67 l 549 -14 m 578 44 q 739 90 669 44 q 847 219 808 136 q 886 415 886 303 q 838 657 886 554 q 707 817 789 760 q 525 874 625 874 q 363 828 433 874 q 252 700 292 783 q 213 504 213 617 q 261 262 213 365 q 392 101 310 158 q 578 44 475 44 z "},"Ȍ":{"ha":1099,"x_min":97,"x_max":1001,"o":"m 549 -14 q 369 22 451 -14 q 226 120 286 57 q 131 269 165 183 q 97 458 97 356 q 131 647 97 561 q 226 797 165 733 q 369 895 286 860 q 549 931 451 931 q 728 895 646 931 q 872 797 811 860 q 967 647 933 733 q 1001 458 1001 561 q 967 269 1001 356 q 872 120 933 183 q 728 22 811 57 q 549 -14 646 -14 m 578 44 q 739 90 669 44 q 847 219 808 136 q 886 415 886 303 q 838 657 886 554 q 707 817 789 760 q 525 874 625 874 q 363 828 433 874 q 252 700 292 783 q 213 504 213 617 q 261 262 213 365 q 392 101 310 158 q 578 44 475 44 m 450 986 l 325 1110 q 302 1154 303 1132 q 308 1197 301 1176 l 382 1197 l 468 986 l 450 986 m 608 986 l 492 1110 q 469 1155 471 1133 q 475 1197 468 1176 l 549 1197 l 625 986 l 608 986 z "},"Ȏ":{"ha":1099,"x_min":97,"x_max":1001,"o":"m 549 -14 q 369 22 451 -14 q 226 120 286 57 q 131 269 165 183 q 97 458 97 356 q 131 647 97 561 q 226 797 165 733 q 369 895 286 860 q 549 931 451 931 q 728 895 646 931 q 872 797 811 860 q 967 647 933 733 q 1001 458 1001 561 q 967 269 1001 356 q 872 120 933 183 q 728 22 811 57 q 549 -14 646 -14 m 578 44 q 739 90 669 44 q 847 219 808 136 q 886 415 886 303 q 838 657 886 554 q 707 817 789 760 q 525 874 625 874 q 363 828 433 874 q 252 700 292 783 q 213 504 213 617 q 261 262 213 365 q 392 101 310 158 q 578 44 475 44 m 342 986 q 410 1142 368 1088 q 539 1197 453 1197 q 668 1142 625 1197 q 736 986 711 1088 l 719 986 q 671 1069 696 1042 q 614 1108 646 1097 q 539 1118 582 1118 q 465 1108 496 1118 q 408 1069 433 1097 q 358 986 383 1042 l 342 986 z "},"Ȫ":{"ha":1099,"x_min":97,"x_max":1001,"o":"m 549 -14 q 369 22 451 -14 q 226 120 286 57 q 131 269 165 183 q 97 458 97 356 q 131 647 97 561 q 226 797 165 733 q 369 895 286 860 q 549 931 451 931 q 728 895 646 931 q 872 797 811 860 q 967 647 933 733 q 1001 458 1001 561 q 967 269 1001 356 q 872 120 933 183 q 728 22 811 57 q 549 -14 646 -14 m 578 44 q 739 90 669 44 q 847 219 808 136 q 886 415 886 303 q 838 657 886 554 q 707 817 789 760 q 525 874 625 874 q 363 828 433 874 q 252 700 292 783 q 213 504 213 617 q 261 262 213 365 q 392 101 310 158 q 578 44 475 44 z "},"Ȭ":{"ha":1099,"x_min":97,"x_max":1001,"o":"m 549 -14 q 369 22 451 -14 q 226 120 286 57 q 131 269 165 183 q 97 458 97 356 q 131 647 97 561 q 226 797 165 733 q 369 895 286 860 q 549 931 451 931 q 728 895 646 931 q 872 797 811 860 q 967 647 933 733 q 1001 458 1001 561 q 967 269 1001 356 q 872 120 933 183 q 728 22 811 57 q 549 -14 646 -14 m 578 44 q 739 90 669 44 q 847 219 808 136 q 886 415 886 303 q 838 657 886 554 q 707 817 789 760 q 525 874 625 874 q 363 828 433 874 q 252 700 292 783 q 213 504 213 617 q 261 262 213 365 q 392 101 310 158 q 578 44 475 44 z "},"Ȱ":{"ha":1099,"x_min":97,"x_max":1001,"o":"m 549 -14 q 369 22 451 -14 q 226 120 286 57 q 131 269 165 183 q 97 458 97 356 q 131 647 97 561 q 226 797 165 733 q 369 895 286 860 q 549 931 451 931 q 728 895 646 931 q 872 797 811 860 q 967 647 933 733 q 1001 458 1001 561 q 967 269 1001 356 q 872 120 933 183 q 728 22 811 57 q 549 -14 646 -14 m 578 44 q 739 90 669 44 q 847 219 808 136 q 886 415 886 303 q 838 657 886 554 q 707 817 789 760 q 525 874 625 874 q 363 828 433 874 q 252 700 292 783 q 213 504 213 617 q 261 262 213 365 q 392 101 310 158 q 578 44 475 44 z "},"Ố":{"ha":1099,"x_min":97,"x_max":1001,"o":"m 549 -14 q 369 22 451 -14 q 226 120 286 57 q 131 269 165 183 q 97 458 97 356 q 131 647 97 561 q 226 797 165 733 q 369 895 286 860 q 549 931 451 931 q 728 895 646 931 q 872 797 811 860 q 967 647 933 733 q 1001 458 1001 561 q 967 269 1001 356 q 872 120 933 183 q 728 22 811 57 q 549 -14 646 -14 m 578 44 q 739 90 669 44 q 847 219 808 136 q 886 415 886 303 q 838 657 886 554 q 707 817 789 760 q 525 874 625 874 q 363 828 433 874 q 252 700 292 783 q 213 504 213 617 q 261 262 213 365 q 392 101 310 158 q 578 44 475 44 m 692 1118 l 757 1317 l 847 1317 q 839 1284 847 1299 q 811 1246 831 1269 l 703 1118 l 692 1118 m 342 986 l 521 1197 l 557 1197 l 736 986 l 719 986 l 539 1106 l 358 986 l 342 986 z "},"Ộ":{"ha":1099,"x_min":97,"x_max":1001,"o":"m 549 -14 q 369 22 451 -14 q 226 120 286 57 q 131 269 165 183 q 97 458 97 356 q 131 647 97 561 q 226 797 165 733 q 369 895 286 860 q 549 931 451 931 q 728 895 646 931 q 872 797 811 860 q 967 647 933 733 q 1001 458 1001 561 q 967 269 1001 356 q 872 120 933 183 q 728 22 811 57 q 549 -14 646 -14 m 578 44 q 739 90 669 44 q 847 219 808 136 q 886 415 886 303 q 838 657 886 554 q 707 817 789 760 q 525 874 625 874 q 363 828 433 874 q 252 700 292 783 q 213 504 213 617 q 261 262 213 365 q 392 101 310 158 q 578 44 475 44 m 342 986 l 521 1197 l 557 1197 l 736 986 l 719 986 l 539 1106 l 358 986 l 342 986 z "},"Ồ":{"ha":1099,"x_min":97,"x_max":1001,"o":"m 549 -14 q 369 22 451 -14 q 226 120 286 57 q 131 269 165 183 q 97 458 97 356 q 131 647 97 561 q 226 797 165 733 q 369 895 286 860 q 549 931 451 931 q 728 895 646 931 q 872 797 811 860 q 967 647 933 733 q 1001 458 1001 561 q 967 269 1001 356 q 872 120 933 183 q 728 22 811 57 q 549 -14 646 -14 m 578 44 q 739 90 669 44 q 847 219 808 136 q 886 415 886 303 q 838 657 886 554 q 707 817 789 760 q 525 874 625 874 q 363 828 433 874 q 252 700 292 783 q 213 504 213 617 q 261 262 213 365 q 392 101 310 158 q 578 44 475 44 m 375 1118 l 267 1246 q 239 1284 247 1269 q 231 1317 231 1299 l 321 1317 l 386 1118 l 375 1118 m 342 986 l 521 1197 l 557 1197 l 736 986 l 719 986 l 539 1106 l 358 986 l 342 986 z "},"Ổ":{"ha":1099,"x_min":97,"x_max":1001,"o":"m 549 -14 q 369 22 451 -14 q 226 120 286 57 q 131 269 165 183 q 97 458 97 356 q 131 647 97 561 q 226 797 165 733 q 369 895 286 860 q 549 931 451 931 q 728 895 646 931 q 872 797 811 860 q 967 647 933 733 q 1001 458 1001 561 q 967 269 1001 356 q 872 120 933 183 q 728 22 811 57 q 549 -14 646 -14 m 578 44 q 739 90 669 44 q 847 219 808 136 q 886 415 886 303 q 838 657 886 554 q 707 817 789 760 q 525 874 625 874 q 363 828 433 874 q 252 700 292 783 q 213 504 213 617 q 261 262 213 365 q 392 101 310 158 q 578 44 475 44 z "},"Ỗ":{"ha":1099,"x_min":97,"x_max":1001,"o":"m 549 -14 q 369 22 451 -14 q 226 120 286 57 q 131 269 165 183 q 97 458 97 356 q 131 647 97 561 q 226 797 165 733 q 369 895 286 860 q 549 931 451 931 q 728 895 646 931 q 872 797 811 860 q 967 647 933 733 q 1001 458 1001 561 q 967 269 1001 356 q 872 120 933 183 q 728 22 811 57 q 549 -14 646 -14 m 578 44 q 739 90 669 44 q 847 219 808 136 q 886 415 886 303 q 838 657 886 554 q 707 817 789 760 q 525 874 625 874 q 363 828 433 874 q 252 700 292 783 q 213 504 213 617 q 261 262 213 365 q 392 101 310 158 q 578 44 475 44 z "},"Ỏ":{"ha":1099,"x_min":97,"x_max":1001,"o":"m 549 -14 q 369 22 451 -14 q 226 120 286 57 q 131 269 165 183 q 97 458 97 356 q 131 647 97 561 q 226 797 165 733 q 369 895 286 860 q 549 931 451 931 q 728 895 646 931 q 872 797 811 860 q 967 647 933 733 q 1001 458 1001 561 q 967 269 1001 356 q 872 120 933 183 q 728 22 811 57 q 549 -14 646 -14 m 578 44 q 739 90 669 44 q 847 219 808 136 q 886 415 886 303 q 838 657 886 554 q 707 817 789 760 q 525 874 625 874 q 363 828 433 874 q 252 700 292 783 q 213 504 213 617 q 261 262 213 365 q 392 101 310 158 q 578 44 475 44 m 475 985 l 475 986 q 553 1022 525 1003 q 581 1074 581 1040 q 556 1120 581 1101 q 465 1150 531 1139 l 478 1215 q 608 1172 572 1207 q 644 1101 644 1138 q 603 1018 644 1047 q 485 975 563 989 l 475 985 z "},"Ṍ":{"ha":1099,"x_min":97,"x_max":1001,"o":"m 549 -14 q 369 22 451 -14 q 226 120 286 57 q 131 269 165 183 q 97 458 97 356 q 131 647 97 561 q 226 797 165 733 q 369 895 286 860 q 549 931 451 931 q 728 895 646 931 q 872 797 811 860 q 967 647 933 733 q 1001 458 1001 561 q 967 269 1001 356 q 872 120 933 183 q 728 22 811 57 q 549 -14 646 -14 m 578 44 q 739 90 669 44 q 847 219 808 136 q 886 415 886 303 q 838 657 886 554 q 707 817 789 760 q 525 874 625 874 q 363 828 433 874 q 252 700 292 783 q 213 504 213 617 q 261 262 213 365 q 392 101 310 158 q 578 44 475 44 z "},"Ṏ":{"ha":1099,"x_min":97,"x_max":1001,"o":"m 549 -14 q 369 22 451 -14 q 226 120 286 57 q 131 269 165 183 q 97 458 97 356 q 131 647 97 561 q 226 797 165 733 q 369 895 286 860 q 549 931 451 931 q 728 895 646 931 q 872 797 811 860 q 967 647 933 733 q 1001 458 1001 561 q 967 269 1001 356 q 872 120 933 183 q 728 22 811 57 q 549 -14 646 -14 m 578 44 q 739 90 669 44 q 847 219 808 136 q 886 415 886 303 q 838 657 886 554 q 707 817 789 760 q 525 874 625 874 q 363 828 433 874 q 252 700 292 783 q 213 504 213 617 q 261 262 213 365 q 392 101 310 158 q 578 44 475 44 z "},"Ṑ":{"ha":1099,"x_min":97,"x_max":1001,"o":"m 549 -14 q 369 22 451 -14 q 226 120 286 57 q 131 269 165 183 q 97 458 97 356 q 131 647 97 561 q 226 797 165 733 q 369 895 286 860 q 549 931 451 931 q 728 895 646 931 q 872 797 811 860 q 967 647 933 733 q 1001 458 1001 561 q 967 269 1001 356 q 872 120 933 183 q 728 22 811 57 q 549 -14 646 -14 m 578 44 q 739 90 669 44 q 847 219 808 136 q 886 415 886 303 q 838 657 886 554 q 707 817 789 760 q 525 874 625 874 q 363 828 433 874 q 252 700 292 783 q 213 504 213 617 q 261 262 213 365 q 392 101 310 158 q 578 44 475 44 z "},"Ṓ":{"ha":1099,"x_min":97,"x_max":1001,"o":"m 549 -14 q 369 22 451 -14 q 226 120 286 57 q 131 269 165 183 q 97 458 97 356 q 131 647 97 561 q 226 797 165 733 q 369 895 286 860 q 549 931 451 931 q 728 895 646 931 q 872 797 811 860 q 967 647 933 733 q 1001 458 1001 561 q 967 269 1001 356 q 872 120 933 183 q 728 22 811 57 q 549 -14 646 -14 m 578 44 q 739 90 669 44 q 847 219 808 136 q 886 415 886 303 q 838 657 886 554 q 707 817 789 760 q 525 874 625 874 q 363 828 433 874 q 252 700 292 783 q 213 504 213 617 q 261 262 213 365 q 392 101 310 158 q 578 44 475 44 z "},"Ø":{"ha":1099,"x_min":97,"x_max":1001,"o":"m 97 -14 l 219 126 q 129 274 161 189 q 97 458 97 358 q 131 647 97 561 q 226 797 165 733 q 369 895 286 860 q 549 931 451 931 q 703 905 631 931 q 832 833 775 879 l 915 931 l 1001 931 l 879 789 q 969 642 936 726 q 1001 458 1001 557 q 967 269 1001 356 q 872 120 933 183 q 728 22 811 57 q 549 -14 646 -14 q 395 11 467 -14 q 267 82 324 36 l 183 -14 l 97 -14 m 213 504 q 233 341 213 415 q 290 210 254 267 l 769 763 q 658 844 721 815 q 525 874 596 874 q 363 828 433 874 q 252 700 292 783 q 213 504 213 617 m 578 44 q 739 90 669 44 q 847 219 808 136 q 886 415 886 303 q 866 577 886 503 q 810 708 846 651 l 331 156 q 442 74 379 103 q 578 44 506 44 z "},"Ǿ":{"ha":1099,"x_min":97,"x_max":1001,"o":"m 97 -14 l 219 126 q 129 274 161 189 q 97 458 97 358 q 131 647 97 561 q 226 797 165 733 q 369 895 286 860 q 549 931 451 931 q 703 905 631 931 q 832 833 775 879 l 915 931 l 1001 931 l 879 789 q 969 642 936 726 q 1001 458 1001 557 q 967 269 1001 356 q 872 120 933 183 q 728 22 811 57 q 549 -14 646 -14 q 395 11 467 -14 q 267 82 324 36 l 183 -14 l 97 -14 m 213 504 q 233 341 213 415 q 290 210 254 267 l 769 763 q 658 844 721 815 q 525 874 596 874 q 363 828 433 874 q 252 700 292 783 q 213 504 213 617 m 578 44 q 739 90 669 44 q 847 219 808 136 q 886 415 886 303 q 866 577 886 503 q 810 708 846 651 l 331 156 q 442 74 379 103 q 578 44 506 44 m 532 986 l 657 1197 l 750 1197 q 742 1155 750 1176 q 704 1110 733 1133 l 549 986 l 532 986 z "},"Ơ":{"ha":1099,"x_min":97,"x_max":1001,"o":"m 549 -14 q 369 22 451 -14 q 226 120 286 57 q 131 269 165 183 q 97 458 97 356 q 131 647 97 561 q 226 797 165 733 q 369 895 286 860 q 549 931 451 931 q 664 917 608 931 l 664 917 l 664 917 q 732 894 699 908 q 772 890 751 890 q 833 911 817 890 q 849 969 849 932 l 849 1039 l 856 1046 l 894 1046 q 924 1038 917 1046 q 932 1003 932 1031 q 892 899 932 939 q 796 860 853 860 q 946 694 890 799 q 1001 458 1001 590 q 967 269 1001 356 q 872 120 933 183 q 728 22 811 57 q 549 -14 646 -14 m 578 44 q 739 90 669 44 q 847 219 808 136 q 886 415 886 303 q 838 657 886 554 q 707 817 789 760 q 525 874 625 874 q 363 828 433 874 q 252 700 292 783 q 213 504 213 617 q 261 262 213 365 q 392 101 310 158 q 578 44 475 44 z "},"Ớ":{"ha":1099,"x_min":97,"x_max":1001,"o":"m 549 -14 q 369 22 451 -14 q 226 120 286 57 q 131 269 165 183 q 97 458 97 356 q 131 647 97 561 q 226 797 165 733 q 369 895 286 860 q 549 931 451 931 q 664 917 608 931 l 664 917 l 664 917 q 732 894 699 908 q 772 890 751 890 q 833 911 817 890 q 849 969 849 932 l 849 1039 l 856 1046 l 894 1046 q 924 1038 917 1046 q 932 1003 932 1031 q 892 899 932 939 q 796 860 853 860 q 946 694 890 799 q 1001 458 1001 590 q 967 269 1001 356 q 872 120 933 183 q 728 22 811 57 q 549 -14 646 -14 m 578 44 q 739 90 669 44 q 847 219 808 136 q 886 415 886 303 q 838 657 886 554 q 707 817 789 760 q 525 874 625 874 q 363 828 433 874 q 252 700 292 783 q 213 504 213 617 q 261 262 213 365 q 392 101 310 158 q 578 44 475 44 m 532 986 l 657 1197 l 750 1197 q 742 1155 750 1176 q 704 1110 733 1133 l 549 986 l 532 986 z "},"Ợ":{"ha":1099,"x_min":97,"x_max":1001,"o":"m 549 -14 q 369 22 451 -14 q 226 120 286 57 q 131 269 165 183 q 97 458 97 356 q 131 647 97 561 q 226 797 165 733 q 369 895 286 860 q 549 931 451 931 q 664 917 608 931 l 664 917 l 664 917 q 732 894 699 908 q 772 890 751 890 q 833 911 817 890 q 849 969 849 932 l 849 1039 l 856 1046 l 894 1046 q 924 1038 917 1046 q 932 1003 932 1031 q 892 899 932 939 q 796 860 853 860 q 946 694 890 799 q 1001 458 1001 590 q 967 269 1001 356 q 872 120 933 183 q 728 22 811 57 q 549 -14 646 -14 m 578 44 q 739 90 669 44 q 847 219 808 136 q 886 415 886 303 q 838 657 886 554 q 707 817 789 760 q 525 874 625 874 q 363 828 433 874 q 252 700 292 783 q 213 504 213 617 q 261 262 213 365 q 392 101 310 158 q 578 44 475 44 z "},"Ờ":{"ha":1099,"x_min":97,"x_max":1001,"o":"m 549 -14 q 369 22 451 -14 q 226 120 286 57 q 131 269 165 183 q 97 458 97 356 q 131 647 97 561 q 226 797 165 733 q 369 895 286 860 q 549 931 451 931 q 664 917 608 931 l 664 917 l 664 917 q 732 894 699 908 q 772 890 751 890 q 833 911 817 890 q 849 969 849 932 l 849 1039 l 856 1046 l 894 1046 q 924 1038 917 1046 q 932 1003 932 1031 q 892 899 932 939 q 796 860 853 860 q 946 694 890 799 q 1001 458 1001 590 q 967 269 1001 356 q 872 120 933 183 q 728 22 811 57 q 549 -14 646 -14 m 578 44 q 739 90 669 44 q 847 219 808 136 q 886 415 886 303 q 838 657 886 554 q 707 817 789 760 q 525 874 625 874 q 363 828 433 874 q 252 700 292 783 q 213 504 213 617 q 261 262 213 365 q 392 101 310 158 q 578 44 475 44 m 531 986 l 375 1110 q 338 1155 346 1133 q 329 1197 329 1176 l 424 1197 l 547 986 l 531 986 z "},"Ở":{"ha":1099,"x_min":97,"x_max":1001,"o":"m 549 -14 q 369 22 451 -14 q 226 120 286 57 q 131 269 165 183 q 97 458 97 356 q 131 647 97 561 q 226 797 165 733 q 369 895 286 860 q 549 931 451 931 q 664 917 608 931 l 664 917 l 664 917 q 732 894 699 908 q 772 890 751 890 q 833 911 817 890 q 849 969 849 932 l 849 1039 l 856 1046 l 894 1046 q 924 1038 917 1046 q 932 1003 932 1031 q 892 899 932 939 q 796 860 853 860 q 946 694 890 799 q 1001 458 1001 590 q 967 269 1001 356 q 872 120 933 183 q 728 22 811 57 q 549 -14 646 -14 m 578 44 q 739 90 669 44 q 847 219 808 136 q 886 415 886 303 q 838 657 886 554 q 707 817 789 760 q 525 874 625 874 q 363 828 433 874 q 252 700 292 783 q 213 504 213 617 q 261 262 213 365 q 392 101 310 158 q 578 44 475 44 m 475 985 l 475 986 q 553 1022 525 1003 q 581 1074 581 1040 q 556 1120 581 1101 q 465 1150 531 1139 l 478 1215 q 608 1172 572 1207 q 644 1101 644 1138 q 603 1018 644 1047 q 485 975 563 989 l 475 985 z "},"Ỡ":{"ha":1099,"x_min":97,"x_max":1001,"o":"m 549 -14 q 369 22 451 -14 q 226 120 286 57 q 131 269 165 183 q 97 458 97 356 q 131 647 97 561 q 226 797 165 733 q 369 895 286 860 q 549 931 451 931 q 664 917 608 931 l 664 917 l 664 917 q 732 894 699 908 q 772 890 751 890 q 833 911 817 890 q 849 969 849 932 l 849 1039 l 856 1046 l 894 1046 q 924 1038 917 1046 q 932 1003 932 1031 q 892 899 932 939 q 796 860 853 860 q 946 694 890 799 q 1001 458 1001 590 q 967 269 1001 356 q 872 120 933 183 q 728 22 811 57 q 549 -14 646 -14 m 578 44 q 739 90 669 44 q 847 219 808 136 q 886 415 886 303 q 838 657 886 554 q 707 817 789 760 q 525 874 625 874 q 363 828 433 874 q 252 700 292 783 q 213 504 213 617 q 261 262 213 365 q 392 101 310 158 q 578 44 475 44 m 335 1011 q 375 1112 356 1078 q 415 1158 394 1146 q 460 1169 435 1169 q 524 1148 494 1169 q 582 1105 554 1126 q 639 1083 610 1083 q 685 1102 665 1083 q 725 1169 706 1121 l 743 1169 q 703 1067 722 1101 q 663 1022 683 1033 q 618 1011 643 1011 q 553 1032 583 1011 q 496 1074 524 1053 q 439 1096 468 1096 q 392 1078 413 1096 q 353 1011 372 1060 l 335 1011 z "},"Œ":{"ha":1376,"x_min":97,"x_max":1279,"o":"m 579 0 q 319 56 428 0 q 154 211 211 111 q 97 446 97 311 q 160 692 97 586 q 333 858 222 799 q 589 917 443 917 l 1240 917 l 1240 683 l 1215 683 l 1140 851 l 803 851 l 803 506 l 1044 506 l 1100 621 l 1125 621 l 1125 328 l 1100 328 l 1044 440 l 803 440 l 803 65 l 1179 65 l 1254 247 l 1279 247 l 1279 0 l 579 0 m 596 65 l 694 65 l 694 851 l 579 851 q 384 803 467 851 q 257 667 301 756 q 213 458 213 578 q 312 169 213 272 q 596 65 411 65 z "},"Ŕ":{"ha":885,"x_min":90,"x_max":892,"o":"m 90 0 l 90 28 l 201 69 l 201 847 l 90 889 l 90 917 l 414 917 q 644 856 560 917 q 728 690 728 796 q 674 549 728 610 q 535 460 621 489 l 800 64 l 892 28 l 892 0 l 708 0 l 436 426 l 310 426 l 310 71 l 414 28 l 414 0 l 90 0 m 400 851 l 310 851 l 310 492 l 408 492 q 553 543 496 492 q 611 672 611 594 q 554 803 611 756 q 400 851 497 851 m 421 986 l 546 1197 l 639 1197 q 631 1155 639 1176 q 593 1110 622 1133 l 438 986 l 421 986 z "},"Ř":{"ha":885,"x_min":90,"x_max":892,"o":"m 90 0 l 90 28 l 201 69 l 201 847 l 90 889 l 90 917 l 414 917 q 644 856 560 917 q 728 690 728 796 q 674 549 728 610 q 535 460 621 489 l 800 64 l 892 28 l 892 0 l 708 0 l 436 426 l 310 426 l 310 71 l 414 28 l 414 0 l 90 0 m 400 851 l 310 851 l 310 492 l 408 492 q 553 543 496 492 q 611 672 611 594 q 554 803 611 756 q 400 851 497 851 m 411 986 l 232 1197 l 249 1197 l 429 1078 l 610 1197 l 626 1197 l 447 986 l 411 986 z "},"Ŗ":{"ha":885,"x_min":90,"x_max":892,"o":"m 90 0 l 90 28 l 201 69 l 201 847 l 90 889 l 90 917 l 414 917 q 644 856 560 917 q 728 690 728 796 q 674 549 728 610 q 535 460 621 489 l 800 64 l 892 28 l 892 0 l 708 0 l 436 426 l 310 426 l 310 71 l 414 28 l 414 0 l 90 0 m 400 851 l 310 851 l 310 492 l 408 492 q 553 543 496 492 q 611 672 611 594 q 554 803 611 756 q 400 851 497 851 m 451 -332 q 428 -331 442 -332 q 406 -328 415 -331 l 406 -308 q 426 -312 415 -311 q 444 -312 438 -312 q 533 -251 533 -312 q 503 -201 533 -215 q 404 -187 474 -187 l 404 -142 q 415 -124 404 -131 q 457 -117 425 -117 q 565 -144 529 -117 q 601 -222 601 -172 q 559 -303 601 -275 q 451 -332 517 -332 z "},"Ȑ":{"ha":885,"x_min":90,"x_max":892,"o":"m 90 0 l 90 28 l 201 69 l 201 847 l 90 889 l 90 917 l 414 917 q 644 856 560 917 q 728 690 728 796 q 674 549 728 610 q 535 460 621 489 l 800 64 l 892 28 l 892 0 l 708 0 l 436 426 l 310 426 l 310 71 l 414 28 l 414 0 l 90 0 m 400 851 l 310 851 l 310 492 l 408 492 q 553 543 496 492 q 611 672 611 594 q 554 803 611 756 q 400 851 497 851 m 340 986 l 215 1110 q 192 1154 193 1132 q 199 1197 192 1176 l 272 1197 l 358 986 l 340 986 m 499 986 l 382 1110 q 360 1155 361 1133 q 365 1197 358 1176 l 439 1197 l 515 986 l 499 986 z "},"Ȓ":{"ha":885,"x_min":90,"x_max":892,"o":"m 90 0 l 90 28 l 201 69 l 201 847 l 90 889 l 90 917 l 414 917 q 644 856 560 917 q 728 690 728 796 q 674 549 728 610 q 535 460 621 489 l 800 64 l 892 28 l 892 0 l 708 0 l 436 426 l 310 426 l 310 71 l 414 28 l 414 0 l 90 0 m 400 851 l 310 851 l 310 492 l 408 492 q 553 543 496 492 q 611 672 611 594 q 554 803 611 756 q 400 851 497 851 m 232 986 q 301 1142 258 1088 q 429 1197 343 1197 q 558 1142 515 1197 q 626 986 601 1088 l 610 986 q 561 1069 586 1042 q 504 1108 536 1097 q 429 1118 472 1118 q 355 1108 386 1118 q 299 1069 324 1097 q 249 986 274 1042 l 232 986 z "},"Ṛ":{"ha":885,"x_min":90,"x_max":892,"o":"m 90 0 l 90 28 l 201 69 l 201 847 l 90 889 l 90 917 l 414 917 q 644 856 560 917 q 728 690 728 796 q 674 549 728 610 q 535 460 621 489 l 800 64 l 892 28 l 892 0 l 708 0 l 436 426 l 310 426 l 310 71 l 414 28 l 414 0 l 90 0 m 400 851 l 310 851 l 310 492 l 408 492 q 553 543 496 492 q 611 672 611 594 q 554 803 611 756 q 400 851 497 851 z "},"Ṟ":{"ha":885,"x_min":90,"x_max":892,"o":"m 90 0 l 90 28 l 201 69 l 201 847 l 90 889 l 90 917 l 414 917 q 644 856 560 917 q 728 690 728 796 q 674 549 728 610 q 535 460 621 489 l 800 64 l 892 28 l 892 0 l 708 0 l 436 426 l 310 426 l 310 71 l 414 28 l 414 0 l 90 0 m 400 851 l 310 851 l 310 492 l 408 492 q 553 543 496 492 q 611 672 611 594 q 554 803 611 756 q 400 851 497 851 z "},"ẞ":{"ha":1458,"x_min":83,"x_max":1382,"o":"m 361 -14 q 219 2 278 -14 q 97 50 161 18 l 83 272 l 107 272 l 179 113 q 275 58 229 74 q 368 42 321 42 q 501 88 454 42 q 549 214 549 133 q 519 313 549 276 q 437 376 490 349 q 311 440 383 404 q 204 504 247 472 q 138 578 161 536 q 115 682 115 619 q 138 772 115 728 q 198 852 160 817 q 284 909 236 888 q 383 931 332 931 q 499 915 447 931 q 607 872 551 900 l 621 656 l 597 656 l 536 808 q 458 859 493 844 q 376 874 422 874 q 263 830 304 874 q 221 721 221 786 q 241 638 221 672 q 303 576 261 604 q 408 517 344 547 q 546 440 492 476 q 626 358 600 404 q 653 240 653 311 q 626 133 653 181 q 557 53 600 86 q 463 3 514 21 q 361 -14 411 -14 m 1090 -14 q 949 2 1007 -14 q 826 50 890 18 l 813 272 l 836 272 l 908 113 q 1004 58 958 74 q 1097 42 1050 42 q 1231 88 1183 42 q 1278 214 1278 133 q 1249 313 1278 276 q 1166 376 1219 349 q 1040 440 1113 404 q 933 504 976 472 q 867 578 890 536 q 844 682 844 619 q 867 772 844 728 q 927 852 889 817 q 1013 909 965 888 q 1113 931 1061 931 q 1228 915 1176 931 q 1336 872 1281 900 l 1350 656 l 1326 656 l 1265 808 q 1187 859 1222 844 q 1106 874 1151 874 q 992 830 1033 874 q 950 721 950 786 q 970 638 950 672 q 1032 576 990 604 q 1138 517 1074 547 q 1275 440 1221 476 q 1356 358 1329 404 q 1382 240 1382 311 q 1356 133 1382 181 q 1286 53 1329 86 q 1192 3 1243 21 q 1090 -14 1140 -14 z "},"Ś":{"ha":729,"x_min":83,"x_max":653,"o":"m 361 -14 q 219 2 278 -14 q 97 50 161 18 l 83 272 l 107 272 l 179 113 q 275 58 229 74 q 368 42 321 42 q 501 88 454 42 q 549 214 549 133 q 519 313 549 276 q 437 376 490 349 q 311 440 383 404 q 204 504 247 472 q 138 578 161 536 q 115 682 115 619 q 138 772 115 728 q 198 852 160 817 q 284 909 236 888 q 383 931 332 931 q 499 915 447 931 q 607 872 551 900 l 621 656 l 597 656 l 536 808 q 458 859 493 844 q 376 874 422 874 q 263 830 304 874 q 221 721 221 786 q 241 638 221 672 q 303 576 261 604 q 408 517 344 547 q 546 440 492 476 q 626 358 600 404 q 653 240 653 311 q 626 133 653 181 q 557 53 600 86 q 463 3 514 21 q 361 -14 411 -14 m 369 986 l 494 1197 l 588 1197 q 579 1155 588 1176 q 542 1110 571 1133 l 386 986 l 369 986 z "},"Ŝ":{"ha":729,"x_min":83,"x_max":653,"o":"m 361 -14 q 219 2 278 -14 q 97 50 161 18 l 83 272 l 107 272 l 179 113 q 275 58 229 74 q 368 42 321 42 q 501 88 454 42 q 549 214 549 133 q 519 313 549 276 q 437 376 490 349 q 311 440 383 404 q 204 504 247 472 q 138 578 161 536 q 115 682 115 619 q 138 772 115 728 q 198 852 160 817 q 284 909 236 888 q 383 931 332 931 q 499 915 447 931 q 607 872 551 900 l 621 656 l 597 656 l 536 808 q 458 859 493 844 q 376 874 422 874 q 263 830 304 874 q 221 721 221 786 q 241 638 221 672 q 303 576 261 604 q 408 517 344 547 q 546 440 492 476 q 626 358 600 404 q 653 240 653 311 q 626 133 653 181 q 557 53 600 86 q 463 3 514 21 q 361 -14 411 -14 m 179 986 l 358 1197 l 394 1197 l 574 986 l 557 986 l 376 1106 l 196 986 l 179 986 z "},"Š":{"ha":729,"x_min":83,"x_max":653,"o":"m 361 -14 q 219 2 278 -14 q 97 50 161 18 l 83 272 l 107 272 l 179 113 q 275 58 229 74 q 368 42 321 42 q 501 88 454 42 q 549 214 549 133 q 519 313 549 276 q 437 376 490 349 q 311 440 383 404 q 204 504 247 472 q 138 578 161 536 q 115 682 115 619 q 138 772 115 728 q 198 852 160 817 q 284 909 236 888 q 383 931 332 931 q 499 915 447 931 q 607 872 551 900 l 621 656 l 597 656 l 536 808 q 458 859 493 844 q 376 874 422 874 q 263 830 304 874 q 221 721 221 786 q 241 638 221 672 q 303 576 261 604 q 408 517 344 547 q 546 440 492 476 q 626 358 600 404 q 653 240 653 311 q 626 133 653 181 q 557 53 600 86 q 463 3 514 21 q 361 -14 411 -14 m 358 986 l 179 1197 l 196 1197 l 376 1078 l 557 1197 l 574 1197 l 394 986 l 358 986 z "},"Ş":{"ha":729,"x_min":83,"x_max":653,"o":"m 369 -333 q 263 -296 297 -333 l 263 -279 l 267 -279 q 354 -297 304 -297 q 415 -281 397 -297 q 433 -237 433 -264 q 399 -180 433 -201 q 283 -135 364 -158 l 346 -14 q 214 3 269 -12 q 97 50 158 19 l 83 272 l 107 272 l 179 113 q 275 58 229 74 q 368 42 321 42 q 501 88 454 42 q 549 214 549 133 q 519 313 549 276 q 437 376 490 349 q 311 440 383 404 q 204 504 247 472 q 138 578 161 536 q 115 682 115 619 q 138 772 115 728 q 198 852 160 817 q 284 909 236 888 q 383 931 332 931 q 499 915 447 931 q 607 872 551 900 l 621 656 l 597 656 l 535 808 q 458 859 493 844 q 376 874 422 874 q 263 830 304 874 q 221 721 221 786 q 241 638 221 672 q 303 576 261 604 q 408 517 344 547 q 546 440 492 476 q 626 358 600 404 q 653 240 653 311 q 613 111 653 165 q 513 25 574 57 q 388 -12 451 -7 l 351 -82 q 462 -134 424 -104 q 500 -218 500 -164 q 466 -301 500 -268 q 369 -333 432 -333 z "},"Ș":{"ha":729,"x_min":83,"x_max":653,"o":"m 361 -14 q 219 2 278 -14 q 97 50 161 18 l 83 272 l 107 272 l 179 113 q 275 58 229 74 q 368 42 321 42 q 501 88 454 42 q 549 214 549 133 q 519 313 549 276 q 437 376 490 349 q 311 440 383 404 q 204 504 247 472 q 138 578 161 536 q 115 682 115 619 q 138 772 115 728 q 198 852 160 817 q 284 909 236 888 q 383 931 332 931 q 499 915 447 931 q 607 872 551 900 l 621 656 l 597 656 l 536 808 q 458 859 493 844 q 376 874 422 874 q 263 830 304 874 q 221 721 221 786 q 241 638 221 672 q 303 576 261 604 q 408 517 344 547 q 546 440 492 476 q 626 358 600 404 q 653 240 653 311 q 626 133 653 181 q 557 53 600 86 q 463 3 514 21 q 361 -14 411 -14 z "},"Ṡ":{"ha":729,"x_min":83,"x_max":653,"o":"m 361 -14 q 219 2 278 -14 q 97 50 161 18 l 83 272 l 107 272 l 179 113 q 275 58 229 74 q 368 42 321 42 q 501 88 454 42 q 549 214 549 133 q 519 313 549 276 q 437 376 490 349 q 311 440 383 404 q 204 504 247 472 q 138 578 161 536 q 115 682 115 619 q 138 772 115 728 q 198 852 160 817 q 284 909 236 888 q 383 931 332 931 q 499 915 447 931 q 607 872 551 900 l 621 656 l 597 656 l 536 808 q 458 859 493 844 q 376 874 422 874 q 263 830 304 874 q 221 721 221 786 q 241 638 221 672 q 303 576 261 604 q 408 517 344 547 q 546 440 492 476 q 626 358 600 404 q 653 240 653 311 q 626 133 653 181 q 557 53 600 86 q 463 3 514 21 q 361 -14 411 -14 m 376 1024 q 326 1044 347 1024 q 306 1094 306 1064 q 326 1144 306 1124 q 376 1165 347 1165 q 426 1144 406 1165 q 447 1094 447 1124 q 426 1044 447 1064 q 376 1024 406 1024 z "},"Ṣ":{"ha":729,"x_min":83,"x_max":653,"o":"m 361 -14 q 219 2 278 -14 q 97 50 161 18 l 83 272 l 107 272 l 179 113 q 275 58 229 74 q 368 42 321 42 q 501 88 454 42 q 549 214 549 133 q 519 313 549 276 q 437 376 490 349 q 311 440 383 404 q 204 504 247 472 q 138 578 161 536 q 115 682 115 619 q 138 772 115 728 q 198 852 160 817 q 284 909 236 888 q 383 931 332 931 q 499 915 447 931 q 607 872 551 900 l 621 656 l 597 656 l 536 808 q 458 859 493 844 q 376 874 422 874 q 263 830 304 874 q 221 721 221 786 q 241 638 221 672 q 303 576 261 604 q 408 517 344 547 q 546 440 492 476 q 626 358 600 404 q 653 240 653 311 q 626 133 653 181 q 557 53 600 86 q 463 3 514 21 q 361 -14 411 -14 z "},"Ṥ":{"ha":729,"x_min":83,"x_max":653,"o":"m 361 -14 q 219 2 278 -14 q 97 50 161 18 l 83 272 l 107 272 l 179 113 q 275 58 229 74 q 368 42 321 42 q 501 88 454 42 q 549 214 549 133 q 519 313 549 276 q 437 376 490 349 q 311 440 383 404 q 204 504 247 472 q 138 578 161 536 q 115 682 115 619 q 138 772 115 728 q 198 852 160 817 q 284 909 236 888 q 383 931 332 931 q 499 915 447 931 q 607 872 551 900 l 621 656 l 597 656 l 536 808 q 458 859 493 844 q 376 874 422 874 q 263 830 304 874 q 221 721 221 786 q 241 638 221 672 q 303 576 261 604 q 408 517 344 547 q 546 440 492 476 q 626 358 600 404 q 653 240 653 311 q 626 133 653 181 q 557 53 600 86 q 463 3 514 21 q 361 -14 411 -14 z "},"Ṧ":{"ha":729,"x_min":83,"x_max":653,"o":"m 361 -14 q 219 2 278 -14 q 97 50 161 18 l 83 272 l 107 272 l 179 113 q 275 58 229 74 q 368 42 321 42 q 501 88 454 42 q 549 214 549 133 q 519 313 549 276 q 437 376 490 349 q 311 440 383 404 q 204 504 247 472 q 138 578 161 536 q 115 682 115 619 q 138 772 115 728 q 198 852 160 817 q 284 909 236 888 q 383 931 332 931 q 499 915 447 931 q 607 872 551 900 l 621 656 l 597 656 l 536 808 q 458 859 493 844 q 376 874 422 874 q 263 830 304 874 q 221 721 221 786 q 241 638 221 672 q 303 576 261 604 q 408 517 344 547 q 546 440 492 476 q 626 358 600 404 q 653 240 653 311 q 626 133 653 181 q 557 53 600 86 q 463 3 514 21 q 361 -14 411 -14 z "},"Ṩ":{"ha":729,"x_min":83,"x_max":653,"o":"m 361 -14 q 219 2 278 -14 q 97 50 161 18 l 83 272 l 107 272 l 179 113 q 275 58 229 74 q 368 42 321 42 q 501 88 454 42 q 549 214 549 133 q 519 313 549 276 q 437 376 490 349 q 311 440 383 404 q 204 504 247 472 q 138 578 161 536 q 115 682 115 619 q 138 772 115 728 q 198 852 160 817 q 284 909 236 888 q 383 931 332 931 q 499 915 447 931 q 607 872 551 900 l 621 656 l 597 656 l 536 808 q 458 859 493 844 q 376 874 422 874 q 263 830 304 874 q 221 721 221 786 q 241 638 221 672 q 303 576 261 604 q 408 517 344 547 q 546 440 492 476 q 626 358 600 404 q 653 240 653 311 q 626 133 653 181 q 557 53 600 86 q 463 3 514 21 q 361 -14 411 -14 m 376 1024 q 326 1044 347 1024 q 306 1094 306 1064 q 326 1144 306 1124 q 376 1165 347 1165 q 426 1144 406 1165 q 447 1094 447 1124 q 426 1044 447 1064 q 376 1024 406 1024 z "},"Ť":{"ha":931,"x_min":63,"x_max":868,"o":"m 272 0 l 272 28 l 411 69 l 411 851 l 167 851 l 88 647 l 63 647 l 63 917 l 868 917 l 868 647 l 843 647 l 764 851 l 519 851 l 519 69 l 658 28 l 658 0 l 272 0 m 447 986 l 268 1197 l 285 1197 l 465 1078 l 646 1197 l 663 1197 l 483 986 l 447 986 z "},"Ț":{"ha":931,"x_min":63,"x_max":868,"o":"m 272 0 l 272 28 l 411 69 l 411 851 l 167 851 l 88 647 l 63 647 l 63 917 l 868 917 l 868 647 l 843 647 l 764 851 l 519 851 l 519 69 l 658 28 l 658 0 l 272 0 z "},"Ŧ":{"ha":931,"x_min":63,"x_max":868,"o":"m 272 0 l 272 28 l 411 69 l 411 444 l 233 444 l 233 506 l 411 506 l 411 851 l 167 851 l 88 647 l 63 647 l 63 917 l 868 917 l 868 647 l 843 647 l 764 851 l 519 851 l 519 506 l 697 506 l 697 444 l 519 444 l 519 69 l 658 28 l 658 0 l 272 0 z "},"Ţ":{"ha":931,"x_min":63,"x_max":868,"o":"m 272 0 l 272 28 l 411 69 l 411 851 l 167 851 l 88 647 l 63 647 l 63 917 l 868 917 l 868 647 l 843 647 l 764 851 l 519 851 l 519 69 l 658 28 l 658 0 l 479 0 l 436 -82 q 547 -133 508 -103 q 586 -218 586 -164 q 552 -301 586 -268 q 456 -333 518 -333 q 393 -324 421 -333 q 349 -296 365 -314 l 349 -279 l 353 -279 q 439 -297 390 -297 q 501 -281 482 -297 q 519 -237 519 -264 q 484 -180 519 -201 q 368 -135 449 -158 l 439 0 l 272 0 z "},"Ṭ":{"ha":931,"x_min":63,"x_max":868,"o":"m 272 0 l 272 28 l 411 69 l 411 851 l 167 851 l 88 647 l 63 647 l 63 917 l 868 917 l 868 647 l 843 647 l 764 851 l 519 851 l 519 69 l 658 28 l 658 0 l 272 0 z "},"Ṯ":{"ha":931,"x_min":63,"x_max":868,"o":"m 272 0 l 272 28 l 411 69 l 411 851 l 167 851 l 88 647 l 63 647 l 63 917 l 868 917 l 868 647 l 843 647 l 764 851 l 519 851 l 519 69 l 658 28 l 658 0 l 272 0 z "},"Ù":{"ha":1107,"x_min":90,"x_max":1017,"o":"m 554 -14 q 373 24 453 -14 q 247 140 293 61 q 201 346 201 219 l 201 847 l 90 889 l 90 917 l 421 917 l 421 889 l 310 847 l 310 365 q 345 183 310 250 q 443 86 381 115 q 586 57 506 57 q 707 84 653 57 q 794 169 761 111 q 826 322 826 228 l 826 850 l 688 889 l 688 917 l 1017 917 l 1017 889 l 907 849 l 907 346 q 861 140 907 219 q 735 24 815 61 q 554 -14 656 -14 m 560 986 l 404 1110 q 367 1155 375 1133 q 358 1197 358 1176 l 453 1197 l 576 986 l 560 986 z "},"Ú":{"ha":1107,"x_min":90,"x_max":1017,"o":"m 554 -14 q 373 24 453 -14 q 247 140 293 61 q 201 346 201 219 l 201 847 l 90 889 l 90 917 l 421 917 l 421 889 l 310 847 l 310 365 q 345 183 310 250 q 443 86 381 115 q 586 57 506 57 q 707 84 653 57 q 794 169 761 111 q 826 322 826 228 l 826 850 l 688 889 l 688 917 l 1017 917 l 1017 889 l 907 849 l 907 346 q 861 140 907 219 q 735 24 815 61 q 554 -14 656 -14 m 561 986 l 686 1197 l 779 1197 q 771 1155 779 1176 q 733 1110 763 1133 l 578 986 l 561 986 z "},"Û":{"ha":1107,"x_min":90,"x_max":1017,"o":"m 554 -14 q 373 24 453 -14 q 247 140 293 61 q 201 346 201 219 l 201 847 l 90 889 l 90 917 l 421 917 l 421 889 l 310 847 l 310 365 q 345 183 310 250 q 443 86 381 115 q 586 57 506 57 q 707 84 653 57 q 794 169 761 111 q 826 322 826 228 l 826 850 l 688 889 l 688 917 l 1017 917 l 1017 889 l 907 849 l 907 346 q 861 140 907 219 q 735 24 815 61 q 554 -14 656 -14 m 371 986 l 550 1197 l 586 1197 l 765 986 l 749 986 l 568 1106 l 388 986 l 371 986 z "},"Ũ":{"ha":1107,"x_min":90,"x_max":1017,"o":"m 554 -14 q 373 24 453 -14 q 247 140 293 61 q 201 346 201 219 l 201 847 l 90 889 l 90 917 l 421 917 l 421 889 l 310 847 l 310 365 q 345 183 310 250 q 443 86 381 115 q 586 57 506 57 q 707 84 653 57 q 794 169 761 111 q 826 322 826 228 l 826 850 l 688 889 l 688 917 l 1017 917 l 1017 889 l 907 849 l 907 346 q 861 140 907 219 q 735 24 815 61 q 554 -14 656 -14 m 364 1011 q 404 1112 385 1078 q 444 1158 424 1146 q 489 1169 464 1169 q 553 1148 524 1169 q 611 1105 583 1126 q 668 1083 639 1083 q 715 1102 694 1083 q 754 1169 735 1121 l 772 1169 q 732 1067 751 1101 q 692 1022 713 1033 q 647 1011 672 1011 q 583 1032 613 1011 q 525 1074 553 1053 q 468 1096 497 1096 q 422 1078 442 1096 q 382 1011 401 1060 l 364 1011 z "},"Ü":{"ha":1107,"x_min":90,"x_max":1017,"o":"m 554 -14 q 373 24 453 -14 q 247 140 293 61 q 201 346 201 219 l 201 847 l 90 889 l 90 917 l 421 917 l 421 889 l 310 847 l 310 365 q 345 183 310 250 q 443 86 381 115 q 586 57 506 57 q 707 84 653 57 q 794 169 761 111 q 826 322 826 228 l 826 850 l 688 889 l 688 917 l 1017 917 l 1017 889 l 907 849 l 907 346 q 861 140 907 219 q 735 24 815 61 q 554 -14 656 -14 m 439 1029 q 394 1047 413 1029 q 375 1092 375 1064 q 394 1138 375 1119 q 439 1156 413 1156 q 484 1138 465 1156 q 503 1092 503 1119 q 484 1047 503 1064 q 439 1029 465 1029 m 697 1029 q 652 1047 671 1029 q 633 1092 633 1064 q 652 1138 633 1119 q 697 1156 671 1156 q 742 1138 724 1156 q 761 1092 761 1119 q 742 1047 761 1064 q 697 1029 724 1029 z "},"Ū":{"ha":1107,"x_min":90,"x_max":1017,"o":"m 554 -14 q 373 24 453 -14 q 247 140 293 61 q 201 346 201 219 l 201 847 l 90 889 l 90 917 l 421 917 l 421 889 l 310 847 l 310 365 q 345 183 310 250 q 443 86 381 115 q 586 57 506 57 q 707 84 653 57 q 794 169 761 111 q 826 322 826 228 l 826 850 l 688 889 l 688 917 l 1017 917 l 1017 889 l 907 849 l 907 346 q 861 140 907 219 q 735 24 815 61 q 554 -14 656 -14 m 386 1064 l 386 1125 l 750 1125 l 750 1064 l 386 1064 z "},"Ŭ":{"ha":1107,"x_min":90,"x_max":1017,"o":"m 554 -14 q 373 24 453 -14 q 247 140 293 61 q 201 346 201 219 l 201 847 l 90 889 l 90 917 l 421 917 l 421 889 l 310 847 l 310 365 q 345 183 310 250 q 443 86 381 115 q 586 57 506 57 q 707 84 653 57 q 794 169 761 111 q 826 322 826 228 l 826 850 l 688 889 l 688 917 l 1017 917 l 1017 889 l 907 849 l 907 346 q 861 140 907 219 q 735 24 815 61 q 554 -14 656 -14 m 568 986 q 439 1041 482 986 q 371 1197 396 1096 l 388 1197 q 436 1114 411 1142 q 493 1076 461 1086 q 568 1065 525 1065 q 642 1076 611 1065 q 699 1114 674 1086 q 749 1197 724 1142 l 765 1197 q 697 1041 739 1096 q 568 986 654 986 z "},"Ů":{"ha":1107,"x_min":90,"x_max":1017,"o":"m 554 -14 q 373 24 453 -14 q 247 140 293 61 q 201 346 201 219 l 201 847 l 90 889 l 90 917 l 421 917 l 421 889 l 310 847 l 310 365 q 345 183 310 250 q 443 86 381 115 q 586 57 506 57 q 707 84 653 57 q 794 169 761 111 q 826 322 826 228 l 826 850 l 688 889 l 688 917 l 1017 917 l 1017 889 l 907 849 l 907 346 q 861 140 907 219 q 735 24 815 61 q 554 -14 656 -14 m 568 986 q 483 1019 515 986 q 450 1100 450 1051 q 483 1181 450 1147 q 568 1214 515 1214 q 653 1181 621 1214 q 686 1100 686 1147 q 653 1019 686 1051 q 568 986 621 986 m 575 1017 q 610 1034 597 1017 q 624 1090 624 1051 q 607 1160 624 1136 q 563 1183 590 1183 q 528 1167 540 1183 q 515 1110 515 1150 q 575 1017 515 1017 z "},"Ű":{"ha":1107,"x_min":90,"x_max":1017,"o":"m 554 -14 q 373 24 453 -14 q 247 140 293 61 q 201 346 201 219 l 201 847 l 90 889 l 90 917 l 421 917 l 421 889 l 310 847 l 310 365 q 345 183 310 250 q 443 86 381 115 q 586 57 506 57 q 707 84 653 57 q 794 169 761 111 q 826 322 826 228 l 826 850 l 688 889 l 688 917 l 1017 917 l 1017 889 l 907 849 l 907 346 q 861 140 907 219 q 735 24 815 61 q 554 -14 656 -14 m 482 986 l 551 1197 l 625 1197 q 631 1155 632 1176 q 608 1110 629 1133 l 499 986 l 482 986 m 639 986 l 717 1197 l 790 1197 q 796 1155 797 1176 q 774 1110 794 1133 l 656 986 l 639 986 z "},"Ų":{"ha":1107,"x_min":90,"x_max":1017,"o":"m 554 -14 q 373 24 453 -14 q 247 140 293 61 q 201 346 201 219 l 201 847 l 90 889 l 90 917 l 421 917 l 421 889 l 310 847 l 310 365 q 345 183 310 250 q 443 86 381 115 q 586 57 506 57 q 707 84 653 57 q 794 169 761 111 q 826 322 826 228 l 826 850 l 688 889 l 688 917 l 1017 917 l 1017 889 l 907 849 l 907 346 q 867 151 907 228 q 755 34 826 74 q 592 -12 683 -6 q 522 -192 522 -111 q 546 -261 522 -239 q 613 -283 569 -283 q 649 -278 631 -283 q 688 -261 668 -274 l 692 -261 l 692 -278 q 646 -318 675 -303 q 578 -333 617 -333 q 485 -302 522 -333 q 447 -215 447 -271 q 477 -115 447 -164 q 556 -14 507 -67 l 554 -14 z "},"Ụ":{"ha":1107,"x_min":90,"x_max":1017,"o":"m 554 -14 q 373 24 453 -14 q 247 140 293 61 q 201 346 201 219 l 201 847 l 90 889 l 90 917 l 421 917 l 421 889 l 310 847 l 310 365 q 345 183 310 250 q 443 86 381 115 q 586 57 506 57 q 707 84 653 57 q 794 169 761 111 q 826 322 826 228 l 826 850 l 688 889 l 688 917 l 1017 917 l 1017 889 l 907 849 l 907 346 q 861 140 907 219 q 735 24 815 61 q 554 -14 656 -14 z "},"Ȕ":{"ha":1107,"x_min":90,"x_max":1017,"o":"m 554 -14 q 373 24 453 -14 q 247 140 293 61 q 201 346 201 219 l 201 847 l 90 889 l 90 917 l 421 917 l 421 889 l 310 847 l 310 365 q 345 183 310 250 q 443 86 381 115 q 586 57 506 57 q 707 84 653 57 q 794 169 761 111 q 826 322 826 228 l 826 850 l 688 889 l 688 917 l 1017 917 l 1017 889 l 907 849 l 907 346 q 861 140 907 219 q 735 24 815 61 q 554 -14 656 -14 m 479 986 l 354 1110 q 331 1154 332 1132 q 338 1197 331 1176 l 411 1197 l 497 986 l 479 986 m 638 986 l 521 1110 q 499 1155 500 1133 q 504 1197 497 1176 l 578 1197 l 654 986 l 638 986 z "},"Ȗ":{"ha":1107,"x_min":90,"x_max":1017,"o":"m 554 -14 q 373 24 453 -14 q 247 140 293 61 q 201 346 201 219 l 201 847 l 90 889 l 90 917 l 421 917 l 421 889 l 310 847 l 310 365 q 345 183 310 250 q 443 86 381 115 q 586 57 506 57 q 707 84 653 57 q 794 169 761 111 q 826 322 826 228 l 826 850 l 688 889 l 688 917 l 1017 917 l 1017 889 l 907 849 l 907 346 q 861 140 907 219 q 735 24 815 61 q 554 -14 656 -14 m 371 986 q 440 1142 397 1088 q 568 1197 482 1197 q 697 1142 654 1197 q 765 986 740 1088 l 749 986 q 700 1069 725 1042 q 643 1108 675 1097 q 568 1118 611 1118 q 494 1108 525 1118 q 438 1069 463 1097 q 388 986 413 1042 l 371 986 z "},"Ủ":{"ha":1107,"x_min":90,"x_max":1017,"o":"m 554 -14 q 373 24 453 -14 q 247 140 293 61 q 201 346 201 219 l 201 847 l 90 889 l 90 917 l 421 917 l 421 889 l 310 847 l 310 365 q 345 183 310 250 q 443 86 381 115 q 586 57 506 57 q 707 84 653 57 q 794 169 761 111 q 826 322 826 228 l 826 850 l 688 889 l 688 917 l 1017 917 l 1017 889 l 907 849 l 907 346 q 861 140 907 219 q 735 24 815 61 q 554 -14 656 -14 m 504 985 l 504 986 q 582 1022 554 1003 q 610 1074 610 1040 q 585 1120 610 1101 q 494 1150 560 1139 l 507 1215 q 638 1172 601 1207 q 674 1101 674 1138 q 633 1018 674 1047 q 514 975 592 989 l 504 985 z "},"Ṹ":{"ha":1107,"x_min":90,"x_max":1017,"o":"m 554 -14 q 373 24 453 -14 q 247 140 293 61 q 201 346 201 219 l 201 847 l 90 889 l 90 917 l 421 917 l 421 889 l 310 847 l 310 365 q 345 183 310 250 q 443 86 381 115 q 586 57 506 57 q 707 84 653 57 q 794 169 761 111 q 826 322 826 228 l 826 850 l 688 889 l 688 917 l 1017 917 l 1017 889 l 907 849 l 907 346 q 861 140 907 219 q 735 24 815 61 q 554 -14 656 -14 z "},"Ṻ":{"ha":1107,"x_min":90,"x_max":1017,"o":"m 554 -14 q 373 24 453 -14 q 247 140 293 61 q 201 346 201 219 l 201 847 l 90 889 l 90 917 l 421 917 l 421 889 l 310 847 l 310 365 q 345 183 310 250 q 443 86 381 115 q 586 57 506 57 q 707 84 653 57 q 794 169 761 111 q 826 322 826 228 l 826 850 l 688 889 l 688 917 l 1017 917 l 1017 889 l 907 849 l 907 346 q 861 140 907 219 q 735 24 815 61 q 554 -14 656 -14 z "},"Ư":{"ha":1108,"x_min":90,"x_max":1196,"o":"m 554 -14 q 373 24 453 -14 q 247 140 293 61 q 201 346 201 219 l 201 847 l 90 889 l 90 917 l 421 917 l 421 889 l 310 847 l 310 365 q 345 183 310 250 q 443 86 381 115 q 586 57 506 57 q 707 84 653 57 q 794 169 761 111 q 826 322 826 228 l 826 850 l 688 889 l 688 917 l 1036 917 q 1097 934 1081 917 q 1113 989 1113 951 l 1113 1039 l 1119 1046 l 1158 1046 q 1188 1038 1181 1046 q 1196 999 1196 1029 q 1157 915 1196 942 q 1056 888 1118 888 l 1013 888 l 907 849 l 907 346 q 861 140 907 219 q 735 24 815 61 q 554 -14 656 -14 z "},"Ứ":{"ha":1108,"x_min":90,"x_max":1196,"o":"m 554 -14 q 373 24 453 -14 q 247 140 293 61 q 201 346 201 219 l 201 847 l 90 889 l 90 917 l 421 917 l 421 889 l 310 847 l 310 365 q 345 183 310 250 q 443 86 381 115 q 586 57 506 57 q 707 84 653 57 q 794 169 761 111 q 826 322 826 228 l 826 850 l 688 889 l 688 917 l 1036 917 q 1097 934 1081 917 q 1113 989 1113 951 l 1113 1039 l 1119 1046 l 1158 1046 q 1188 1038 1181 1046 q 1196 999 1196 1029 q 1157 915 1196 942 q 1056 888 1118 888 l 1013 888 l 907 849 l 907 346 q 861 140 907 219 q 735 24 815 61 q 554 -14 656 -14 m 561 986 l 686 1197 l 779 1197 q 771 1155 779 1176 q 733 1110 763 1133 l 578 986 l 561 986 z "},"Ự":{"ha":1108,"x_min":90,"x_max":1196,"o":"m 554 -14 q 373 24 453 -14 q 247 140 293 61 q 201 346 201 219 l 201 847 l 90 889 l 90 917 l 421 917 l 421 889 l 310 847 l 310 365 q 345 183 310 250 q 443 86 381 115 q 586 57 506 57 q 707 84 653 57 q 794 169 761 111 q 826 322 826 228 l 826 850 l 688 889 l 688 917 l 1036 917 q 1097 934 1081 917 q 1113 989 1113 951 l 1113 1039 l 1119 1046 l 1158 1046 q 1188 1038 1181 1046 q 1196 999 1196 1029 q 1157 915 1196 942 q 1056 888 1118 888 l 1013 888 l 907 849 l 907 346 q 861 140 907 219 q 735 24 815 61 q 554 -14 656 -14 z "},"Ừ":{"ha":1108,"x_min":90,"x_max":1196,"o":"m 554 -14 q 373 24 453 -14 q 247 140 293 61 q 201 346 201 219 l 201 847 l 90 889 l 90 917 l 421 917 l 421 889 l 310 847 l 310 365 q 345 183 310 250 q 443 86 381 115 q 586 57 506 57 q 707 84 653 57 q 794 169 761 111 q 826 322 826 228 l 826 850 l 688 889 l 688 917 l 1036 917 q 1097 934 1081 917 q 1113 989 1113 951 l 1113 1039 l 1119 1046 l 1158 1046 q 1188 1038 1181 1046 q 1196 999 1196 1029 q 1157 915 1196 942 q 1056 888 1118 888 l 1013 888 l 907 849 l 907 346 q 861 140 907 219 q 735 24 815 61 q 554 -14 656 -14 m 560 986 l 404 1110 q 367 1155 375 1133 q 358 1197 358 1176 l 453 1197 l 576 986 l 560 986 z "},"Ử":{"ha":1108,"x_min":90,"x_max":1196,"o":"m 554 -14 q 373 24 453 -14 q 247 140 293 61 q 201 346 201 219 l 201 847 l 90 889 l 90 917 l 421 917 l 421 889 l 310 847 l 310 365 q 345 183 310 250 q 443 86 381 115 q 586 57 506 57 q 707 84 653 57 q 794 169 761 111 q 826 322 826 228 l 826 850 l 688 889 l 688 917 l 1036 917 q 1097 934 1081 917 q 1113 989 1113 951 l 1113 1039 l 1119 1046 l 1158 1046 q 1188 1038 1181 1046 q 1196 999 1196 1029 q 1157 915 1196 942 q 1056 888 1118 888 l 1013 888 l 907 849 l 907 346 q 861 140 907 219 q 735 24 815 61 q 554 -14 656 -14 m 504 985 l 504 986 q 582 1022 554 1003 q 610 1074 610 1040 q 585 1120 610 1101 q 494 1150 560 1139 l 507 1215 q 638 1172 601 1207 q 674 1101 674 1138 q 633 1018 674 1047 q 514 975 592 989 l 504 985 z "},"Ữ":{"ha":1108,"x_min":90,"x_max":1196,"o":"m 554 -14 q 373 24 453 -14 q 247 140 293 61 q 201 346 201 219 l 201 847 l 90 889 l 90 917 l 421 917 l 421 889 l 310 847 l 310 365 q 345 183 310 250 q 443 86 381 115 q 586 57 506 57 q 707 84 653 57 q 794 169 761 111 q 826 322 826 228 l 826 850 l 688 889 l 688 917 l 1036 917 q 1097 934 1081 917 q 1113 989 1113 951 l 1113 1039 l 1119 1046 l 1158 1046 q 1188 1038 1181 1046 q 1196 999 1196 1029 q 1157 915 1196 942 q 1056 888 1118 888 l 1013 888 l 907 849 l 907 346 q 861 140 907 219 q 735 24 815 61 q 554 -14 656 -14 m 365 1011 q 406 1112 386 1078 q 445 1158 425 1146 q 490 1169 465 1169 q 555 1148 525 1169 q 613 1105 585 1126 q 669 1083 640 1083 q 716 1102 696 1083 q 756 1169 736 1121 l 774 1169 q 733 1067 753 1101 q 694 1022 714 1033 q 649 1011 674 1011 q 584 1032 614 1011 q 526 1074 554 1053 q 469 1096 499 1096 q 423 1078 443 1096 q 383 1011 403 1060 l 365 1011 z "},"Ẁ":{"ha":1347,"x_min":21,"x_max":1326,"o":"m 378 -7 l 124 851 l 21 889 l 21 917 l 358 917 l 358 889 l 238 851 l 422 207 l 429 207 l 672 924 l 715 924 l 969 207 l 976 207 l 1156 847 l 1035 889 l 1035 917 l 1326 917 l 1326 889 l 1235 850 l 979 -7 l 939 -7 l 681 699 l 674 699 l 418 -7 l 378 -7 m 685 986 l 529 1110 q 492 1155 500 1133 q 483 1197 483 1176 l 578 1197 l 701 986 l 685 986 z "},"Ẃ":{"ha":1347,"x_min":21,"x_max":1326,"o":"m 378 -7 l 124 851 l 21 889 l 21 917 l 358 917 l 358 889 l 238 851 l 422 207 l 429 207 l 672 924 l 715 924 l 969 207 l 976 207 l 1156 847 l 1035 889 l 1035 917 l 1326 917 l 1326 889 l 1235 850 l 979 -7 l 939 -7 l 681 699 l 674 699 l 418 -7 l 378 -7 m 686 986 l 811 1197 l 904 1197 q 896 1155 904 1176 q 858 1110 888 1133 l 703 986 l 686 986 z "},"Ŵ":{"ha":1347,"x_min":21,"x_max":1326,"o":"m 378 -7 l 124 851 l 21 889 l 21 917 l 358 917 l 358 889 l 238 851 l 422 207 l 429 207 l 672 924 l 715 924 l 969 207 l 976 207 l 1156 847 l 1035 889 l 1035 917 l 1326 917 l 1326 889 l 1235 850 l 979 -7 l 939 -7 l 681 699 l 674 699 l 418 -7 l 378 -7 m 497 986 l 676 1197 l 713 1197 l 892 986 l 875 986 l 694 1106 l 514 986 l 497 986 z "},"Ẅ":{"ha":1347,"x_min":21,"x_max":1326,"o":"m 378 -7 l 124 851 l 21 889 l 21 917 l 358 917 l 358 889 l 238 851 l 422 207 l 429 207 l 672 924 l 715 924 l 969 207 l 976 207 l 1156 847 l 1035 889 l 1035 917 l 1326 917 l 1326 889 l 1235 850 l 979 -7 l 939 -7 l 681 699 l 674 699 l 418 -7 l 378 -7 m 565 1029 q 520 1047 539 1029 q 501 1092 501 1064 q 520 1138 501 1119 q 565 1156 539 1156 q 610 1138 592 1156 q 629 1092 629 1119 q 610 1047 629 1064 q 565 1029 592 1029 m 824 1029 q 778 1047 797 1029 q 760 1092 760 1064 q 778 1138 760 1119 q 824 1156 797 1156 q 869 1138 850 1156 q 888 1092 888 1119 q 869 1047 888 1064 q 824 1029 850 1029 z "},"Ỳ":{"ha":981,"x_min":49,"x_max":932,"o":"m 317 0 l 317 28 l 442 69 l 442 432 l 135 853 l 49 889 l 49 917 l 365 917 l 365 889 l 268 853 l 268 847 l 522 494 l 753 846 l 753 851 l 651 889 l 651 917 l 932 917 l 932 889 l 844 856 l 550 429 l 550 69 l 675 28 l 675 0 l 317 0 m 500 986 l 344 1110 q 307 1155 315 1133 q 299 1197 299 1176 l 393 1197 l 517 986 l 500 986 z "},"Ý":{"ha":981,"x_min":49,"x_max":932,"o":"m 317 0 l 317 28 l 442 69 l 442 432 l 135 853 l 49 889 l 49 917 l 365 917 l 365 889 l 268 853 l 268 847 l 522 494 l 753 846 l 753 851 l 651 889 l 651 917 l 932 917 l 932 889 l 844 856 l 550 429 l 550 69 l 675 28 l 675 0 l 317 0 m 501 986 l 626 1197 l 719 1197 q 711 1155 719 1176 q 674 1110 703 1133 l 518 986 l 501 986 z "},"Ŷ":{"ha":981,"x_min":49,"x_max":932,"o":"m 317 0 l 317 28 l 442 69 l 442 432 l 135 853 l 49 889 l 49 917 l 365 917 l 365 889 l 268 853 l 268 847 l 522 494 l 753 846 l 753 851 l 651 889 l 651 917 l 932 917 l 932 889 l 844 856 l 550 429 l 550 69 l 675 28 l 675 0 l 317 0 m 311 986 l 490 1197 l 526 1197 l 706 986 l 689 986 l 508 1106 l 328 986 l 311 986 z "},"Ÿ":{"ha":981,"x_min":49,"x_max":932,"o":"m 317 0 l 317 28 l 442 69 l 442 432 l 135 853 l 49 889 l 49 917 l 365 917 l 365 889 l 268 853 l 268 847 l 522 494 l 753 846 l 753 851 l 651 889 l 651 917 l 932 917 l 932 889 l 844 856 l 550 429 l 550 69 l 675 28 l 675 0 l 317 0 m 379 1029 q 334 1047 353 1029 q 315 1092 315 1064 q 334 1138 315 1119 q 379 1156 353 1156 q 424 1138 406 1156 q 443 1092 443 1119 q 424 1047 443 1064 q 379 1029 406 1029 m 638 1029 q 592 1047 611 1029 q 574 1092 574 1064 q 592 1138 574 1119 q 638 1156 611 1156 q 683 1138 664 1156 q 701 1092 701 1119 q 683 1047 701 1064 q 638 1029 664 1029 z "},"Ỹ":{"ha":981,"x_min":49,"x_max":932,"o":"m 317 0 l 317 28 l 442 69 l 442 432 l 135 853 l 49 889 l 49 917 l 365 917 l 365 889 l 268 853 l 268 847 l 522 494 l 753 846 l 753 851 l 651 889 l 651 917 l 932 917 l 932 889 l 844 856 l 550 429 l 550 69 l 675 28 l 675 0 l 317 0 m 304 1011 q 344 1112 325 1078 q 384 1158 364 1146 q 429 1169 404 1169 q 494 1148 464 1169 q 551 1105 524 1126 q 608 1083 579 1083 q 655 1102 635 1083 q 694 1169 675 1121 l 713 1169 q 672 1067 692 1101 q 633 1022 653 1033 q 588 1011 613 1011 q 523 1032 553 1011 q 465 1074 493 1053 q 408 1096 438 1096 q 362 1078 382 1096 q 322 1011 342 1060 l 304 1011 z "},"Ȳ":{"ha":981,"x_min":49,"x_max":932,"o":"m 317 0 l 317 28 l 442 69 l 442 432 l 135 853 l 49 889 l 49 917 l 365 917 l 365 889 l 268 853 l 268 847 l 522 494 l 753 846 l 753 851 l 651 889 l 651 917 l 932 917 l 932 889 l 844 856 l 550 429 l 550 69 l 675 28 l 675 0 l 317 0 m 326 1064 l 326 1125 l 690 1125 l 690 1064 l 326 1064 z "},"Ỵ":{"ha":981,"x_min":49,"x_max":932,"o":"m 317 0 l 317 28 l 442 69 l 442 432 l 135 853 l 49 889 l 49 917 l 365 917 l 365 889 l 268 853 l 268 847 l 522 494 l 753 846 l 753 851 l 651 889 l 651 917 l 932 917 l 932 889 l 844 856 l 550 429 l 550 69 l 675 28 l 675 0 l 317 0 z "},"Ỷ":{"ha":981,"x_min":49,"x_max":932,"o":"m 317 0 l 317 28 l 442 69 l 442 432 l 135 853 l 49 889 l 49 917 l 365 917 l 365 889 l 268 853 l 268 847 l 522 494 l 753 846 l 753 851 l 651 889 l 651 917 l 932 917 l 932 889 l 844 856 l 550 429 l 550 69 l 675 28 l 675 0 l 317 0 m 444 985 l 444 986 q 522 1022 494 1003 q 550 1074 550 1040 q 525 1120 550 1101 q 435 1150 500 1139 l 447 1215 q 578 1172 542 1207 q 614 1101 614 1138 q 573 1018 614 1047 q 454 975 532 989 l 444 985 z "},"Ẏ":{"ha":981,"x_min":49,"x_max":932,"o":"m 317 0 l 317 28 l 442 69 l 442 432 l 135 853 l 49 889 l 49 917 l 365 917 l 365 889 l 268 853 l 268 847 l 522 494 l 753 846 l 753 851 l 651 889 l 651 917 l 932 917 l 932 889 l 844 856 l 550 429 l 550 69 l 675 28 l 675 0 l 317 0 m 508 1024 q 458 1044 479 1024 q 438 1094 438 1064 q 458 1144 438 1124 q 508 1165 479 1165 q 558 1144 538 1165 q 579 1094 579 1124 q 558 1044 579 1064 q 508 1024 538 1024 z "},"Ź":{"ha":886,"x_min":125,"x_max":761,"o":"m 125 0 l 125 32 l 610 851 l 240 851 l 167 669 l 142 669 l 142 917 l 746 917 l 746 885 l 261 65 l 663 65 l 738 261 l 761 261 l 761 0 l 125 0 m 444 986 l 569 1197 l 663 1197 q 654 1155 663 1176 q 617 1110 646 1133 l 461 986 l 444 986 z "},"Ž":{"ha":886,"x_min":125,"x_max":761,"o":"m 125 0 l 125 32 l 610 851 l 240 851 l 167 669 l 142 669 l 142 917 l 746 917 l 746 885 l 261 65 l 663 65 l 738 261 l 761 261 l 761 0 l 125 0 m 433 986 l 254 1197 l 271 1197 l 451 1078 l 632 1197 l 649 1197 l 469 986 l 433 986 z "},"Ż":{"ha":886,"x_min":125,"x_max":761,"o":"m 125 0 l 125 32 l 610 851 l 240 851 l 167 669 l 142 669 l 142 917 l 746 917 l 746 885 l 261 65 l 663 65 l 738 261 l 761 261 l 761 0 l 125 0 m 451 1024 q 401 1044 422 1024 q 381 1094 381 1064 q 401 1144 381 1124 q 451 1165 422 1165 q 501 1144 481 1165 q 522 1094 522 1124 q 501 1044 522 1064 q 451 1024 481 1024 z "},"Ẓ":{"ha":886,"x_min":125,"x_max":761,"o":"m 125 0 l 125 32 l 610 851 l 240 851 l 167 669 l 142 669 l 142 917 l 746 917 l 746 885 l 261 65 l 663 65 l 738 261 l 761 261 l 761 0 l 125 0 z "},"Ə":{"ha":963,"x_min":97,"x_max":865,"o":"m 450 -14 q 196 97 290 -14 q 99 407 101 207 l 107 415 l 753 415 q 753 446 753 431 q 667 728 753 622 q 407 833 582 833 q 240 802 314 833 q 104 724 165 771 l 97 724 l 97 743 q 233 878 144 825 q 439 931 321 931 q 670 874 575 931 q 815 719 765 818 q 865 490 865 619 q 834 290 865 382 q 746 130 803 199 q 613 24 689 61 q 450 -14 538 -14 m 467 49 q 655 128 581 49 q 747 356 729 207 l 206 356 q 286 134 221 219 q 467 49 351 49 z "},"Ŋ":{"ha":1101,"x_min":86,"x_max":1015,"o":"m 86 0 l 86 28 l 196 69 l 196 846 l 88 889 l 88 917 l 282 917 l 826 213 l 826 849 l 696 889 l 696 917 l 1015 917 l 1015 889 l 906 847 l 906 -46 q 881 -193 906 -139 q 818 -278 857 -247 q 646 -333 751 -333 q 602 -325 614 -333 q 590 -293 590 -317 l 590 -239 l 597 -233 l 660 -233 q 792 -194 757 -233 q 826 -60 826 -154 l 826 39 l 276 744 l 276 71 l 410 28 l 410 0 l 86 0 z "},"Ð":{"ha":1042,"x_min":90,"x_max":944,"o":"m 90 0 l 90 28 l 201 69 l 201 444 l 90 444 l 90 506 l 201 506 l 201 847 l 90 889 l 90 917 l 463 917 q 724 863 617 917 q 888 714 832 808 q 944 500 944 619 q 882 239 944 351 q 708 63 819 126 q 453 0 597 0 l 90 0 m 547 444 l 310 444 l 310 65 l 464 65 q 658 115 575 65 q 785 252 740 164 q 831 457 831 340 q 786 665 831 576 q 656 803 742 754 q 449 851 571 851 l 310 851 l 310 506 l 547 506 l 547 444 z "},"Þ":{"ha":851,"x_min":90,"x_max":779,"o":"m 90 0 l 90 28 l 200 69 l 200 847 l 90 889 l 90 917 l 418 917 l 418 889 l 308 847 l 308 744 l 417 744 q 680 685 581 744 q 779 496 779 625 q 728 360 779 419 q 590 267 678 301 q 389 232 503 232 l 308 232 l 308 69 l 418 28 l 418 0 l 90 0 m 411 679 l 308 679 l 308 297 l 421 297 q 596 349 531 297 q 661 485 661 401 q 595 633 661 588 q 411 679 529 679 z "},"Ǆ":{"ha":1913,"x_min":90,"x_max":1788,"o":"m 90 0 l 90 28 l 201 69 l 201 847 l 90 889 l 90 917 l 463 917 q 724 863 617 917 q 888 714 832 808 q 944 500 944 619 q 882 239 944 351 q 708 63 819 126 q 453 0 597 0 l 90 0 m 449 851 l 310 851 l 310 65 l 464 65 q 658 115 575 65 q 785 252 740 164 q 831 457 831 340 q 786 665 831 576 q 656 803 742 754 q 449 851 571 851 m 1151 0 l 1151 32 l 1636 851 l 1267 851 l 1193 669 l 1168 669 l 1168 917 l 1772 917 l 1772 885 l 1288 65 l 1689 65 l 1764 261 l 1788 261 l 1788 0 l 1151 0 m 1460 986 l 1281 1197 l 1297 1197 l 1478 1078 l 1658 1197 l 1675 1197 l 1496 986 l 1460 986 z "},"Ǉ":{"ha":1390,"x_min":90,"x_max":1293,"o":"m 90 0 l 90 28 l 200 69 l 200 847 l 90 889 l 90 917 l 433 917 l 433 889 l 308 847 l 308 65 l 661 65 l 744 303 l 768 303 l 768 0 l 90 0 m 929 -240 q 897 -232 911 -240 q 883 -201 883 -224 q 885 -186 883 -199 q 897 -131 888 -174 l 906 -131 q 943 -140 929 -136 q 976 -143 957 -143 q 1028 -128 1007 -143 q 1062 -68 1050 -114 q 1074 71 1074 -22 l 1074 847 l 963 889 l 963 917 l 1293 917 l 1293 889 l 1182 847 l 1182 317 q 1160 37 1182 154 q 1081 -143 1138 -81 q 1017 -206 1040 -186 q 975 -233 994 -226 q 929 -240 956 -240 z "},"Ǌ":{"ha":1626,"x_min":86,"x_max":1529,"o":"m 86 0 l 86 28 l 196 69 l 196 846 l 88 889 l 88 917 l 282 917 l 826 210 l 826 849 l 696 889 l 696 917 l 1015 917 l 1015 889 l 906 847 l 906 -7 l 863 -7 l 276 750 l 276 71 l 410 28 l 410 0 l 86 0 m 1165 -240 q 1133 -232 1147 -240 q 1119 -201 1119 -224 q 1122 -186 1119 -199 q 1133 -131 1124 -174 l 1142 -131 q 1179 -140 1165 -136 q 1213 -143 1193 -143 q 1265 -128 1243 -143 q 1298 -68 1286 -114 q 1310 71 1310 -22 l 1310 847 l 1199 889 l 1199 917 l 1529 917 l 1529 889 l 1418 847 l 1418 317 q 1396 37 1418 154 q 1317 -143 1374 -81 q 1253 -206 1276 -186 q 1211 -233 1231 -226 q 1165 -240 1192 -240 z "},"Ђ":{"ha":1086,"x_min":63,"x_max":983,"o":"m 247 0 l 247 28 l 386 69 l 386 851 l 167 851 l 88 647 l 63 647 l 63 917 l 860 917 l 860 661 l 835 661 l 756 851 l 493 851 l 493 447 q 608 516 542 490 q 747 542 675 542 q 872 517 819 542 q 954 433 925 492 q 983 274 983 375 q 960 28 983 139 q 879 -144 936 -83 q 818 -207 842 -186 q 775 -234 794 -228 q 731 -240 756 -240 q 699 -232 713 -240 q 685 -201 685 -224 q 687 -186 685 -199 q 699 -131 689 -174 l 707 -131 q 744 -140 731 -136 q 778 -143 758 -143 q 831 -128 808 -143 q 865 -63 853 -112 q 878 88 878 -14 l 878 232 q 831 408 878 360 q 681 456 785 456 q 582 440 631 456 q 493 393 533 424 l 493 69 l 632 28 l 632 0 l 247 0 z "},"Є":{"ha":1001,"x_min":97,"x_max":874,"o":"m 551 -14 q 312 44 414 -14 q 153 204 210 103 q 97 433 97 306 q 135 625 97 535 q 238 784 172 715 q 390 892 304 853 q 574 931 476 931 q 690 922 642 931 q 776 897 738 913 q 853 864 814 882 l 858 632 l 832 632 l 760 797 q 663 853 706 835 q 567 872 619 872 q 386 824 465 872 q 258 694 307 776 q 204 506 210 611 l 550 506 l 606 621 l 631 621 l 631 328 l 606 328 l 550 440 l 206 440 q 261 230 213 318 q 387 94 310 142 q 558 46 464 46 q 679 65 629 46 q 768 111 729 85 l 849 269 l 874 269 l 860 54 q 777 18 819 33 q 681 -6 735 3 q 551 -14 628 -14 z "},"Ѕ":{"ha":729,"x_min":83,"x_max":653,"o":"m 361 -14 q 219 2 278 -14 q 97 50 161 18 l 83 272 l 107 272 l 179 113 q 275 58 229 74 q 368 42 321 42 q 501 88 454 42 q 549 214 549 133 q 519 313 549 276 q 437 376 490 349 q 311 440 383 404 q 204 504 247 472 q 138 578 161 536 q 115 682 115 619 q 138 772 115 728 q 198 852 160 817 q 284 909 236 888 q 383 931 332 931 q 499 915 447 931 q 607 872 551 900 l 621 656 l 597 656 l 536 808 q 458 859 493 844 q 376 874 422 874 q 263 830 304 874 q 221 721 221 786 q 241 638 221 672 q 303 576 261 604 q 408 517 344 547 q 546 440 492 476 q 626 358 600 404 q 653 240 653 311 q 626 133 653 181 q 557 53 600 86 q 463 3 514 21 q 361 -14 411 -14 z "},"І":{"ha":522,"x_min":97,"x_max":425,"o":"m 97 0 l 97 28 l 207 69 l 207 847 l 97 889 l 97 917 l 425 917 l 425 889 l 315 847 l 315 69 l 425 28 l 425 0 l 97 0 z "},"Ї":{"ha":522,"x_min":68,"x_max":454,"o":"m 97 0 l 97 28 l 207 69 l 207 847 l 97 889 l 97 917 l 425 917 l 425 889 l 315 847 l 315 69 l 425 28 l 425 0 l 97 0 m 132 1029 q 87 1047 106 1029 q 68 1092 68 1064 q 87 1138 68 1119 q 132 1156 106 1156 q 177 1138 158 1156 q 196 1092 196 1119 q 177 1047 196 1064 q 132 1029 158 1029 m 390 1029 q 345 1047 364 1029 q 326 1092 326 1064 q 345 1138 326 1119 q 390 1156 364 1156 q 435 1138 417 1156 q 454 1092 454 1119 q 435 1047 454 1064 q 390 1029 417 1029 z "},"Ј":{"ha":525,"x_min":18,"x_max":428,"o":"m 64 -240 q 32 -232 46 -240 q 18 -201 18 -224 q 20 -186 18 -199 q 32 -131 22 -174 l 40 -131 q 78 -140 64 -136 q 111 -143 92 -143 q 163 -128 142 -143 q 197 -68 185 -114 q 208 71 208 -22 l 208 847 l 97 889 l 97 917 l 428 917 l 428 889 l 317 847 l 317 317 q 294 37 317 154 q 215 -143 272 -81 q 152 -206 175 -186 q 110 -233 129 -226 q 64 -240 90 -240 z "},"Љ":{"ha":1301,"x_min":47,"x_max":1256,"o":"m 329 783 q 312 385 329 551 q 250 118 294 218 q 176 15 218 44 q 93 -14 133 -14 q 55 -6 63 -14 q 47 26 47 3 l 47 90 l 54 96 l 65 96 q 183 178 142 96 q 241 415 225 261 q 257 782 257 569 l 257 847 l 147 889 l 147 917 l 882 917 l 882 889 l 744 847 l 744 533 l 882 533 q 1156 464 1057 533 q 1256 281 1256 394 q 1211 137 1256 200 q 1083 37 1167 74 q 882 0 999 0 l 526 0 l 526 28 l 636 69 l 636 851 l 329 851 l 329 783 m 874 468 l 744 468 l 744 65 l 882 65 q 1076 122 1013 65 q 1139 267 1139 178 q 1075 420 1139 372 q 874 468 1011 468 z "},"Њ":{"ha":1400,"x_min":90,"x_max":1353,"o":"m 90 0 l 90 28 l 200 69 l 200 847 l 90 889 l 90 917 l 422 917 l 422 889 l 308 847 l 308 519 l 735 519 l 735 847 l 625 889 l 625 917 l 981 917 l 981 889 l 843 847 l 843 519 l 981 519 q 1254 452 1156 519 q 1353 274 1353 385 q 1308 133 1353 194 q 1181 35 1264 71 q 981 0 1097 0 l 625 0 l 625 28 l 735 69 l 735 454 l 308 454 l 308 69 l 422 28 l 422 0 l 90 0 m 972 454 l 843 454 l 843 65 l 981 65 q 1174 120 1111 65 q 1238 260 1238 175 q 1174 408 1238 361 q 972 454 1110 454 z "},"Ћ":{"ha":1131,"x_min":63,"x_max":1093,"o":"m 247 0 l 247 28 l 386 69 l 386 851 l 167 851 l 88 647 l 63 647 l 63 917 l 860 917 l 860 656 l 835 656 l 756 851 l 493 851 l 493 447 q 608 516 542 490 q 743 542 674 542 q 921 484 858 542 q 983 297 983 426 l 983 71 l 1093 28 l 1093 0 l 878 0 l 878 257 q 831 411 878 367 q 681 456 785 456 q 582 440 631 456 q 493 393 533 424 l 493 69 l 632 28 l 632 0 l 247 0 z "},"Џ":{"ha":1068,"x_min":90,"x_max":978,"o":"m 467 0 l 90 0 l 90 28 l 200 69 l 200 847 l 90 889 l 90 917 l 422 917 l 422 889 l 308 847 l 308 65 l 760 65 l 760 847 l 646 889 l 646 917 l 978 917 l 978 889 l 868 847 l 868 69 l 978 28 l 978 0 l 601 0 l 547 -221 l 522 -221 l 467 0 z "},"А":{"ha":1018,"x_min":46,"x_max":972,"o":"m 46 0 l 46 28 l 129 63 l 483 924 l 532 924 l 885 64 l 972 28 l 972 0 l 649 0 l 649 28 l 768 64 l 660 335 l 317 335 l 210 63 l 329 28 l 329 0 l 46 0 m 343 400 l 633 400 l 488 764 l 343 400 z "},"Б":{"ha":896,"x_min":90,"x_max":825,"o":"m 451 0 l 90 0 l 90 28 l 200 69 l 200 847 l 90 889 l 90 917 l 751 917 l 751 658 l 726 658 l 647 851 l 308 851 l 308 532 l 451 532 q 726 463 626 532 q 825 281 825 394 q 781 137 825 200 q 652 37 736 74 q 451 0 568 0 m 443 467 l 308 467 l 308 65 l 451 65 q 645 122 582 65 q 708 265 708 178 q 644 419 708 371 q 443 467 581 467 z "},"В":{"ha":876,"x_min":90,"x_max":804,"o":"m 90 0 l 90 28 l 200 69 l 200 847 l 90 889 l 90 917 l 401 917 q 565 894 492 917 q 682 826 639 871 q 725 711 725 781 q 677 578 725 639 q 540 492 629 518 q 735 417 665 475 q 804 267 804 358 q 756 130 804 190 q 626 35 708 69 q 439 0 544 0 l 90 0 m 386 851 l 308 851 l 308 506 l 394 506 q 551 550 493 506 q 610 675 610 594 q 553 807 610 763 q 386 851 496 851 m 439 440 l 308 440 l 308 64 l 449 64 q 624 117 558 64 q 689 253 689 171 q 623 395 689 350 q 439 440 557 440 z "},"Г":{"ha":819,"x_min":90,"x_max":739,"o":"m 90 0 l 90 28 l 201 69 l 201 847 l 92 889 l 92 917 l 739 917 l 739 683 l 714 683 l 640 851 l 310 851 l 310 69 l 446 28 l 446 0 l 90 0 z "},"Ѓ":{"ha":819,"x_min":90,"x_max":739,"o":"m 90 0 l 90 28 l 201 69 l 201 847 l 92 889 l 92 917 l 739 917 l 739 683 l 714 683 l 640 851 l 310 851 l 310 69 l 446 28 l 446 0 l 90 0 z "},"Ғ":{"ha":819,"x_min":90,"x_max":739,"o":"m 90 0 l 90 28 l 201 69 l 201 444 l 90 444 l 90 506 l 201 506 l 201 847 l 92 889 l 92 917 l 739 917 l 739 683 l 714 683 l 640 851 l 310 851 l 310 506 l 547 506 l 547 444 l 310 444 l 310 69 l 446 28 l 446 0 l 90 0 z "},"Д":{"ha":994,"x_min":32,"x_max":929,"o":"m 138 889 l 138 917 l 900 917 l 900 889 l 790 847 l 790 65 l 929 65 l 929 -221 l 904 -221 l 817 0 l 144 0 l 57 -221 l 32 -221 l 32 65 l 138 65 q 224 394 201 221 q 247 769 247 567 l 247 847 l 138 889 m 683 65 l 683 851 l 321 851 l 321 769 q 299 391 321 561 q 217 65 276 221 l 683 65 z "},"Е":{"ha":882,"x_min":90,"x_max":785,"o":"m 90 0 l 90 28 l 200 69 l 200 847 l 90 889 l 90 917 l 746 917 l 746 683 l 722 683 l 647 851 l 308 851 l 308 506 l 551 506 l 607 621 l 631 621 l 631 328 l 607 328 l 551 440 l 308 440 l 308 65 l 686 65 l 761 247 l 785 247 l 785 0 l 90 0 z "},"Ё":{"ha":882,"x_min":90,"x_max":785,"o":"m 90 0 l 90 28 l 200 69 l 200 847 l 90 889 l 90 917 l 746 917 l 746 683 l 722 683 l 647 851 l 308 851 l 308 506 l 551 506 l 607 621 l 631 621 l 631 328 l 607 328 l 551 440 l 308 440 l 308 65 l 686 65 l 761 247 l 785 247 l 785 0 l 90 0 m 332 1029 q 287 1047 306 1029 q 268 1092 268 1064 q 287 1138 268 1119 q 332 1156 306 1156 q 377 1138 358 1156 q 396 1092 396 1119 q 377 1047 396 1064 q 332 1029 358 1029 m 590 1029 q 545 1047 564 1029 q 526 1092 526 1064 q 545 1138 526 1119 q 590 1156 564 1156 q 635 1138 617 1156 q 654 1092 654 1119 q 635 1047 654 1064 q 590 1029 617 1029 z "},"Ж":{"ha":1392,"x_min":26,"x_max":1365,"o":"m 526 0 l 526 28 l 638 69 l 638 468 l 200 0 l 26 0 l 26 28 l 114 56 l 529 492 l 147 861 l 53 889 l 53 917 l 354 917 l 354 889 l 251 851 l 638 471 l 638 847 l 526 889 l 526 917 l 857 917 l 857 889 l 746 847 l 746 472 l 1131 851 l 1028 889 l 1028 917 l 1321 917 l 1321 889 l 1226 861 l 853 499 l 1279 56 l 1365 28 l 1365 0 l 1182 0 l 746 467 l 746 69 l 857 28 l 857 0 l 526 0 z "},"З":{"ha":876,"x_min":122,"x_max":785,"o":"m 433 931 q 583 906 515 931 q 692 834 651 882 q 732 715 732 786 q 683 576 732 640 q 540 486 633 513 q 721 408 657 468 q 785 260 785 349 q 742 121 785 183 q 621 22 700 58 q 435 -14 542 -14 q 260 6 326 -14 q 136 54 194 25 l 122 269 l 147 269 l 228 110 q 312 68 265 86 q 433 50 358 50 q 611 106 553 50 q 669 249 669 163 q 608 393 669 346 q 432 440 547 440 l 294 440 l 294 506 l 399 506 q 559 554 500 506 q 618 689 618 603 q 570 824 618 775 q 429 872 522 872 q 338 859 381 872 q 254 811 296 846 l 176 635 l 150 635 l 157 865 q 274 912 214 893 q 433 931 335 931 z "},"И":{"ha":1124,"x_min":90,"x_max":1033,"o":"m 90 0 l 90 28 l 200 69 l 200 847 l 90 889 l 90 917 l 422 917 l 422 889 l 308 847 l 308 211 l 815 788 l 815 847 l 701 889 l 701 917 l 1033 917 l 1033 889 l 924 847 l 924 69 l 1033 28 l 1033 0 l 701 0 l 701 28 l 815 69 l 815 699 l 308 122 l 308 69 l 422 28 l 422 0 l 90 0 z "},"Й":{"ha":1124,"x_min":90,"x_max":1033,"o":"m 90 0 l 90 28 l 200 69 l 200 847 l 90 889 l 90 917 l 422 917 l 422 889 l 308 847 l 308 211 l 815 788 l 815 847 l 701 889 l 701 917 l 1033 917 l 1033 889 l 924 847 l 924 69 l 1033 28 l 1033 0 l 701 0 l 701 28 l 815 69 l 815 699 l 308 122 l 308 69 l 422 28 l 422 0 l 90 0 m 564 986 q 395 1047 451 986 q 339 1197 339 1107 l 444 1197 q 472 1078 444 1125 q 564 1032 499 1032 q 656 1078 629 1032 q 683 1197 683 1125 l 789 1197 q 733 1047 789 1107 q 564 986 676 986 z "},"Ӣ":{"ha":1124,"x_min":90,"x_max":1033,"o":"m 90 0 l 90 28 l 200 69 l 200 847 l 90 889 l 90 917 l 422 917 l 422 889 l 308 847 l 308 211 l 815 788 l 815 847 l 701 889 l 701 917 l 1033 917 l 1033 889 l 924 847 l 924 69 l 1033 28 l 1033 0 l 701 0 l 701 28 l 815 69 l 815 699 l 308 122 l 308 69 l 422 28 l 422 0 l 90 0 z "},"К":{"ha":989,"x_min":90,"x_max":957,"o":"m 90 0 l 90 28 l 201 69 l 201 847 l 90 889 l 90 917 l 421 917 l 421 889 l 310 847 l 310 472 l 703 851 l 600 889 l 600 917 l 885 917 l 885 889 l 800 863 l 418 500 l 868 56 l 957 28 l 957 0 l 775 0 l 310 467 l 310 69 l 421 28 l 421 0 l 90 0 z "},"Ќ":{"ha":989,"x_min":90,"x_max":957,"o":"m 90 0 l 90 28 l 201 69 l 201 847 l 90 889 l 90 917 l 421 917 l 421 889 l 310 847 l 310 472 l 703 851 l 600 889 l 600 917 l 885 917 l 885 889 l 800 863 l 418 500 l 868 56 l 957 28 l 957 0 l 775 0 l 310 467 l 310 69 l 421 28 l 421 0 l 90 0 z "},"Л":{"ha":988,"x_min":47,"x_max":897,"o":"m 564 0 l 564 28 l 679 69 l 679 851 l 329 851 l 329 783 q 312 385 329 551 q 250 118 294 218 q 176 15 218 44 q 93 -14 133 -14 q 55 -6 63 -14 q 47 26 47 3 l 47 90 l 54 96 l 65 96 q 183 178 142 96 q 241 415 225 261 q 257 782 257 569 l 257 847 l 147 889 l 147 917 l 897 917 l 897 889 l 786 847 l 786 69 l 897 28 l 897 0 l 564 0 z "},"М":{"ha":1318,"x_min":83,"x_max":1235,"o":"m 83 0 l 83 28 l 193 69 l 222 844 l 103 889 l 103 917 l 343 917 l 669 156 l 1000 917 l 1231 917 l 1231 889 l 1114 846 l 1138 69 l 1235 28 l 1235 0 l 929 0 l 929 28 l 1032 68 l 1017 788 l 672 -7 l 624 -7 l 286 785 l 269 68 l 382 28 l 382 0 l 83 0 z "},"Н":{"ha":1110,"x_min":90,"x_max":1019,"o":"m 90 0 l 90 28 l 200 69 l 200 847 l 90 889 l 90 917 l 422 917 l 422 889 l 308 847 l 308 506 l 801 506 l 801 847 l 688 889 l 688 917 l 1019 917 l 1019 889 l 910 847 l 910 69 l 1019 28 l 1019 0 l 688 0 l 688 28 l 801 69 l 801 440 l 308 440 l 308 69 l 422 28 l 422 0 l 90 0 z "},"О":{"ha":1099,"x_min":97,"x_max":1001,"o":"m 549 -14 q 369 22 451 -14 q 226 120 286 57 q 131 269 165 183 q 97 458 97 356 q 131 647 97 561 q 226 797 165 733 q 369 895 286 860 q 549 931 451 931 q 728 895 646 931 q 872 797 811 860 q 967 647 933 733 q 1001 458 1001 561 q 967 269 1001 356 q 872 120 933 183 q 728 22 811 57 q 549 -14 646 -14 m 578 44 q 739 90 669 44 q 847 219 808 136 q 886 415 886 303 q 838 657 886 554 q 707 817 789 760 q 525 874 625 874 q 363 828 433 874 q 252 700 292 783 q 213 504 213 617 q 261 262 213 365 q 392 101 310 158 q 578 44 475 44 z "},"П":{"ha":1068,"x_min":90,"x_max":978,"o":"m 90 0 l 90 28 l 200 69 l 200 847 l 90 889 l 90 917 l 978 917 l 978 889 l 868 847 l 868 69 l 978 28 l 978 0 l 646 0 l 646 28 l 760 69 l 760 851 l 308 851 l 308 69 l 422 28 l 422 0 l 90 0 z "},"Р":{"ha":851,"x_min":90,"x_max":779,"o":"m 90 0 l 90 28 l 201 69 l 201 847 l 90 889 l 90 917 l 417 917 q 680 857 581 917 q 779 668 779 797 q 729 533 779 592 q 591 439 679 474 q 390 404 503 404 l 310 404 l 310 69 l 435 28 l 435 0 l 90 0 m 310 851 l 310 469 l 422 469 q 597 522 532 469 q 663 657 663 574 q 597 806 663 760 q 413 851 531 851 l 310 851 z "},"С":{"ha":1001,"x_min":97,"x_max":874,"o":"m 551 -14 q 312 44 414 -14 q 153 204 210 103 q 97 433 97 306 q 135 625 97 535 q 238 784 172 715 q 390 892 304 853 q 574 931 476 931 q 690 922 642 931 q 776 897 738 913 q 853 864 814 882 l 858 632 l 832 632 l 760 797 q 663 853 706 835 q 567 872 619 872 q 380 821 461 872 q 251 681 299 769 q 204 481 204 592 q 251 249 204 347 q 378 99 299 151 q 558 46 458 46 q 679 65 629 46 q 768 111 729 85 l 849 269 l 874 269 l 860 54 q 777 18 819 33 q 681 -6 735 3 q 551 -14 628 -14 z "},"Т":{"ha":931,"x_min":63,"x_max":868,"o":"m 272 0 l 272 28 l 411 69 l 411 851 l 167 851 l 88 647 l 63 647 l 63 917 l 868 917 l 868 647 l 843 647 l 764 851 l 519 851 l 519 69 l 658 28 l 658 0 l 272 0 z "},"У":{"ha":963,"x_min":49,"x_max":931,"o":"m 460 97 q 374 7 415 28 q 294 -14 333 -14 q 256 -6 264 -14 q 249 26 249 3 l 249 90 l 254 96 l 265 96 q 385 127 342 96 q 461 218 428 158 l 143 850 l 49 889 l 49 917 l 375 917 l 375 889 l 257 851 l 257 846 l 507 344 l 526 344 l 769 849 l 769 853 l 653 889 l 653 917 l 931 917 l 931 889 l 851 857 l 560 265 q 509 171 538 221 q 460 97 481 121 z "},"Ў":{"ha":963,"x_min":49,"x_max":931,"o":"m 460 97 q 374 7 415 28 q 294 -14 333 -14 q 256 -6 264 -14 q 249 26 249 3 l 249 90 l 254 96 l 265 96 q 385 127 342 96 q 461 218 428 158 l 143 850 l 49 889 l 49 917 l 375 917 l 375 889 l 257 851 l 257 846 l 507 344 l 526 344 l 769 849 l 769 853 l 653 889 l 653 917 l 931 917 l 931 889 l 851 857 l 560 265 q 509 171 538 221 q 460 97 481 121 m 514 986 q 345 1047 401 986 q 289 1197 289 1107 l 394 1197 q 422 1078 394 1125 q 514 1032 449 1032 q 606 1078 579 1032 q 633 1197 633 1125 l 739 1197 q 683 1047 739 1107 q 514 986 626 986 z "},"Ӯ":{"ha":963,"x_min":49,"x_max":931,"o":"m 460 97 q 374 7 415 28 q 294 -14 333 -14 q 256 -6 264 -14 q 249 26 249 3 l 249 90 l 254 96 l 265 96 q 385 127 342 96 q 461 218 428 158 l 143 850 l 49 889 l 49 917 l 375 917 l 375 889 l 257 851 l 257 846 l 507 344 l 526 344 l 769 849 l 769 853 l 653 889 l 653 917 l 931 917 l 931 889 l 851 857 l 560 265 q 509 171 538 221 q 460 97 481 121 z "},"Ф":{"ha":1149,"x_min":47,"x_max":1101,"o":"m 413 -28 l 413 0 l 522 42 l 522 106 q 268 153 375 110 q 104 272 161 197 q 47 444 47 347 q 104 627 47 546 q 268 758 161 708 q 522 811 375 807 l 522 875 l 413 917 l 413 944 l 740 944 l 740 917 l 631 875 l 631 811 q 887 763 782 807 q 1047 644 992 719 q 1101 472 1101 569 q 1047 291 1101 372 q 887 160 992 210 q 631 106 782 111 l 631 42 l 740 0 l 740 -28 l 413 -28 m 522 754 q 254 681 346 754 q 163 490 163 608 q 259 263 163 349 q 522 165 356 178 l 522 754 m 986 429 q 894 655 986 569 q 631 753 801 740 l 631 164 q 900 238 814 164 q 986 429 986 311 z "},"Х":{"ha":1011,"x_min":49,"x_max":963,"o":"m 49 0 l 49 28 l 150 68 l 446 458 l 160 851 l 69 889 l 69 917 l 400 917 l 400 889 l 290 850 l 290 843 l 519 532 l 754 844 l 754 850 l 650 889 l 650 917 l 928 917 l 928 889 l 843 853 l 558 479 l 860 71 l 963 28 l 963 0 l 625 0 l 625 28 l 728 65 l 728 71 l 483 407 l 236 72 l 236 67 l 347 28 l 347 0 l 49 0 z "},"Ц":{"ha":1072,"x_min":90,"x_max":1007,"o":"m 894 0 l 90 0 l 90 28 l 200 69 l 200 847 l 90 889 l 90 917 l 422 917 l 422 889 l 308 847 l 308 65 l 760 65 l 760 847 l 646 889 l 646 917 l 978 917 l 978 889 l 868 847 l 868 65 l 1007 65 l 1007 -221 l 982 -221 l 894 0 z "},"Ч":{"ha":1013,"x_min":36,"x_max":922,"o":"m 579 0 l 579 28 l 704 69 l 704 429 q 599 401 657 414 q 471 389 542 389 q 303 415 375 389 q 190 508 231 442 q 150 694 150 574 l 150 846 l 36 889 l 36 917 l 369 917 l 369 889 l 258 846 l 258 689 q 314 506 258 558 q 503 454 369 454 q 606 462 551 454 q 704 488 660 469 l 704 846 l 589 889 l 589 917 l 922 917 l 922 889 l 813 846 l 813 69 l 922 28 l 922 0 l 579 0 z "},"Ш":{"ha":1469,"x_min":90,"x_max":1379,"o":"m 422 917 l 422 889 l 308 847 l 308 65 l 681 65 l 681 847 l 571 889 l 571 917 l 903 917 l 903 889 l 789 847 l 789 65 l 1161 65 l 1161 847 l 1046 889 l 1046 917 l 1379 917 l 1379 889 l 1268 847 l 1268 69 l 1379 28 l 1379 0 l 90 0 l 90 28 l 200 69 l 200 847 l 90 889 l 90 917 l 422 917 z "},"Щ":{"ha":1472,"x_min":90,"x_max":1407,"o":"m 422 917 l 422 889 l 308 847 l 308 65 l 681 65 l 681 847 l 571 889 l 571 917 l 903 917 l 903 889 l 789 847 l 789 65 l 1161 65 l 1161 847 l 1046 889 l 1046 917 l 1379 917 l 1379 889 l 1268 847 l 1268 65 l 1407 65 l 1407 -221 l 1382 -221 l 1294 0 l 90 0 l 90 28 l 200 69 l 200 847 l 90 889 l 90 917 l 422 917 z "},"Ъ":{"ha":994,"x_min":46,"x_max":947,"o":"m 575 0 l 219 0 l 219 28 l 329 69 l 329 851 l 150 851 l 71 647 l 46 647 l 46 917 l 575 917 l 575 889 l 438 847 l 438 533 l 575 533 q 849 464 750 533 q 947 281 947 394 q 903 137 947 200 q 775 37 858 74 q 575 0 692 0 m 567 468 l 438 468 l 438 65 l 575 65 q 769 122 706 65 q 832 267 832 178 q 768 420 832 372 q 567 468 704 468 z "},"Ы":{"ha":1388,"x_min":90,"x_max":1290,"o":"m 446 0 l 90 0 l 90 28 l 200 69 l 200 847 l 90 889 l 90 917 l 446 917 l 446 889 l 308 847 l 308 533 l 446 533 q 719 464 621 533 q 818 281 818 394 q 774 137 818 200 q 646 37 729 74 q 446 0 563 0 m 438 468 l 308 468 l 308 65 l 446 65 q 640 122 576 65 q 703 267 703 178 q 639 420 703 372 q 438 468 575 468 m 963 0 l 963 28 l 1072 69 l 1072 847 l 963 889 l 963 917 l 1290 917 l 1290 889 l 1181 847 l 1181 69 l 1290 28 l 1290 0 l 963 0 z "},"Ь":{"ha":865,"x_min":90,"x_max":818,"o":"m 446 0 l 90 0 l 90 28 l 200 69 l 200 847 l 90 889 l 90 917 l 446 917 l 446 889 l 308 847 l 308 533 l 446 533 q 719 464 621 533 q 818 281 818 394 q 774 137 818 200 q 646 37 729 74 q 446 0 563 0 m 438 468 l 308 468 l 308 65 l 446 65 q 640 122 576 65 q 703 267 703 178 q 639 420 703 372 q 438 468 575 468 z "},"Э":{"ha":1003,"x_min":122,"x_max":906,"o":"m 467 47 q 635 91 561 47 q 749 217 708 135 q 790 415 790 300 q 790 440 790 428 l 431 440 l 375 328 l 351 328 l 351 621 l 375 621 l 431 506 l 785 506 q 721 700 769 618 q 599 827 672 782 q 435 872 525 872 q 337 859 381 872 q 249 810 293 846 l 171 635 l 144 635 l 151 865 q 277 912 208 893 q 449 931 346 931 q 686 869 583 931 q 847 701 789 808 q 906 458 906 594 q 849 213 906 319 q 691 47 793 107 q 451 -14 589 -14 q 319 -6 375 -14 q 221 18 264 3 q 136 54 178 33 l 122 269 l 147 269 l 226 111 q 326 66 269 85 q 467 47 382 47 z "},"Ю":{"ha":1460,"x_min":90,"x_max":1363,"o":"m 90 0 l 90 28 l 200 69 l 200 847 l 90 889 l 90 917 l 422 917 l 422 889 l 308 847 l 308 506 l 488 506 q 557 725 499 629 q 710 876 615 821 q 924 931 806 931 q 1098 895 1018 931 q 1238 797 1178 860 q 1330 647 1297 733 q 1363 458 1363 561 q 1330 269 1363 356 q 1238 120 1297 183 q 1098 22 1178 57 q 924 -14 1018 -14 q 703 45 801 -14 q 548 206 606 104 q 486 440 490 308 l 308 440 l 308 69 l 422 28 l 422 0 l 90 0 m 953 44 q 1106 90 1040 44 q 1210 219 1172 136 q 1247 415 1247 303 q 1201 657 1247 554 q 1076 817 1154 760 q 900 874 997 874 q 745 828 813 874 q 640 700 678 783 q 601 504 601 617 q 649 262 601 365 q 776 101 696 158 q 953 44 856 44 z "},"Я":{"ha":936,"x_min":43,"x_max":846,"o":"m 219 0 l 43 0 l 43 28 l 135 64 l 389 425 q 219 514 278 449 q 161 658 161 579 q 251 851 161 785 q 519 917 340 917 l 846 917 l 846 889 l 735 847 l 735 69 l 846 28 l 846 0 l 519 0 l 519 28 l 628 71 l 628 404 l 492 404 l 219 0 m 506 469 l 628 469 l 628 851 l 515 851 q 338 801 397 851 q 278 661 278 750 q 339 524 278 578 q 506 469 400 469 z "},"Ґ":{"ha":778,"x_min":90,"x_max":739,"o":"m 90 0 l 90 28 l 201 69 l 201 847 l 92 889 l 92 917 l 626 917 l 714 1138 l 739 1138 l 739 851 l 310 851 l 310 69 l 446 28 l 446 0 l 90 0 z "},"Қ":{"ha":990,"x_min":90,"x_max":981,"o":"m 90 0 l 90 28 l 201 69 l 201 847 l 90 889 l 90 917 l 421 917 l 421 889 l 310 847 l 310 472 l 703 851 l 600 889 l 600 917 l 885 917 l 885 889 l 800 863 l 418 500 l 860 65 l 981 65 l 981 -221 l 956 -221 l 868 0 l 775 0 l 310 467 l 310 69 l 421 28 l 421 0 l 90 0 z "},"Җ":{"ha":1399,"x_min":26,"x_max":1389,"o":"m 526 0 l 526 28 l 638 69 l 638 468 l 200 0 l 26 0 l 26 28 l 113 56 l 529 492 l 147 861 l 53 889 l 53 917 l 354 917 l 354 889 l 251 851 l 638 471 l 638 847 l 526 889 l 526 917 l 857 917 l 857 889 l 746 847 l 746 472 l 1131 851 l 1028 889 l 1028 917 l 1321 917 l 1321 889 l 1226 861 l 853 499 l 1269 65 l 1389 65 l 1389 -221 l 1364 -221 l 1276 0 l 1182 0 l 746 467 l 746 69 l 857 28 l 857 0 l 526 0 z "},"Ҳ":{"ha":993,"x_min":49,"x_max":983,"o":"m 49 0 l 49 28 l 150 68 l 446 458 l 160 851 l 69 889 l 69 917 l 400 917 l 400 889 l 290 850 l 290 843 l 519 532 l 754 844 l 754 850 l 650 889 l 650 917 l 928 917 l 928 889 l 843 853 l 558 479 l 863 65 l 983 65 l 983 -221 l 958 -221 l 871 0 l 625 0 l 625 28 l 728 65 l 728 71 l 483 407 l 236 72 l 236 67 l 347 28 l 347 0 l 49 0 z "},"Ң":{"ha":1114,"x_min":90,"x_max":1049,"o":"m 90 0 l 90 28 l 200 69 l 200 847 l 90 889 l 90 917 l 422 917 l 422 889 l 308 847 l 308 506 l 801 506 l 801 847 l 688 889 l 688 917 l 1019 917 l 1019 889 l 910 847 l 910 65 l 1049 65 l 1049 -221 l 1024 -221 l 936 0 l 688 0 l 688 28 l 801 69 l 801 440 l 308 440 l 308 69 l 422 28 l 422 0 l 90 0 z "},"Ҷ":{"ha":1015,"x_min":36,"x_max":950,"o":"m 150 694 l 150 846 l 36 889 l 36 917 l 369 917 l 369 889 l 258 846 l 258 689 q 314 506 258 558 q 503 454 369 454 q 606 462 551 454 q 704 488 660 469 l 704 846 l 589 889 l 589 917 l 922 917 l 922 889 l 813 846 l 813 65 l 950 65 l 950 -221 l 926 -221 l 838 0 l 579 0 l 579 28 l 704 69 l 704 429 q 599 401 657 414 q 467 389 540 389 q 301 414 372 389 q 190 505 229 439 q 150 694 150 571 z "},"Ү":{"ha":981,"x_min":49,"x_max":932,"o":"m 317 0 l 317 28 l 442 69 l 442 432 l 135 853 l 49 889 l 49 917 l 365 917 l 365 889 l 268 853 l 268 847 l 522 494 l 753 846 l 753 851 l 651 889 l 651 917 l 932 917 l 932 889 l 844 856 l 550 429 l 550 69 l 675 28 l 675 0 l 317 0 z "},"Ұ":{"ha":981,"x_min":49,"x_max":932,"o":"m 317 0 l 317 28 l 442 69 l 442 371 l 244 371 l 244 432 l 442 432 l 135 853 l 49 889 l 49 917 l 365 917 l 365 889 l 268 853 l 268 847 l 522 494 l 753 846 l 753 851 l 651 889 l 651 917 l 932 917 l 932 889 l 844 856 l 551 432 l 746 432 l 746 371 l 550 371 l 550 69 l 675 28 l 675 0 l 317 0 z "},"Һ":{"ha":1013,"x_min":90,"x_max":976,"o":"m 433 917 l 433 889 l 308 847 l 308 488 q 413 515 356 503 q 542 528 471 528 q 710 501 638 528 q 822 409 782 475 q 863 222 863 343 l 863 71 l 976 28 l 976 0 l 643 0 l 643 28 l 754 71 l 754 228 q 699 410 754 358 q 510 463 643 463 q 407 455 461 463 q 308 429 353 447 l 308 71 l 424 28 l 424 0 l 90 0 l 90 28 l 200 71 l 200 847 l 90 889 l 90 917 l 433 917 z "},"Ӏ":{"ha":522,"x_min":97,"x_max":425,"o":"m 97 0 l 97 28 l 207 69 l 207 847 l 97 889 l 97 917 l 425 917 l 425 889 l 315 847 l 315 69 l 425 28 l 425 0 l 97 0 z "},"Ә":{"ha":963,"x_min":97,"x_max":865,"o":"m 450 -14 q 196 97 290 -14 q 99 407 101 207 l 107 415 l 753 415 q 753 446 753 431 q 667 728 753 622 q 407 833 582 833 q 240 802 314 833 q 104 724 165 771 l 97 724 l 97 743 q 233 878 144 825 q 439 931 321 931 q 670 874 575 931 q 815 719 765 818 q 865 490 865 619 q 834 290 865 382 q 746 130 803 199 q 613 24 689 61 q 450 -14 538 -14 m 467 49 q 655 128 581 49 q 747 356 729 207 l 206 356 q 286 134 221 219 q 467 49 351 49 z "},"Ө":{"ha":1099,"x_min":97,"x_max":1001,"o":"m 549 -14 q 369 22 451 -14 q 226 120 286 57 q 131 269 165 183 q 97 458 97 356 q 131 647 97 561 q 226 797 165 733 q 369 895 286 860 q 549 931 451 931 q 728 895 646 931 q 872 797 811 860 q 967 647 933 733 q 1001 458 1001 561 q 967 269 1001 356 q 872 120 933 183 q 728 22 811 57 q 549 -14 646 -14 m 213 504 l 881 504 q 815 701 865 618 q 690 828 765 783 q 525 874 614 874 q 363 828 433 874 q 252 700 292 783 q 213 504 213 617 m 578 44 q 739 90 669 44 q 847 219 808 136 q 886 415 886 303 q 886 443 886 429 l 215 443 q 276 232 226 321 q 405 94 326 143 q 578 44 483 44 z "},"Ѣ":{"ha":985,"x_min":40,"x_max":938,"o":"m 565 0 l 210 0 l 210 28 l 319 69 l 319 693 l 144 693 l 65 539 l 40 539 l 40 758 l 319 758 l 319 847 l 210 889 l 210 917 l 538 917 l 538 889 l 428 847 l 428 758 l 743 758 l 743 539 l 718 539 l 639 693 l 428 693 l 428 483 l 565 483 q 839 422 740 483 q 938 256 938 360 q 893 124 938 182 q 765 33 849 67 q 565 0 682 0 m 557 418 l 428 418 l 428 65 l 565 65 q 759 115 696 65 q 822 242 822 164 q 758 376 822 333 q 557 418 694 418 z "},"Ѳ":{"ha":1099,"x_min":97,"x_max":1001,"o":"m 549 -14 q 369 22 451 -14 q 226 120 286 57 q 131 269 165 183 q 97 458 97 356 q 131 647 97 561 q 226 797 165 733 q 369 895 286 860 q 549 931 451 931 q 728 895 646 931 q 872 797 811 860 q 967 647 933 733 q 1001 458 1001 561 q 967 269 1001 356 q 872 120 933 183 q 728 22 811 57 q 549 -14 646 -14 m 213 504 q 213 475 213 489 q 361 526 285 518 q 514 522 438 533 q 660 496 590 511 q 786 476 729 481 q 882 492 843 471 q 818 694 868 608 q 692 827 768 781 q 525 874 617 874 q 363 828 433 874 q 252 700 292 783 q 213 504 213 617 m 578 44 q 739 90 669 44 q 847 219 808 136 q 886 415 886 303 q 886 446 886 431 q 754 397 824 404 q 612 402 685 390 q 468 430 539 414 q 333 451 397 446 q 217 432 268 456 q 280 226 229 313 q 408 92 331 139 q 578 44 485 44 z "},"Ѵ":{"ha":1001,"x_min":49,"x_max":996,"o":"m 719 664 q 771 781 747 733 q 818 858 794 828 q 890 918 857 906 q 950 931 922 931 q 988 922 981 931 q 996 890 996 914 l 996 826 l 989 821 l 978 821 q 895 805 926 821 q 843 757 864 789 q 803 679 822 725 l 525 -7 l 485 -7 l 140 851 l 49 889 l 49 917 l 375 917 l 375 889 l 257 851 l 257 846 l 522 172 l 531 172 l 719 664 z "},"ȷ":{"ha":415,"x_min":78,"x_max":263,"o":"m 263 0 q 248 -128 263 -69 q 194 -235 233 -187 q 81 -319 156 -282 l 81 -297 q 135 -227 117 -264 q 161 -138 154 -190 q 168 -8 168 -86 l 168 518 l 78 572 l 78 586 l 251 639 l 263 639 l 263 0 z "},"ĸ":{"ha":758,"x_min":69,"x_max":719,"o":"m 72 0 l 72 22 l 160 57 l 160 518 l 69 572 l 69 586 l 243 639 l 254 639 l 254 351 l 489 554 l 489 563 l 421 603 l 421 625 l 668 625 l 668 603 l 579 564 l 339 376 l 631 60 l 719 22 l 719 0 l 550 0 l 504 63 l 254 336 l 254 56 l 353 22 l 353 0 l 72 0 z "},"ẗ":{"ha":478,"x_min":14,"x_max":436,"o":"m 283 -14 q 183 22 224 -14 q 142 124 142 58 l 142 567 l 25 567 l 25 578 l 149 625 l 225 778 l 236 778 l 236 625 l 419 625 l 419 567 l 236 567 l 236 139 q 265 81 236 100 q 339 63 294 63 q 390 67 367 63 q 433 79 414 72 l 436 78 l 436 68 q 384 13 422 40 q 283 -14 346 -14 m 78 932 q 33 951 51 932 q 14 996 14 969 q 33 1041 14 1022 q 78 1060 51 1060 q 123 1041 104 1060 q 142 996 142 1022 q 123 951 142 969 q 78 932 104 932 m 336 932 q 291 951 310 932 q 272 996 272 969 q 291 1041 272 1022 q 336 1060 310 1060 q 381 1041 363 1060 q 400 996 400 1022 q 381 951 400 969 q 336 932 363 932 z "},"a":{"ha":897,"x_min":46,"x_max":851,"o":"m 46 0 l 46 28 l 114 54 l 422 785 l 468 785 l 774 58 l 851 28 l 851 0 l 567 0 l 567 28 l 667 57 l 574 281 l 279 281 l 188 56 l 292 28 l 292 0 l 46 0 m 303 339 l 550 339 l 425 640 l 303 339 z "},"b":{"ha":783,"x_min":90,"x_max":711,"o":"m 90 0 l 90 28 l 186 63 l 186 715 l 90 750 l 90 778 l 347 778 q 560 733 482 778 q 639 601 639 689 q 598 485 639 536 q 483 414 557 435 q 651 350 590 400 q 711 225 711 300 q 670 110 711 161 q 556 29 629 58 q 389 0 483 0 l 90 0 m 340 718 l 286 718 l 286 432 l 346 432 q 484 467 431 432 q 538 576 538 503 q 486 682 538 646 q 340 718 435 718 m 388 374 l 286 374 l 286 60 l 396 60 q 548 99 489 60 q 607 215 607 139 q 548 338 607 301 q 388 374 489 374 z "},"c":{"ha":907,"x_min":97,"x_max":779,"o":"m 506 -14 q 294 35 386 -14 q 150 172 203 85 q 97 369 97 258 q 131 538 97 461 q 223 672 164 615 q 358 761 282 729 q 519 793 433 793 q 659 776 607 793 q 761 735 711 758 l 765 546 l 742 546 l 676 681 q 597 720 636 708 q 514 732 558 732 q 348 688 419 732 q 236 569 276 644 q 196 404 196 494 q 236 211 196 292 q 349 88 276 131 q 518 44 422 44 q 672 81 611 44 l 754 225 l 779 225 l 768 46 q 657 3 717 19 q 506 -14 597 -14 z "},"d":{"ha":928,"x_min":90,"x_max":831,"o":"m 90 0 l 90 28 l 189 63 l 189 715 l 90 750 l 90 778 l 404 778 q 635 733 540 778 q 781 608 731 688 q 831 424 831 528 q 778 199 831 294 q 628 52 725 104 q 396 0 531 0 l 90 0 m 396 718 l 289 718 l 289 60 l 403 60 q 578 101 506 60 q 688 218 650 143 q 726 392 726 293 q 641 632 726 546 q 396 718 556 718 z "},"e":{"ha":794,"x_min":90,"x_max":697,"o":"m 90 0 l 90 28 l 188 63 l 188 715 l 90 750 l 90 778 l 664 778 l 664 583 l 639 583 l 581 718 l 288 718 l 288 432 l 501 432 l 538 528 l 561 528 l 561 279 l 538 279 l 501 374 l 288 374 l 288 60 l 613 60 l 674 213 l 697 213 l 697 0 l 90 0 z "},"f":{"ha":761,"x_min":90,"x_max":664,"o":"m 90 0 l 90 28 l 189 63 l 189 715 l 92 750 l 92 778 l 664 778 l 664 583 l 638 583 l 582 717 l 289 717 l 289 432 l 503 432 l 538 528 l 561 528 l 561 279 l 538 279 l 503 374 l 289 374 l 289 63 l 403 28 l 403 0 l 90 0 z "},"g":{"ha":939,"x_min":97,"x_max":869,"o":"m 500 -14 q 292 35 383 -14 q 149 170 201 85 q 97 367 97 256 q 130 535 97 458 q 221 670 163 613 q 355 760 279 728 q 518 792 431 792 q 667 776 611 792 q 772 735 722 760 l 779 544 l 756 544 l 692 674 q 601 723 640 708 q 514 738 563 738 q 344 695 417 738 q 230 581 271 653 q 189 419 189 508 q 233 218 189 301 q 353 90 278 135 q 521 46 429 46 q 604 52 564 46 q 689 76 644 58 l 689 279 l 578 317 l 578 343 l 869 343 l 869 317 l 782 278 l 782 79 q 651 11 731 36 q 500 -14 572 -14 z "},"h":{"ha":1004,"x_min":90,"x_max":914,"o":"m 90 0 l 90 28 l 188 63 l 188 715 l 90 750 l 90 778 l 390 778 l 390 750 l 288 715 l 288 432 l 719 432 l 719 715 l 615 750 l 615 778 l 914 778 l 914 750 l 818 715 l 818 63 l 914 28 l 914 0 l 615 0 l 615 28 l 719 63 l 719 372 l 288 372 l 288 63 l 390 28 l 390 0 l 90 0 z "},"i":{"ha":479,"x_min":97,"x_max":382,"o":"m 97 0 l 97 28 l 189 63 l 189 715 l 97 750 l 97 778 l 382 778 l 382 750 l 289 715 l 289 63 l 382 28 l 382 0 l 97 0 z "},"ı":{"ha":479,"x_min":97,"x_max":382,"o":"m 97 0 l 97 28 l 189 63 l 189 715 l 97 750 l 97 778 l 382 778 l 382 750 l 289 715 l 289 63 l 382 28 l 382 0 l 97 0 z "},"j":{"ha":472,"x_min":18,"x_max":375,"o":"m 60 -204 q 31 -197 44 -204 q 18 -168 18 -189 q 22 -151 18 -167 q 31 -107 25 -136 l 38 -107 q 69 -115 57 -112 q 96 -118 81 -118 q 141 -105 122 -118 q 169 -51 160 -92 q 179 67 179 -11 l 179 715 l 85 751 l 85 778 l 375 778 l 375 751 l 279 715 l 279 256 q 255 18 279 111 q 188 -122 231 -75 q 118 -188 142 -172 q 60 -204 94 -204 z "},"k":{"ha":906,"x_min":90,"x_max":857,"o":"m 90 0 l 90 28 l 189 63 l 189 715 l 90 750 l 90 778 l 386 778 l 386 750 l 289 715 l 289 400 l 619 719 l 532 750 l 532 778 l 797 778 l 797 750 l 717 725 l 389 422 l 763 56 l 857 28 l 857 0 l 683 0 l 289 394 l 289 63 l 386 28 l 386 0 l 90 0 z "},"l":{"ha":790,"x_min":90,"x_max":693,"o":"m 90 0 l 90 28 l 186 63 l 186 715 l 90 750 l 90 778 l 397 778 l 397 750 l 286 715 l 286 60 l 599 60 l 668 260 l 693 260 l 693 0 l 90 0 z "},"m":{"ha":1189,"x_min":83,"x_max":1106,"o":"m 83 0 l 83 28 l 181 63 l 207 714 l 101 750 l 101 778 l 328 778 l 601 163 l 882 778 l 1100 778 l 1100 750 l 997 718 l 1018 63 l 1106 28 l 1106 0 l 825 0 l 825 28 l 915 61 l 901 669 l 593 -6 l 561 -6 l 265 668 l 251 61 l 351 28 l 351 0 l 83 0 z "},"n":{"ha":990,"x_min":86,"x_max":904,"o":"m 86 0 l 86 28 l 183 63 l 183 717 l 86 750 l 86 778 l 268 778 l 742 181 l 742 717 l 631 750 l 631 778 l 904 778 l 904 750 l 808 717 l 808 -6 l 764 -6 l 249 636 l 249 67 l 365 28 l 365 0 l 86 0 z "},"o":{"ha":972,"x_min":97,"x_max":875,"o":"m 485 -14 q 286 38 374 -14 q 148 181 199 90 q 97 389 97 272 q 148 597 97 506 q 286 741 199 689 q 485 793 374 793 q 685 741 597 793 q 824 597 774 689 q 875 389 875 506 q 824 181 875 272 q 685 38 774 90 q 485 -14 597 -14 m 510 47 q 702 131 631 47 q 774 354 774 214 q 734 553 774 468 q 625 686 694 639 q 465 733 556 733 q 271 650 344 733 q 197 428 197 567 q 238 228 197 314 q 349 94 278 142 q 510 47 419 47 z "},"p":{"ha":761,"x_min":90,"x_max":689,"o":"m 90 0 l 90 28 l 189 63 l 189 715 l 90 750 l 90 778 l 378 778 q 607 725 525 778 q 689 561 689 672 q 647 442 689 493 q 533 363 606 392 q 364 335 460 335 l 289 335 l 289 63 l 400 28 l 400 0 l 90 0 m 289 718 l 289 394 l 372 394 q 525 438 467 394 q 583 557 583 482 q 524 681 583 643 q 364 718 465 718 l 289 718 z "},"q":{"ha":1003,"x_min":97,"x_max":1003,"o":"m 833 -207 q 722 -193 779 -207 q 592 -136 665 -179 q 414 -8 519 -93 q 249 63 321 8 q 138 201 178 117 q 97 389 97 285 q 148 597 97 506 q 286 741 199 689 q 485 793 374 793 q 685 741 597 793 q 824 597 774 689 q 875 389 875 506 q 835 203 875 286 q 726 66 796 121 q 565 -7 657 11 q 703 -101 646 -68 q 808 -147 761 -133 q 901 -160 854 -160 q 1003 -144 960 -160 l 1003 -169 q 928 -196 972 -185 q 833 -207 885 -207 m 510 47 q 702 131 631 47 q 774 354 774 214 q 734 553 774 468 q 625 686 694 639 q 465 733 556 733 q 271 650 344 733 q 197 428 197 567 q 238 228 197 314 q 349 94 278 142 q 510 47 419 47 z "},"r":{"ha":786,"x_min":90,"x_max":792,"o":"m 90 0 l 90 28 l 189 63 l 189 715 l 90 750 l 90 778 l 371 778 q 574 725 500 778 q 647 583 647 672 q 603 464 647 513 q 485 389 560 415 l 706 58 l 792 28 l 792 0 l 618 0 l 386 361 l 288 361 l 288 64 l 379 28 l 379 0 l 90 0 m 364 718 l 288 718 l 288 421 l 371 421 q 494 461 449 421 q 540 568 540 501 q 494 679 540 640 q 364 718 449 718 z "},"s":{"ha":667,"x_min":83,"x_max":590,"o":"m 329 -14 q 203 0 256 -14 q 96 42 151 14 l 83 228 l 108 228 l 175 92 q 256 52 215 63 q 338 42 296 42 q 501 183 501 42 q 474 264 501 235 q 397 317 447 293 q 275 375 346 342 q 151 458 190 415 q 113 578 113 500 q 146 682 113 633 q 234 761 179 731 q 353 792 289 792 q 454 778 408 792 q 547 740 500 764 l 558 561 l 533 561 l 479 688 q 419 724 449 713 q 353 736 390 736 q 241 699 281 736 q 201 606 201 663 q 220 538 201 565 q 277 488 239 511 q 375 436 315 465 q 499 369 451 400 q 568 299 546 338 q 590 200 590 260 q 555 90 590 138 q 460 14 519 42 q 329 -14 401 -14 z "},"t":{"ha":839,"x_min":63,"x_max":776,"o":"m 246 0 l 246 28 l 368 63 l 368 718 l 149 718 l 88 553 l 63 553 l 63 778 l 776 778 l 776 553 l 751 553 l 689 718 l 468 718 l 468 63 l 592 28 l 592 0 l 246 0 z "},"u":{"ha":999,"x_min":90,"x_max":908,"o":"m 503 -14 q 342 17 413 -14 q 230 115 271 47 q 189 290 189 182 l 189 715 l 90 750 l 90 778 l 388 778 l 388 750 l 289 715 l 289 303 q 351 106 289 161 q 522 50 414 50 q 634 74 583 50 q 715 148 685 99 q 744 274 744 197 l 744 718 l 626 750 l 626 778 l 908 778 l 908 750 l 811 717 l 811 290 q 771 115 811 182 q 661 17 731 47 q 503 -14 592 -14 z "},"v":{"ha":881,"x_min":49,"x_max":832,"o":"m 424 -7 l 126 721 l 49 750 l 49 778 l 336 778 l 336 750 l 238 721 l 238 715 l 461 154 l 468 154 l 690 717 l 690 722 l 588 750 l 588 778 l 832 778 l 832 750 l 764 722 l 464 -7 l 424 -7 z "},"w":{"ha":1197,"x_min":21,"x_max":1176,"o":"m 332 -6 l 111 719 l 21 750 l 21 778 l 324 778 l 324 750 l 219 718 l 376 188 l 383 188 l 606 783 l 647 783 l 865 186 l 871 186 l 1021 717 l 917 750 l 917 778 l 1176 778 l 1176 750 l 1094 718 l 876 -6 l 832 -6 l 610 590 l 601 590 l 376 -6 l 332 -6 z "},"x":{"ha":917,"x_min":49,"x_max":868,"o":"m 49 0 l 49 28 l 144 61 l 400 394 l 158 719 l 68 750 l 68 778 l 375 778 l 375 750 l 279 717 l 279 711 l 471 456 l 663 711 l 663 717 l 572 750 l 572 778 l 832 778 l 832 750 l 749 721 l 507 408 l 765 63 l 868 28 l 868 0 l 557 0 l 557 28 l 646 58 l 646 64 l 436 346 l 229 65 l 229 61 l 326 28 l 326 0 l 49 0 z "},"y":{"ha":874,"x_min":49,"x_max":825,"o":"m 283 0 l 283 28 l 392 63 l 392 369 l 138 717 l 49 750 l 49 778 l 336 778 l 336 750 l 254 719 l 254 714 l 465 429 l 656 713 l 656 717 l 569 750 l 569 778 l 825 778 l 825 750 l 739 718 l 492 365 l 492 63 l 600 28 l 600 0 l 283 0 z "},"z":{"ha":821,"x_min":125,"x_max":696,"o":"m 125 0 l 125 26 l 550 718 l 222 718 l 164 565 l 139 565 l 139 778 l 682 778 l 682 751 l 256 60 l 611 60 l 671 225 l 696 225 l 696 0 l 125 0 z "},"à":{"ha":897,"x_min":46,"x_max":851,"o":"m 46 0 l 46 28 l 114 54 l 422 785 l 468 785 l 774 58 l 851 28 l 851 0 l 567 0 l 567 28 l 667 57 l 574 281 l 279 281 l 188 56 l 292 28 l 292 0 l 46 0 m 303 339 l 550 339 l 425 640 l 303 339 m 436 882 l 281 1040 q 244 1088 254 1068 q 235 1128 235 1107 l 329 1128 l 453 882 l 436 882 z "},"á":{"ha":897,"x_min":46,"x_max":851,"o":"m 46 0 l 46 28 l 114 54 l 422 785 l 468 785 l 774 58 l 851 28 l 851 0 l 567 0 l 567 28 l 667 57 l 574 281 l 279 281 l 188 56 l 292 28 l 292 0 l 46 0 m 303 339 l 550 339 l 425 640 l 303 339 m 440 882 l 565 1128 l 658 1128 q 649 1088 658 1107 q 613 1040 639 1068 l 457 882 l 440 882 z "},"â":{"ha":897,"x_min":46,"x_max":851,"o":"m 46 0 l 46 28 l 114 54 l 422 785 l 468 785 l 774 58 l 851 28 l 851 0 l 567 0 l 567 28 l 667 57 l 574 281 l 279 281 l 188 56 l 292 28 l 292 0 l 46 0 m 303 339 l 550 339 l 425 640 l 303 339 m 247 882 l 426 1128 l 463 1128 l 642 882 l 625 882 l 444 1029 l 264 882 l 247 882 z "},"ã":{"ha":897,"x_min":46,"x_max":851,"o":"m 46 0 l 46 28 l 114 54 l 422 785 l 468 785 l 774 58 l 851 28 l 851 0 l 567 0 l 567 28 l 667 57 l 574 281 l 279 281 l 188 56 l 292 28 l 292 0 l 46 0 m 303 339 l 550 339 l 425 640 l 303 339 m 240 918 q 281 1028 263 990 q 320 1078 300 1065 q 365 1090 340 1090 q 415 1075 392 1090 q 460 1040 439 1060 q 501 1004 481 1019 q 544 989 522 989 q 590 1012 571 989 q 631 1090 608 1035 l 649 1090 q 608 981 626 1018 q 569 931 589 943 q 524 918 549 918 q 474 933 497 918 q 429 969 450 949 q 388 1004 408 989 q 344 1019 367 1019 q 299 997 318 1019 q 258 918 281 974 l 240 918 z "},"ä":{"ha":897,"x_min":46,"x_max":851,"o":"m 46 0 l 46 28 l 114 54 l 422 785 l 468 785 l 774 58 l 851 28 l 851 0 l 567 0 l 567 28 l 667 57 l 574 281 l 279 281 l 188 56 l 292 28 l 292 0 l 46 0 m 303 339 l 550 339 l 425 640 l 303 339 m 315 939 q 270 958 289 939 q 251 1003 251 976 q 270 1048 251 1029 q 315 1067 289 1067 q 360 1048 342 1067 q 379 1003 379 1029 q 360 958 379 976 q 315 939 342 939 m 574 939 q 528 958 547 939 q 510 1003 510 976 q 528 1048 510 1029 q 574 1067 547 1067 q 619 1048 600 1067 q 638 1003 638 1029 q 619 958 638 976 q 574 939 600 939 z "},"ā":{"ha":897,"x_min":46,"x_max":851,"o":"m 46 0 l 46 28 l 114 54 l 422 785 l 468 785 l 774 58 l 851 28 l 851 0 l 567 0 l 567 28 l 667 57 l 574 281 l 279 281 l 188 56 l 292 28 l 292 0 l 46 0 m 303 339 l 550 339 l 425 640 l 303 339 m 263 972 l 263 1033 l 626 1033 l 626 972 l 263 972 z "},"ă":{"ha":897,"x_min":46,"x_max":851,"o":"m 46 0 l 46 28 l 114 54 l 422 785 l 468 785 l 774 58 l 851 28 l 851 0 l 567 0 l 567 28 l 667 57 l 574 281 l 279 281 l 188 56 l 292 28 l 292 0 l 46 0 m 303 339 l 550 339 l 425 640 l 303 339 m 444 896 q 317 953 358 896 q 247 1128 275 1011 l 264 1128 q 318 1029 292 1063 q 375 985 344 996 q 444 975 406 975 q 514 985 483 975 q 571 1029 544 996 q 625 1128 597 1063 l 642 1128 q 572 953 614 1011 q 444 896 531 896 z "},"å":{"ha":897,"x_min":46,"x_max":851,"o":"m 46 0 l 46 28 l 114 54 l 422 785 l 468 785 l 774 58 l 851 28 l 851 0 l 567 0 l 567 28 l 667 57 l 574 281 l 279 281 l 188 56 l 292 28 l 292 0 l 46 0 m 303 339 l 550 339 l 425 640 l 303 339 m 444 1118 q 530 1085 497 1118 q 563 1004 563 1051 q 530 923 563 956 q 444 890 497 890 q 359 923 392 890 q 326 1004 326 956 q 359 1085 326 1051 q 444 1118 392 1118 m 439 1088 q 404 1071 417 1088 q 392 1014 392 1054 q 451 921 392 921 q 487 939 474 921 q 500 994 500 957 q 483 1064 500 1040 q 439 1088 467 1088 z "},"ǻ":{"ha":897,"x_min":46,"x_max":851,"o":"m 46 0 l 46 28 l 114 54 l 422 785 l 468 785 l 774 58 l 851 28 l 851 0 l 567 0 l 567 28 l 667 57 l 574 281 l 279 281 l 188 56 l 292 28 l 292 0 l 46 0 m 303 339 l 550 339 l 425 640 l 303 339 m 444 1118 q 530 1085 497 1118 q 563 1004 563 1051 q 530 923 563 956 q 444 890 497 890 q 359 923 392 890 q 326 1004 326 956 q 359 1085 326 1051 q 444 1118 392 1118 m 439 1088 q 404 1071 417 1088 q 392 1014 392 1054 q 451 921 392 921 q 487 939 474 921 q 500 994 500 957 q 483 1064 500 1040 q 439 1088 467 1088 m 440 1192 l 565 1438 l 658 1438 q 649 1397 658 1417 q 613 1350 639 1378 l 457 1192 l 440 1192 z "},"ạ":{"ha":897,"x_min":46,"x_max":851,"o":"m 46 0 l 46 28 l 114 54 l 422 785 l 468 785 l 774 58 l 851 28 l 851 0 l 567 0 l 567 28 l 667 57 l 574 281 l 279 281 l 188 56 l 292 28 l 292 0 l 46 0 m 303 339 l 550 339 l 425 640 l 303 339 m 439 -282 q 389 -261 410 -282 q 368 -211 368 -240 q 389 -161 368 -182 q 439 -140 410 -140 q 489 -161 468 -140 q 510 -211 510 -182 q 489 -261 510 -240 q 439 -282 468 -282 z "},"ą":{"ha":897,"x_min":46,"x_max":851,"o":"m 46 0 l 46 28 l 114 54 l 422 785 l 468 785 l 774 58 l 851 28 l 851 0 l 750 0 q 691 -101 710 -54 q 672 -192 672 -149 q 696 -261 672 -239 q 761 -283 719 -283 q 799 -278 781 -283 q 838 -261 818 -274 l 842 -261 l 842 -278 q 796 -318 825 -303 q 728 -333 767 -333 q 635 -302 672 -333 q 597 -215 597 -271 q 631 -109 597 -161 q 718 0 664 -57 l 567 0 l 567 28 l 665 57 l 574 281 l 279 281 l 188 56 l 292 28 l 292 0 l 46 0 m 303 339 l 549 339 l 425 640 l 303 339 z "},"ȁ":{"ha":897,"x_min":46,"x_max":851,"o":"m 46 0 l 46 28 l 114 54 l 422 785 l 468 785 l 774 58 l 851 28 l 851 0 l 567 0 l 567 28 l 667 57 l 574 281 l 279 281 l 188 56 l 292 28 l 292 0 l 46 0 m 303 339 l 550 339 l 425 640 l 303 339 m 357 882 l 232 1040 q 210 1086 213 1065 q 215 1128 208 1107 l 289 1128 l 375 882 l 357 882 m 515 882 l 397 1040 q 376 1087 379 1067 q 381 1128 374 1107 l 454 1128 l 532 882 l 515 882 z "},"ȃ":{"ha":897,"x_min":46,"x_max":851,"o":"m 46 0 l 46 28 l 114 54 l 422 785 l 468 785 l 774 58 l 851 28 l 851 0 l 567 0 l 567 28 l 667 57 l 574 281 l 279 281 l 188 56 l 292 28 l 292 0 l 46 0 m 303 339 l 550 339 l 425 640 l 303 339 m 247 896 q 317 1070 275 1013 q 444 1128 358 1128 q 572 1070 531 1128 q 642 896 614 1013 l 625 896 q 571 995 597 963 q 514 1038 544 1028 q 444 1049 483 1049 q 375 1038 406 1049 q 318 995 344 1028 q 264 896 292 963 l 247 896 z "},"ắ":{"ha":897,"x_min":46,"x_max":851,"o":"m 46 0 l 46 28 l 114 54 l 422 785 l 468 785 l 774 58 l 851 28 l 851 0 l 567 0 l 567 28 l 667 57 l 574 281 l 279 281 l 188 56 l 292 28 l 292 0 l 46 0 m 303 339 l 550 339 l 425 640 l 303 339 z "},"ặ":{"ha":897,"x_min":46,"x_max":851,"o":"m 46 0 l 46 28 l 114 54 l 422 785 l 468 785 l 774 58 l 851 28 l 851 0 l 567 0 l 567 28 l 667 57 l 574 281 l 279 281 l 188 56 l 292 28 l 292 0 l 46 0 m 303 339 l 550 339 l 425 640 l 303 339 m 444 896 q 317 953 358 896 q 247 1128 275 1011 l 264 1128 q 318 1029 292 1063 q 375 985 344 996 q 444 975 406 975 q 514 985 483 975 q 571 1029 544 996 q 625 1128 597 1063 l 642 1128 q 572 953 614 1011 q 444 896 531 896 m 439 -282 q 389 -261 410 -282 q 368 -211 368 -240 q 389 -161 368 -182 q 439 -140 410 -140 q 489 -161 468 -140 q 510 -211 510 -182 q 489 -261 510 -240 q 439 -282 468 -282 z "},"ằ":{"ha":897,"x_min":46,"x_max":851,"o":"m 46 0 l 46 28 l 114 54 l 422 785 l 468 785 l 774 58 l 851 28 l 851 0 l 567 0 l 567 28 l 667 57 l 574 281 l 279 281 l 188 56 l 292 28 l 292 0 l 46 0 m 303 339 l 550 339 l 425 640 l 303 339 z "},"ẳ":{"ha":897,"x_min":46,"x_max":851,"o":"m 46 0 l 46 28 l 114 54 l 422 785 l 468 785 l 774 58 l 851 28 l 851 0 l 567 0 l 567 28 l 667 57 l 574 281 l 279 281 l 188 56 l 292 28 l 292 0 l 46 0 m 303 339 l 550 339 l 425 640 l 303 339 z "},"ẵ":{"ha":897,"x_min":46,"x_max":851,"o":"m 46 0 l 46 28 l 114 54 l 422 785 l 468 785 l 774 58 l 851 28 l 851 0 l 567 0 l 567 28 l 667 57 l 574 281 l 279 281 l 188 56 l 292 28 l 292 0 l 46 0 m 303 339 l 550 339 l 425 640 l 303 339 z "},"ấ":{"ha":897,"x_min":46,"x_max":851,"o":"m 46 0 l 46 28 l 114 54 l 422 785 l 468 785 l 774 58 l 851 28 l 851 0 l 567 0 l 567 28 l 667 57 l 574 281 l 279 281 l 188 56 l 292 28 l 292 0 l 46 0 m 303 339 l 550 339 l 425 640 l 303 339 m 597 1031 l 663 1229 l 753 1229 q 744 1197 753 1211 q 717 1158 736 1182 l 608 1031 l 597 1031 m 247 882 l 426 1128 l 463 1128 l 642 882 l 625 882 l 444 1029 l 264 882 l 247 882 z "},"ậ":{"ha":897,"x_min":46,"x_max":851,"o":"m 46 0 l 46 28 l 114 54 l 422 785 l 468 785 l 774 58 l 851 28 l 851 0 l 567 0 l 567 28 l 667 57 l 574 281 l 279 281 l 188 56 l 292 28 l 292 0 l 46 0 m 303 339 l 550 339 l 425 640 l 303 339 m 247 882 l 426 1128 l 463 1128 l 642 882 l 625 882 l 444 1029 l 264 882 l 247 882 m 439 -282 q 389 -261 410 -282 q 368 -211 368 -240 q 389 -161 368 -182 q 439 -140 410 -140 q 489 -161 468 -140 q 510 -211 510 -182 q 489 -261 510 -240 q 439 -282 468 -282 z "},"ầ":{"ha":897,"x_min":46,"x_max":851,"o":"m 46 0 l 46 28 l 114 54 l 422 785 l 468 785 l 774 58 l 851 28 l 851 0 l 567 0 l 567 28 l 667 57 l 574 281 l 279 281 l 188 56 l 292 28 l 292 0 l 46 0 m 303 339 l 550 339 l 425 640 l 303 339 m 281 1031 l 172 1158 q 144 1197 153 1182 q 136 1229 136 1211 l 226 1229 l 292 1031 l 281 1031 m 247 882 l 426 1128 l 463 1128 l 642 882 l 625 882 l 444 1029 l 264 882 l 247 882 z "},"ẩ":{"ha":897,"x_min":46,"x_max":851,"o":"m 46 0 l 46 28 l 114 54 l 422 785 l 468 785 l 774 58 l 851 28 l 851 0 l 567 0 l 567 28 l 667 57 l 574 281 l 279 281 l 188 56 l 292 28 l 292 0 l 46 0 m 303 339 l 550 339 l 425 640 l 303 339 z "},"ẫ":{"ha":897,"x_min":46,"x_max":851,"o":"m 46 0 l 46 28 l 114 54 l 422 785 l 468 785 l 774 58 l 851 28 l 851 0 l 567 0 l 567 28 l 667 57 l 574 281 l 279 281 l 188 56 l 292 28 l 292 0 l 46 0 m 303 339 l 550 339 l 425 640 l 303 339 z "},"ả":{"ha":897,"x_min":46,"x_max":851,"o":"m 46 0 l 46 28 l 114 54 l 422 785 l 468 785 l 774 58 l 851 28 l 851 0 l 567 0 l 567 28 l 667 57 l 574 281 l 279 281 l 188 56 l 292 28 l 292 0 l 46 0 m 303 339 l 550 339 l 425 640 l 303 339 m 378 897 l 378 899 q 456 934 428 915 q 483 986 483 953 q 458 1033 483 1014 q 368 1063 433 1051 l 381 1128 q 511 1085 475 1119 q 547 1014 547 1050 q 506 931 547 960 q 388 888 465 901 l 378 897 z "},"æ":{"ha":1167,"x_min":46,"x_max":1069,"o":"m 46 0 l 46 28 l 118 56 l 551 778 l 1035 778 l 1035 583 l 1010 583 l 951 718 l 658 718 l 658 432 l 874 432 l 908 528 l 933 528 l 933 279 l 908 279 l 874 374 l 658 374 l 658 60 l 985 60 l 1044 213 l 1069 213 l 1069 0 l 463 0 l 463 28 l 558 63 l 558 281 l 325 281 l 192 54 l 289 28 l 289 0 l 46 0 m 360 339 l 558 339 l 558 675 l 360 339 z "},"ǽ":{"ha":1167,"x_min":46,"x_max":1069,"o":"m 46 0 l 46 28 l 118 56 l 551 778 l 1035 778 l 1035 583 l 1010 583 l 951 718 l 658 718 l 658 432 l 874 432 l 908 528 l 933 528 l 933 279 l 908 279 l 874 374 l 658 374 l 658 60 l 985 60 l 1044 213 l 1069 213 l 1069 0 l 463 0 l 463 28 l 558 63 l 558 281 l 325 281 l 192 54 l 289 28 l 289 0 l 46 0 m 360 339 l 558 339 l 558 675 l 360 339 m 624 882 l 749 1128 l 842 1128 q 832 1088 842 1107 q 796 1040 822 1068 l 640 882 l 624 882 z "},"ć":{"ha":907,"x_min":97,"x_max":779,"o":"m 506 -14 q 294 35 386 -14 q 150 172 203 85 q 97 369 97 258 q 131 538 97 461 q 223 672 164 615 q 358 761 282 729 q 519 793 433 793 q 659 776 607 793 q 761 735 711 758 l 765 546 l 742 546 l 676 681 q 597 720 636 708 q 514 732 558 732 q 348 688 419 732 q 236 569 276 644 q 196 404 196 494 q 236 211 196 292 q 349 88 276 131 q 518 44 422 44 q 672 81 611 44 l 754 225 l 779 225 l 768 46 q 657 3 717 19 q 506 -14 597 -14 m 494 882 l 619 1128 l 713 1128 q 703 1088 713 1107 q 667 1040 693 1068 l 511 882 l 494 882 z "},"ĉ":{"ha":907,"x_min":97,"x_max":779,"o":"m 506 -14 q 294 35 386 -14 q 150 172 203 85 q 97 369 97 258 q 131 538 97 461 q 223 672 164 615 q 358 761 282 729 q 519 793 433 793 q 659 776 607 793 q 761 735 711 758 l 765 546 l 742 546 l 676 681 q 597 720 636 708 q 514 732 558 732 q 348 688 419 732 q 236 569 276 644 q 196 404 196 494 q 236 211 196 292 q 349 88 276 131 q 518 44 422 44 q 672 81 611 44 l 754 225 l 779 225 l 768 46 q 657 3 717 19 q 506 -14 597 -14 m 301 882 l 481 1128 l 517 1128 l 696 882 l 679 882 l 499 1029 l 318 882 l 301 882 z "},"č":{"ha":907,"x_min":97,"x_max":779,"o":"m 506 -14 q 294 35 386 -14 q 150 172 203 85 q 97 369 97 258 q 131 538 97 461 q 223 672 164 615 q 358 761 282 729 q 519 793 433 793 q 659 776 607 793 q 761 735 711 758 l 765 546 l 742 546 l 676 681 q 597 720 636 708 q 514 732 558 732 q 348 688 419 732 q 236 569 276 644 q 196 404 196 494 q 236 211 196 292 q 349 88 276 131 q 518 44 422 44 q 672 81 611 44 l 754 225 l 779 225 l 768 46 q 657 3 717 19 q 506 -14 597 -14 m 481 882 l 301 1128 l 318 1128 l 499 981 l 679 1128 l 696 1128 l 517 882 l 481 882 z "},"ċ":{"ha":907,"x_min":97,"x_max":779,"o":"m 506 -14 q 294 35 386 -14 q 150 172 203 85 q 97 369 97 258 q 131 538 97 461 q 223 672 164 615 q 358 761 282 729 q 519 793 433 793 q 659 776 607 793 q 761 735 711 758 l 765 546 l 742 546 l 676 681 q 597 720 636 708 q 514 732 558 732 q 348 688 419 732 q 236 569 276 644 q 196 404 196 494 q 236 211 196 292 q 349 88 276 131 q 518 44 422 44 q 672 81 611 44 l 754 225 l 779 225 l 768 46 q 657 3 717 19 q 506 -14 597 -14 m 499 933 q 449 954 469 933 q 428 1004 428 975 q 449 1054 428 1033 q 499 1075 469 1075 q 549 1054 528 1075 q 569 1004 569 1033 q 549 954 569 975 q 499 933 528 933 z "},"ç":{"ha":907,"x_min":97,"x_max":779,"o":"m 499 -333 q 436 -324 464 -333 q 392 -296 408 -314 l 392 -279 l 396 -279 q 483 -297 433 -297 q 544 -281 525 -297 q 563 -237 563 -264 q 527 -180 563 -201 q 411 -135 492 -158 l 475 -12 q 278 44 364 -7 q 145 178 193 94 q 97 369 97 263 q 131 538 97 461 q 223 672 164 615 q 358 761 282 729 q 519 793 433 793 q 659 776 607 793 q 761 735 711 758 l 765 546 l 742 546 l 676 681 q 597 720 636 708 q 514 732 558 732 q 348 688 419 732 q 236 569 276 644 q 196 404 196 494 q 236 211 196 292 q 349 88 276 131 q 518 44 422 44 q 672 81 611 44 l 754 225 l 779 225 l 768 46 q 658 3 717 19 q 515 -14 600 -14 l 481 -82 q 591 -133 553 -103 q 629 -218 629 -164 q 595 -301 629 -268 q 499 -333 561 -333 z "},"ḉ":{"ha":907,"x_min":97,"x_max":779,"o":"m 494 882 l 619 1128 l 714 1128 q 704 1087 714 1107 q 668 1040 694 1067 l 511 882 l 494 882 m 499 -333 q 436 -324 464 -333 q 392 -296 408 -314 l 392 -279 l 396 -279 q 483 -297 433 -297 q 544 -281 525 -297 q 563 -237 563 -264 q 527 -180 563 -201 q 411 -135 492 -158 l 475 -12 q 278 44 364 -7 q 145 178 193 94 q 97 369 97 263 q 131 538 97 461 q 223 672 164 615 q 358 761 282 729 q 519 793 433 793 q 659 776 607 793 q 761 735 711 758 l 765 546 l 742 546 l 676 681 q 597 720 636 708 q 514 732 558 732 q 348 688 419 732 q 236 569 276 644 q 196 404 196 494 q 236 211 196 292 q 349 88 276 131 q 518 44 422 44 q 672 81 611 44 l 754 225 l 779 225 l 768 46 q 658 3 717 19 q 515 -14 600 -14 l 481 -82 q 591 -133 553 -103 q 629 -218 629 -164 q 595 -301 629 -268 q 499 -333 561 -333 z "},"ď":{"ha":928,"x_min":90,"x_max":831,"o":"m 90 0 l 90 28 l 189 63 l 189 715 l 90 750 l 90 778 l 404 778 q 635 733 540 778 q 781 608 731 688 q 831 424 831 528 q 778 199 831 294 q 628 52 725 104 q 396 0 531 0 l 90 0 m 396 718 l 289 718 l 289 60 l 403 60 q 578 101 506 60 q 688 218 650 143 q 726 392 726 293 q 641 632 726 546 q 396 718 556 718 m 444 882 l 265 1128 l 282 1128 l 463 981 l 643 1128 l 660 1128 l 481 882 l 444 882 z "},"đ":{"ha":928,"x_min":90,"x_max":832,"o":"m 90 0 l 90 28 l 189 63 l 189 376 l 94 376 l 94 431 l 189 431 l 189 715 l 90 750 l 90 778 l 404 778 q 636 733 540 778 q 782 608 732 688 q 832 424 832 528 q 779 199 832 294 q 628 52 726 104 q 396 0 531 0 l 90 0 m 490 376 l 289 376 l 289 60 l 404 60 q 578 101 506 60 q 688 218 650 143 q 726 392 726 293 q 641 632 726 546 q 397 718 556 718 l 289 718 l 289 431 l 490 431 l 490 376 z "},"ḍ":{"ha":928,"x_min":90,"x_max":831,"o":"m 90 0 l 90 28 l 189 63 l 189 715 l 90 750 l 90 778 l 404 778 q 635 733 540 778 q 781 608 731 688 q 831 424 831 528 q 778 199 831 294 q 628 52 725 104 q 396 0 531 0 l 90 0 m 396 718 l 289 718 l 289 60 l 403 60 q 578 101 506 60 q 688 218 650 143 q 726 392 726 293 q 641 632 726 546 q 396 718 556 718 m 463 -282 q 413 -261 433 -282 q 392 -211 392 -240 q 413 -161 392 -182 q 463 -140 433 -140 q 513 -161 492 -140 q 533 -211 533 -182 q 513 -261 533 -240 q 463 -282 492 -282 z "},"ḏ":{"ha":928,"x_min":90,"x_max":831,"o":"m 90 0 l 90 28 l 189 63 l 189 715 l 90 750 l 90 778 l 404 778 q 635 733 540 778 q 781 608 731 688 q 831 424 831 528 q 778 199 831 294 q 628 52 725 104 q 396 0 531 0 l 90 0 m 396 718 l 289 718 l 289 60 l 403 60 q 578 101 506 60 q 688 218 650 143 q 726 392 726 293 q 641 632 726 546 q 396 718 556 718 m 281 -237 l 281 -176 l 644 -176 l 644 -237 l 281 -237 z "},"è":{"ha":794,"x_min":90,"x_max":697,"o":"m 90 0 l 90 28 l 188 63 l 188 715 l 90 750 l 90 778 l 664 778 l 664 583 l 639 583 l 581 718 l 288 718 l 288 432 l 501 432 l 538 528 l 561 528 l 561 279 l 538 279 l 501 374 l 288 374 l 288 60 l 613 60 l 674 213 l 697 213 l 697 0 l 90 0 m 407 882 l 251 1040 q 215 1088 225 1068 q 206 1128 206 1107 l 300 1128 l 424 882 l 407 882 z "},"é":{"ha":794,"x_min":90,"x_max":697,"o":"m 90 0 l 90 28 l 188 63 l 188 715 l 90 750 l 90 778 l 664 778 l 664 583 l 639 583 l 581 718 l 288 718 l 288 432 l 501 432 l 538 528 l 561 528 l 561 279 l 538 279 l 501 374 l 288 374 l 288 60 l 613 60 l 674 213 l 697 213 l 697 0 l 90 0 m 411 882 l 536 1128 l 629 1128 q 619 1088 629 1107 q 583 1040 610 1068 l 428 882 l 411 882 z "},"ê":{"ha":794,"x_min":90,"x_max":697,"o":"m 90 0 l 90 28 l 188 63 l 188 715 l 90 750 l 90 778 l 664 778 l 664 583 l 639 583 l 581 718 l 288 718 l 288 432 l 501 432 l 538 528 l 561 528 l 561 279 l 538 279 l 501 374 l 288 374 l 288 60 l 613 60 l 674 213 l 697 213 l 697 0 l 90 0 m 218 882 l 397 1128 l 433 1128 l 613 882 l 596 882 l 415 1029 l 235 882 l 218 882 z "},"ě":{"ha":794,"x_min":90,"x_max":697,"o":"m 90 0 l 90 28 l 188 63 l 188 715 l 90 750 l 90 778 l 664 778 l 664 583 l 639 583 l 581 718 l 288 718 l 288 432 l 501 432 l 538 528 l 561 528 l 561 279 l 538 279 l 501 374 l 288 374 l 288 60 l 613 60 l 674 213 l 697 213 l 697 0 l 90 0 m 397 882 l 218 1128 l 235 1128 l 415 981 l 596 1128 l 613 1128 l 433 882 l 397 882 z "},"ẽ":{"ha":794,"x_min":90,"x_max":697,"o":"m 90 0 l 90 28 l 188 63 l 188 715 l 90 750 l 90 778 l 664 778 l 664 583 l 639 583 l 581 718 l 288 718 l 288 432 l 501 432 l 538 528 l 561 528 l 561 279 l 538 279 l 501 374 l 288 374 l 288 60 l 613 60 l 674 213 l 697 213 l 697 0 l 90 0 m 211 918 q 252 1028 233 990 q 291 1078 271 1065 q 336 1090 311 1090 q 386 1075 363 1090 q 431 1040 410 1060 q 472 1004 451 1019 q 515 989 493 989 q 560 1012 542 989 q 601 1090 579 1035 l 619 1090 q 578 981 597 1018 q 540 931 560 943 q 494 918 519 918 q 444 933 468 918 q 400 969 421 949 q 358 1004 379 989 q 315 1019 338 1019 q 270 997 289 1019 q 229 918 251 974 l 211 918 z "},"ë":{"ha":794,"x_min":90,"x_max":697,"o":"m 90 0 l 90 28 l 188 63 l 188 715 l 90 750 l 90 778 l 664 778 l 664 583 l 639 583 l 581 718 l 288 718 l 288 432 l 501 432 l 538 528 l 561 528 l 561 279 l 538 279 l 501 374 l 288 374 l 288 60 l 613 60 l 674 213 l 697 213 l 697 0 l 90 0 m 286 939 q 241 958 260 939 q 222 1003 222 976 q 241 1048 222 1029 q 286 1067 260 1067 q 331 1048 313 1067 q 350 1003 350 1029 q 331 958 350 976 q 286 939 313 939 m 544 939 q 499 958 518 939 q 481 1003 481 976 q 499 1048 481 1029 q 544 1067 518 1067 q 590 1048 571 1067 q 608 1003 608 1029 q 590 958 608 976 q 544 939 571 939 z "},"ē":{"ha":794,"x_min":90,"x_max":697,"o":"m 90 0 l 90 28 l 188 63 l 188 715 l 90 750 l 90 778 l 664 778 l 664 583 l 639 583 l 581 718 l 288 718 l 288 432 l 501 432 l 538 528 l 561 528 l 561 279 l 538 279 l 501 374 l 288 374 l 288 60 l 613 60 l 674 213 l 697 213 l 697 0 l 90 0 m 233 972 l 233 1033 l 597 1033 l 597 972 l 233 972 z "},"ĕ":{"ha":794,"x_min":90,"x_max":697,"o":"m 90 0 l 90 28 l 188 63 l 188 715 l 90 750 l 90 778 l 664 778 l 664 583 l 639 583 l 581 718 l 288 718 l 288 432 l 501 432 l 538 528 l 561 528 l 561 279 l 538 279 l 501 374 l 288 374 l 288 60 l 613 60 l 674 213 l 697 213 l 697 0 l 90 0 m 415 896 q 288 953 329 896 q 218 1128 246 1011 l 235 1128 q 289 1029 263 1063 q 346 985 315 996 q 415 975 376 975 q 485 985 454 975 q 542 1029 515 996 q 596 1128 568 1063 l 613 1128 q 543 953 585 1011 q 415 896 501 896 z "},"ė":{"ha":794,"x_min":90,"x_max":697,"o":"m 90 0 l 90 28 l 188 63 l 188 715 l 90 750 l 90 778 l 664 778 l 664 583 l 639 583 l 581 718 l 288 718 l 288 432 l 501 432 l 538 528 l 561 528 l 561 279 l 538 279 l 501 374 l 288 374 l 288 60 l 613 60 l 674 213 l 697 213 l 697 0 l 90 0 m 415 933 q 365 954 386 933 q 344 1004 344 975 q 365 1054 344 1033 q 415 1075 386 1075 q 465 1054 444 1075 q 486 1004 486 1033 q 465 954 486 975 q 415 933 444 933 z "},"ę":{"ha":794,"x_min":90,"x_max":697,"o":"m 90 0 l 90 28 l 188 63 l 188 715 l 90 750 l 90 778 l 664 778 l 664 583 l 639 583 l 581 718 l 288 718 l 288 432 l 501 432 l 538 528 l 561 528 l 561 279 l 538 279 l 501 374 l 288 374 l 288 60 l 613 60 l 674 213 l 697 213 l 697 0 l 607 0 q 528 -192 528 -106 q 551 -261 528 -239 q 618 -283 575 -283 q 655 -278 636 -283 q 693 -261 674 -274 l 697 -261 l 697 -278 q 651 -318 681 -303 q 583 -333 622 -333 q 490 -302 528 -333 q 453 -215 453 -271 q 486 -109 453 -161 q 574 0 519 -57 l 90 0 z "},"ẹ":{"ha":794,"x_min":90,"x_max":697,"o":"m 90 0 l 90 28 l 188 63 l 188 715 l 90 750 l 90 778 l 664 778 l 664 583 l 639 583 l 581 718 l 288 718 l 288 432 l 501 432 l 538 528 l 561 528 l 561 279 l 538 279 l 501 374 l 288 374 l 288 60 l 613 60 l 674 213 l 697 213 l 697 0 l 90 0 m 425 -282 q 375 -261 396 -282 q 354 -211 354 -240 q 375 -161 354 -182 q 425 -140 396 -140 q 475 -161 454 -140 q 496 -211 496 -182 q 475 -261 496 -240 q 425 -282 454 -282 z "},"ȅ":{"ha":794,"x_min":90,"x_max":697,"o":"m 90 0 l 90 28 l 188 63 l 188 715 l 90 750 l 90 778 l 664 778 l 664 583 l 639 583 l 581 718 l 288 718 l 288 432 l 501 432 l 538 528 l 561 528 l 561 279 l 538 279 l 501 374 l 288 374 l 288 60 l 613 60 l 674 213 l 697 213 l 697 0 l 90 0 m 326 882 l 201 1040 q 180 1086 182 1065 q 185 1128 178 1107 l 258 1128 l 344 882 l 326 882 m 485 882 l 367 1040 q 346 1087 349 1067 q 350 1128 343 1107 l 424 1128 l 501 882 l 485 882 z "},"ȇ":{"ha":794,"x_min":90,"x_max":697,"o":"m 90 0 l 90 28 l 188 63 l 188 715 l 90 750 l 90 778 l 664 778 l 664 583 l 639 583 l 581 718 l 288 718 l 288 432 l 501 432 l 538 528 l 561 528 l 561 279 l 538 279 l 501 374 l 288 374 l 288 60 l 613 60 l 674 213 l 697 213 l 697 0 l 90 0 m 218 896 q 288 1070 246 1013 q 415 1128 329 1128 q 543 1070 501 1128 q 613 896 585 1013 l 596 896 q 542 995 568 963 q 485 1038 515 1028 q 415 1049 454 1049 q 346 1038 376 1049 q 289 995 315 1028 q 235 896 263 963 l 218 896 z "},"ế":{"ha":794,"x_min":90,"x_max":724,"o":"m 90 0 l 90 28 l 188 63 l 188 715 l 90 750 l 90 778 l 664 778 l 664 583 l 639 583 l 581 718 l 288 718 l 288 432 l 501 432 l 538 528 l 561 528 l 561 279 l 538 279 l 501 374 l 288 374 l 288 60 l 613 60 l 674 213 l 697 213 l 697 0 l 90 0 m 568 1031 l 633 1229 l 724 1229 q 715 1197 724 1211 q 688 1158 707 1182 l 579 1031 l 568 1031 m 218 882 l 397 1128 l 433 1128 l 613 882 l 596 882 l 415 1029 l 235 882 l 218 882 z "},"ệ":{"ha":794,"x_min":90,"x_max":697,"o":"m 90 0 l 90 28 l 188 63 l 188 715 l 90 750 l 90 778 l 664 778 l 664 583 l 639 583 l 581 718 l 288 718 l 288 432 l 501 432 l 538 528 l 561 528 l 561 279 l 538 279 l 501 374 l 288 374 l 288 60 l 613 60 l 674 213 l 697 213 l 697 0 l 90 0 m 218 882 l 397 1128 l 433 1128 l 613 882 l 596 882 l 415 1029 l 235 882 l 218 882 m 425 -282 q 375 -261 396 -282 q 354 -211 354 -240 q 375 -161 354 -182 q 425 -140 396 -140 q 475 -161 454 -140 q 496 -211 496 -182 q 475 -261 496 -240 q 425 -282 454 -282 z "},"ề":{"ha":794,"x_min":90,"x_max":697,"o":"m 90 0 l 90 28 l 188 63 l 188 715 l 90 750 l 90 778 l 664 778 l 664 583 l 639 583 l 581 718 l 288 718 l 288 432 l 501 432 l 538 528 l 561 528 l 561 279 l 538 279 l 501 374 l 288 374 l 288 60 l 613 60 l 674 213 l 697 213 l 697 0 l 90 0 m 251 1031 l 143 1158 q 115 1197 124 1182 q 107 1229 107 1211 l 197 1229 l 263 1031 l 251 1031 m 218 882 l 397 1128 l 433 1128 l 613 882 l 596 882 l 415 1029 l 235 882 l 218 882 z "},"ể":{"ha":794,"x_min":90,"x_max":697,"o":"m 90 0 l 90 28 l 188 63 l 188 715 l 90 750 l 90 778 l 664 778 l 664 583 l 639 583 l 581 718 l 288 718 l 288 432 l 501 432 l 538 528 l 561 528 l 561 279 l 538 279 l 501 374 l 288 374 l 288 60 l 613 60 l 674 213 l 697 213 l 697 0 l 90 0 z "},"ễ":{"ha":794,"x_min":90,"x_max":697,"o":"m 90 0 l 90 28 l 188 63 l 188 715 l 90 750 l 90 778 l 664 778 l 664 583 l 639 583 l 581 718 l 288 718 l 288 432 l 501 432 l 538 528 l 561 528 l 561 279 l 538 279 l 501 374 l 288 374 l 288 60 l 613 60 l 674 213 l 697 213 l 697 0 l 90 0 z "},"ẻ":{"ha":794,"x_min":90,"x_max":697,"o":"m 90 0 l 90 28 l 188 63 l 188 715 l 90 750 l 90 778 l 664 778 l 664 583 l 639 583 l 581 718 l 288 718 l 288 432 l 501 432 l 538 528 l 561 528 l 561 279 l 538 279 l 501 374 l 288 374 l 288 60 l 613 60 l 674 213 l 697 213 l 697 0 l 90 0 m 349 897 l 349 899 q 426 934 399 915 q 454 986 454 953 q 429 1033 454 1014 q 339 1063 404 1051 l 351 1128 q 482 1085 446 1119 q 518 1014 518 1050 q 477 931 518 960 q 358 888 436 901 l 349 897 z "},"ḕ":{"ha":794,"x_min":90,"x_max":697,"o":"m 90 0 l 90 28 l 188 63 l 188 715 l 90 750 l 90 778 l 664 778 l 664 583 l 639 583 l 581 718 l 288 718 l 288 432 l 501 432 l 538 528 l 561 528 l 561 279 l 538 279 l 501 374 l 288 374 l 288 60 l 613 60 l 674 213 l 697 213 l 697 0 l 90 0 z "},"ḗ":{"ha":794,"x_min":90,"x_max":697,"o":"m 90 0 l 90 28 l 188 63 l 188 715 l 90 750 l 90 778 l 664 778 l 664 583 l 639 583 l 581 718 l 288 718 l 288 432 l 501 432 l 538 528 l 561 528 l 561 279 l 538 279 l 501 374 l 288 374 l 288 60 l 613 60 l 674 213 l 697 213 l 697 0 l 90 0 z "},"ḝ":{"ha":794,"x_min":90,"x_max":697,"o":"m 415 896 q 286 953 328 896 q 218 1128 244 1011 l 233 1128 q 288 1028 261 1061 q 344 985 314 996 q 415 975 375 975 q 485 985 454 975 q 542 1028 515 996 q 596 1128 568 1061 l 611 1128 q 542 953 583 1011 q 415 896 501 896 m 90 0 l 90 28 l 188 63 l 188 715 l 90 750 l 90 778 l 664 778 l 664 583 l 639 583 l 581 718 l 288 718 l 288 432 l 501 432 l 538 528 l 561 528 l 561 279 l 538 279 l 501 374 l 288 374 l 288 60 l 613 60 l 674 213 l 697 213 l 697 0 l 449 0 l 406 -82 q 516 -134 478 -104 q 554 -218 554 -164 q 520 -301 554 -268 q 424 -333 486 -333 q 361 -324 389 -333 q 317 -296 333 -314 l 317 -279 l 321 -279 q 408 -297 358 -297 q 469 -281 451 -297 q 488 -237 488 -264 q 453 -180 488 -201 q 338 -135 418 -158 l 407 0 l 90 0 z "},"ĝ":{"ha":939,"x_min":97,"x_max":869,"o":"m 500 -14 q 292 35 383 -14 q 149 170 201 85 q 97 367 97 256 q 130 535 97 458 q 221 670 163 613 q 355 760 279 728 q 518 792 431 792 q 667 776 611 792 q 772 735 722 760 l 779 544 l 756 544 l 692 674 q 601 723 640 708 q 514 738 563 738 q 344 695 417 738 q 230 581 271 653 q 189 419 189 508 q 233 218 189 301 q 353 90 278 135 q 521 46 429 46 q 604 52 564 46 q 689 76 644 58 l 689 279 l 578 317 l 578 343 l 869 343 l 869 317 l 782 278 l 782 79 q 651 11 731 36 q 500 -14 572 -14 m 303 882 l 482 1128 l 518 1128 l 697 882 l 681 882 l 500 1029 l 319 882 l 303 882 z "},"ğ":{"ha":939,"x_min":97,"x_max":869,"o":"m 500 -14 q 292 35 383 -14 q 149 170 201 85 q 97 367 97 256 q 130 535 97 458 q 221 670 163 613 q 355 760 279 728 q 518 792 431 792 q 667 776 611 792 q 772 735 722 760 l 779 544 l 756 544 l 692 674 q 601 723 640 708 q 514 738 563 738 q 344 695 417 738 q 230 581 271 653 q 189 419 189 508 q 233 218 189 301 q 353 90 278 135 q 521 46 429 46 q 604 52 564 46 q 689 76 644 58 l 689 279 l 578 317 l 578 343 l 869 343 l 869 317 l 782 278 l 782 79 q 651 11 731 36 q 500 -14 572 -14 m 500 896 q 372 953 414 896 q 303 1128 331 1011 l 319 1128 q 374 1029 347 1063 q 431 985 400 996 q 500 975 461 975 q 569 985 539 975 q 626 1029 600 996 q 681 1128 653 1063 l 697 1128 q 628 953 669 1011 q 500 896 586 896 z "},"ġ":{"ha":939,"x_min":97,"x_max":869,"o":"m 500 -14 q 292 35 383 -14 q 149 170 201 85 q 97 367 97 256 q 130 535 97 458 q 221 670 163 613 q 355 760 279 728 q 518 792 431 792 q 667 776 611 792 q 772 735 722 760 l 779 544 l 756 544 l 692 674 q 601 723 640 708 q 514 738 563 738 q 344 695 417 738 q 230 581 271 653 q 189 419 189 508 q 233 218 189 301 q 353 90 278 135 q 521 46 429 46 q 604 52 564 46 q 689 76 644 58 l 689 279 l 578 317 l 578 343 l 869 343 l 869 317 l 782 278 l 782 79 q 651 11 731 36 q 500 -14 572 -14 m 500 933 q 450 954 471 933 q 429 1004 429 975 q 450 1054 429 1033 q 500 1075 471 1075 q 550 1054 529 1075 q 571 1004 571 1033 q 550 954 571 975 q 500 933 529 933 z "},"ģ":{"ha":939,"x_min":97,"x_max":869,"o":"m 500 -14 q 292 35 383 -14 q 149 170 201 85 q 97 367 97 256 q 130 535 97 458 q 221 670 163 613 q 355 760 279 728 q 518 792 431 792 q 667 776 611 792 q 772 735 722 760 l 779 544 l 756 544 l 692 674 q 601 723 640 708 q 514 738 563 738 q 344 695 417 738 q 230 581 271 653 q 189 419 189 508 q 233 218 189 301 q 353 90 278 135 q 521 46 429 46 q 604 52 564 46 q 689 76 644 58 l 689 279 l 578 317 l 578 343 l 869 343 l 869 317 l 782 278 l 782 79 q 651 11 731 36 q 500 -14 572 -14 m 536 897 q 428 925 464 897 q 392 1004 392 953 q 434 1084 392 1056 q 542 1113 476 1113 q 565 1111 551 1113 q 586 1108 578 1110 l 586 1089 q 549 1093 568 1093 q 460 1032 460 1093 q 489 982 460 996 q 588 968 518 968 l 588 922 q 577 905 588 913 q 536 897 567 897 z "},"ǧ":{"ha":939,"x_min":97,"x_max":869,"o":"m 500 -14 q 292 35 383 -14 q 149 170 201 85 q 97 367 97 256 q 130 535 97 458 q 221 670 163 613 q 355 760 279 728 q 518 792 431 792 q 667 776 611 792 q 772 735 722 760 l 779 544 l 756 544 l 692 674 q 601 723 640 708 q 514 738 563 738 q 344 695 417 738 q 230 581 271 653 q 189 419 189 508 q 233 218 189 301 q 353 90 278 135 q 521 46 429 46 q 604 52 564 46 q 689 76 644 58 l 689 279 l 578 317 l 578 343 l 869 343 l 869 317 l 782 278 l 782 79 q 651 11 731 36 q 500 -14 572 -14 m 482 882 l 303 1128 l 319 1128 l 500 981 l 681 1128 l 697 1128 l 518 882 l 482 882 z "},"ḡ":{"ha":939,"x_min":97,"x_max":869,"o":"m 500 -14 q 292 35 383 -14 q 149 170 201 85 q 97 367 97 256 q 130 535 97 458 q 221 670 163 613 q 355 760 279 728 q 518 792 431 792 q 667 776 611 792 q 772 735 722 760 l 779 544 l 756 544 l 692 674 q 601 723 640 708 q 514 738 563 738 q 344 695 417 738 q 230 581 271 653 q 189 419 189 508 q 233 218 189 301 q 353 90 278 135 q 521 46 429 46 q 604 52 564 46 q 689 76 644 58 l 689 279 l 578 317 l 578 343 l 869 343 l 869 317 l 782 278 l 782 79 q 651 11 731 36 q 500 -14 572 -14 m 318 972 l 318 1033 l 682 1033 l 682 972 l 318 972 z "},"ĥ":{"ha":1004,"x_min":90,"x_max":914,"o":"m 90 0 l 90 28 l 188 63 l 188 715 l 90 750 l 90 778 l 390 778 l 390 750 l 288 715 l 288 432 l 719 432 l 719 715 l 615 750 l 615 778 l 914 778 l 914 750 l 818 715 l 818 63 l 914 28 l 914 0 l 615 0 l 615 28 l 719 63 l 719 372 l 288 372 l 288 63 l 390 28 l 390 0 l 90 0 m 306 882 l 485 1128 l 521 1128 l 700 882 l 683 882 l 503 1029 l 322 882 l 306 882 z "},"ħ":{"ha":1004,"x_min":90,"x_max":914,"o":"m 90 0 l 90 28 l 188 63 l 188 557 l 90 557 l 90 611 l 188 611 l 188 715 l 90 750 l 90 778 l 390 778 l 390 750 l 288 715 l 288 611 l 719 611 l 719 715 l 615 750 l 615 778 l 914 778 l 914 750 l 818 715 l 818 611 l 914 611 l 914 557 l 818 557 l 818 63 l 914 28 l 914 0 l 615 0 l 615 28 l 719 63 l 719 372 l 288 372 l 288 63 l 390 28 l 390 0 l 90 0 m 288 432 l 719 432 l 719 557 l 288 557 l 288 432 z "},"ḥ":{"ha":1004,"x_min":90,"x_max":914,"o":"m 90 0 l 90 28 l 188 63 l 188 715 l 90 750 l 90 778 l 390 778 l 390 750 l 288 715 l 288 432 l 719 432 l 719 715 l 615 750 l 615 778 l 914 778 l 914 750 l 818 715 l 818 63 l 914 28 l 914 0 l 615 0 l 615 28 l 719 63 l 719 372 l 288 372 l 288 63 l 390 28 l 390 0 l 90 0 m 503 -282 q 453 -261 474 -282 q 432 -211 432 -240 q 453 -161 432 -182 q 503 -140 474 -140 q 553 -161 532 -140 q 574 -211 574 -182 q 553 -261 574 -240 q 503 -282 532 -282 z "},"ḫ":{"ha":1004,"x_min":90,"x_max":914,"o":"m 90 0 l 90 28 l 188 63 l 188 715 l 90 750 l 90 778 l 390 778 l 390 750 l 288 715 l 288 432 l 719 432 l 719 715 l 615 750 l 615 778 l 914 778 l 914 750 l 818 715 l 818 63 l 914 28 l 914 0 l 615 0 l 615 28 l 719 63 l 719 372 l 288 372 l 288 63 l 390 28 l 390 0 l 90 0 m 503 -333 q 375 -276 417 -333 q 306 -101 333 -218 l 322 -101 q 376 -200 350 -167 q 433 -244 403 -233 q 503 -254 464 -254 q 572 -244 542 -254 q 629 -200 603 -233 q 683 -101 656 -167 l 700 -101 q 631 -276 672 -218 q 503 -333 589 -333 z "},"ì":{"ha":479,"x_min":32,"x_max":382,"o":"m 97 0 l 97 28 l 189 63 l 189 715 l 97 750 l 97 778 l 382 778 l 382 750 l 289 715 l 289 63 l 382 28 l 382 0 l 97 0 m 233 882 l 78 1040 q 42 1088 51 1068 q 32 1128 32 1107 l 126 1128 l 250 882 l 233 882 z "},"í":{"ha":479,"x_min":97,"x_max":456,"o":"m 97 0 l 97 28 l 189 63 l 189 715 l 97 750 l 97 778 l 382 778 l 382 750 l 289 715 l 289 63 l 382 28 l 382 0 l 97 0 m 238 882 l 363 1128 l 456 1128 q 446 1088 456 1107 q 410 1040 436 1068 l 254 882 l 238 882 z "},"î":{"ha":479,"x_min":43,"x_max":438,"o":"m 97 0 l 97 28 l 189 63 l 189 715 l 97 750 l 97 778 l 382 778 l 382 750 l 289 715 l 289 63 l 382 28 l 382 0 l 97 0 m 43 882 l 222 1128 l 258 1128 l 438 882 l 421 882 l 240 1029 l 60 882 l 43 882 z "},"ĩ":{"ha":479,"x_min":36,"x_max":444,"o":"m 97 0 l 97 28 l 189 63 l 189 715 l 97 750 l 97 778 l 382 778 l 382 750 l 289 715 l 289 63 l 382 28 l 382 0 l 97 0 m 36 918 q 77 1028 58 990 q 116 1078 96 1065 q 161 1090 136 1090 q 211 1075 188 1090 q 256 1040 235 1060 q 297 1004 276 1019 q 340 989 318 989 q 385 1012 367 989 q 426 1090 404 1035 l 444 1090 q 403 981 422 1018 q 365 931 385 943 q 319 918 344 918 q 269 933 293 918 q 225 969 246 949 q 183 1004 204 989 q 140 1019 163 1019 q 95 997 114 1019 q 54 918 76 974 l 36 918 z "},"ï":{"ha":479,"x_min":47,"x_max":433,"o":"m 97 0 l 97 28 l 189 63 l 189 715 l 97 750 l 97 778 l 382 778 l 382 750 l 289 715 l 289 63 l 382 28 l 382 0 l 97 0 m 111 939 q 66 958 85 939 q 47 1003 47 976 q 66 1048 47 1029 q 111 1067 85 1067 q 156 1048 138 1067 q 175 1003 175 1029 q 156 958 175 976 q 111 939 138 939 m 369 939 q 324 958 343 939 q 306 1003 306 976 q 324 1048 306 1029 q 369 1067 343 1067 q 415 1048 396 1067 q 433 1003 433 1029 q 415 958 433 976 q 369 939 396 939 z "},"ī":{"ha":479,"x_min":58,"x_max":422,"o":"m 97 0 l 97 28 l 189 63 l 189 715 l 97 750 l 97 778 l 382 778 l 382 750 l 289 715 l 289 63 l 382 28 l 382 0 l 97 0 m 58 972 l 58 1033 l 422 1033 l 422 972 l 58 972 z "},"ĭ":{"ha":479,"x_min":43,"x_max":438,"o":"m 97 0 l 97 28 l 189 63 l 189 715 l 97 750 l 97 778 l 382 778 l 382 750 l 289 715 l 289 63 l 382 28 l 382 0 l 97 0 m 240 896 q 113 953 154 896 q 43 1128 71 1011 l 60 1128 q 114 1029 88 1063 q 171 985 140 996 q 240 975 201 975 q 310 985 279 975 q 367 1029 340 996 q 421 1128 393 1063 l 438 1128 q 368 953 410 1011 q 240 896 326 896 z "},"į":{"ha":479,"x_min":97,"x_max":382,"o":"m 97 0 l 97 28 l 189 63 l 189 715 l 97 750 l 97 778 l 382 778 l 382 750 l 289 715 l 289 63 l 382 28 l 382 0 l 271 0 q 192 -192 192 -106 q 215 -261 192 -239 q 282 -283 239 -283 q 319 -278 300 -283 q 357 -261 339 -274 l 361 -261 l 361 -278 q 316 -318 344 -303 q 249 -333 288 -333 q 154 -302 192 -333 q 117 -215 117 -271 q 150 -109 117 -161 q 238 0 183 -57 l 97 0 z "},"ị":{"ha":479,"x_min":97,"x_max":382,"o":"m 97 0 l 97 28 l 189 63 l 189 715 l 97 750 l 97 778 l 382 778 l 382 750 l 289 715 l 289 63 l 382 28 l 382 0 l 97 0 m 240 -282 q 190 -261 211 -282 q 169 -211 169 -240 q 190 -161 169 -182 q 240 -140 211 -140 q 290 -161 269 -140 q 311 -211 311 -182 q 290 -261 311 -240 q 240 -282 269 -282 z "},"ȉ":{"ha":479,"x_min":4,"x_max":382,"o":"m 97 0 l 97 28 l 189 63 l 189 715 l 97 750 l 97 778 l 382 778 l 382 750 l 289 715 l 289 63 l 382 28 l 382 0 l 97 0 m 153 882 l 28 1040 q 6 1086 8 1065 q 11 1128 4 1107 l 85 1128 l 171 882 l 153 882 m 311 882 l 193 1040 q 172 1087 175 1067 q 176 1128 169 1107 l 250 1128 l 328 882 l 311 882 z "},"ȋ":{"ha":479,"x_min":43,"x_max":438,"o":"m 97 0 l 97 28 l 189 63 l 189 715 l 97 750 l 97 778 l 382 778 l 382 750 l 289 715 l 289 63 l 382 28 l 382 0 l 97 0 m 43 896 q 113 1070 71 1013 q 240 1128 154 1128 q 368 1070 326 1128 q 438 896 410 1013 l 421 896 q 367 995 393 963 q 310 1038 340 1028 q 240 1049 279 1049 q 171 1038 201 1049 q 114 995 140 1028 q 60 896 88 963 l 43 896 z "},"ỉ":{"ha":479,"x_min":97,"x_max":382,"o":"m 97 0 l 97 28 l 189 63 l 189 715 l 97 750 l 97 778 l 382 778 l 382 750 l 289 715 l 289 63 l 382 28 l 382 0 l 97 0 m 175 897 l 175 899 q 253 934 225 915 q 281 986 281 953 q 256 1033 281 1014 q 165 1063 231 1051 l 178 1128 q 308 1085 272 1119 q 344 1014 344 1050 q 303 931 344 960 q 185 888 263 901 l 175 897 z "},"ḯ":{"ha":479,"x_min":47,"x_max":450,"o":"m 97 0 l 97 28 l 189 63 l 189 715 l 97 750 l 97 778 l 382 778 l 382 750 l 289 715 l 289 63 l 382 28 l 382 0 l 97 0 z "},"ĳ":{"ha":951,"x_min":97,"x_max":854,"o":"m 97 0 l 97 28 l 189 63 l 189 715 l 97 750 l 97 778 l 382 778 l 382 750 l 289 715 l 289 63 l 382 28 l 382 0 l 97 0 m 539 -204 q 510 -197 524 -204 q 497 -168 497 -189 q 501 -151 497 -167 q 510 -107 504 -136 l 517 -107 q 548 -115 536 -112 q 575 -118 560 -118 q 620 -105 601 -118 q 649 -51 639 -92 q 658 67 658 -11 l 658 715 l 564 751 l 564 778 l 854 778 l 854 751 l 758 715 l 758 256 q 734 18 758 111 q 667 -122 710 -75 q 597 -188 621 -172 q 539 -204 574 -204 z "},"ĵ":{"ha":472,"x_min":18,"x_max":418,"o":"m 60 -204 q 31 -197 44 -204 q 18 -168 18 -189 q 22 -151 18 -167 q 31 -107 25 -136 l 38 -107 q 69 -115 57 -112 q 96 -118 81 -118 q 141 -105 122 -118 q 169 -51 160 -92 q 179 67 179 -11 l 179 715 l 85 751 l 85 778 l 375 778 l 375 751 l 279 715 l 279 256 q 255 18 279 111 q 188 -122 231 -75 q 118 -188 142 -172 q 60 -204 94 -204 m 24 882 l 203 1128 l 239 1128 l 418 882 l 401 882 l 221 1029 l 40 882 l 24 882 z "},"ķ":{"ha":906,"x_min":90,"x_max":857,"o":"m 90 0 l 90 28 l 189 63 l 189 715 l 90 750 l 90 778 l 386 778 l 386 750 l 289 715 l 289 400 l 619 719 l 532 750 l 532 778 l 797 778 l 797 750 l 717 725 l 389 422 l 763 56 l 857 28 l 857 0 l 683 0 l 289 394 l 289 63 l 386 28 l 386 0 l 90 0 m 415 -332 q 392 -331 406 -332 q 369 -328 379 -331 l 369 -308 q 390 -312 379 -311 q 408 -312 401 -312 q 497 -251 497 -312 q 467 -201 497 -215 q 368 -187 438 -187 l 368 -142 q 378 -124 368 -131 q 421 -117 389 -117 q 529 -144 493 -117 q 565 -222 565 -172 q 523 -303 565 -275 q 415 -332 481 -332 z "},"ĺ":{"ha":790,"x_min":90,"x_max":693,"o":"m 90 0 l 90 28 l 186 63 l 186 715 l 90 750 l 90 778 l 397 778 l 397 750 l 286 715 l 286 60 l 599 60 l 668 260 l 693 260 l 693 0 l 90 0 m 232 882 l 357 1128 l 450 1128 q 440 1088 450 1107 q 404 1040 431 1068 l 249 882 l 232 882 z "},"ľ":{"ha":790,"x_min":90,"x_max":693,"o":"m 90 0 l 90 28 l 186 63 l 186 715 l 90 750 l 90 778 l 397 778 l 397 750 l 286 715 l 286 60 l 599 60 l 668 260 l 693 260 l 693 0 l 90 0 m 514 518 l 549 778 l 636 778 q 638 738 640 758 q 621 688 636 717 l 531 518 l 514 518 z "},"ļ":{"ha":790,"x_min":90,"x_max":693,"o":"m 90 0 l 90 28 l 186 63 l 186 715 l 90 750 l 90 778 l 397 778 l 397 750 l 286 715 l 286 60 l 599 60 l 668 260 l 693 260 l 693 0 l 90 0 m 381 -332 q 358 -331 371 -332 q 335 -328 344 -331 l 335 -308 q 356 -312 344 -311 q 374 -312 367 -312 q 463 -251 463 -312 q 433 -201 463 -215 q 333 -187 403 -187 l 333 -142 q 344 -124 333 -131 q 386 -117 354 -117 q 494 -144 458 -117 q 531 -222 531 -172 q 488 -303 531 -275 q 381 -332 446 -332 z "},"ł":{"ha":790,"x_min":90,"x_max":693,"o":"m 90 0 l 90 28 l 186 63 l 186 306 l 90 240 l 90 306 l 186 371 l 186 715 l 90 750 l 90 778 l 397 778 l 397 750 l 286 715 l 286 424 l 464 542 l 464 476 l 286 358 l 286 60 l 599 60 l 668 260 l 693 260 l 693 0 l 90 0 z "},"ŀ":{"ha":790,"x_min":90,"x_max":697,"o":"m 90 0 l 90 28 l 186 63 l 186 715 l 90 750 l 90 778 l 397 778 l 397 750 l 286 715 l 286 60 l 599 60 l 668 260 l 693 260 l 693 0 l 90 0 m 626 332 q 576 353 597 332 q 556 403 556 374 q 576 453 556 432 q 626 474 597 474 q 676 453 656 474 q 697 403 697 432 q 676 353 697 374 q 626 332 656 332 z "},"ḷ":{"ha":790,"x_min":90,"x_max":693,"o":"m 90 0 l 90 28 l 186 63 l 186 715 l 90 750 l 90 778 l 397 778 l 397 750 l 286 715 l 286 60 l 599 60 l 668 260 l 693 260 l 693 0 l 90 0 m 428 -282 q 378 -261 399 -282 q 357 -211 357 -240 q 378 -161 357 -182 q 428 -140 399 -140 q 478 -161 457 -140 q 499 -211 499 -182 q 478 -261 499 -240 q 428 -282 457 -282 z "},"ḻ":{"ha":790,"x_min":90,"x_max":693,"o":"m 90 0 l 90 28 l 186 63 l 186 715 l 90 750 l 90 778 l 397 778 l 397 750 l 286 715 l 286 60 l 599 60 l 668 260 l 693 260 l 693 0 l 90 0 m 246 -237 l 246 -176 l 610 -176 l 610 -237 l 246 -237 z "},"ṃ":{"ha":1189,"x_min":83,"x_max":1106,"o":"m 83 0 l 83 28 l 181 63 l 207 714 l 101 750 l 101 778 l 328 778 l 601 163 l 882 778 l 1100 778 l 1100 750 l 997 718 l 1018 63 l 1106 28 l 1106 0 l 825 0 l 825 28 l 915 61 l 901 669 l 593 -6 l 561 -6 l 265 668 l 251 61 l 351 28 l 351 0 l 83 0 m 578 -282 q 528 -261 549 -282 q 507 -211 507 -240 q 528 -161 507 -182 q 578 -140 549 -140 q 628 -161 607 -140 q 649 -211 649 -182 q 628 -261 649 -240 q 578 -282 607 -282 z "},"ń":{"ha":990,"x_min":86,"x_max":904,"o":"m 86 0 l 86 28 l 183 63 l 183 717 l 86 750 l 86 778 l 268 778 l 742 181 l 742 717 l 631 750 l 631 778 l 904 778 l 904 750 l 808 717 l 808 -6 l 764 -6 l 249 636 l 249 67 l 365 28 l 365 0 l 86 0 m 500 882 l 625 1128 l 718 1128 q 708 1088 718 1107 q 672 1040 699 1068 l 517 882 l 500 882 z "},"ň":{"ha":990,"x_min":86,"x_max":904,"o":"m 86 0 l 86 28 l 183 63 l 183 717 l 86 750 l 86 778 l 268 778 l 742 181 l 742 717 l 631 750 l 631 778 l 904 778 l 904 750 l 808 717 l 808 -6 l 764 -6 l 249 636 l 249 67 l 365 28 l 365 0 l 86 0 m 486 882 l 307 1128 l 324 1128 l 504 981 l 685 1128 l 701 1128 l 522 882 l 486 882 z "},"ñ":{"ha":990,"x_min":86,"x_max":904,"o":"m 86 0 l 86 28 l 183 63 l 183 717 l 86 750 l 86 778 l 268 778 l 742 181 l 742 717 l 631 750 l 631 778 l 904 778 l 904 750 l 808 717 l 808 -6 l 764 -6 l 249 636 l 249 67 l 365 28 l 365 0 l 86 0 m 300 918 q 341 1028 322 990 q 380 1078 360 1065 q 425 1090 400 1090 q 475 1075 451 1090 q 519 1040 499 1060 q 561 1004 540 1019 q 604 989 582 989 q 649 1012 631 989 q 690 1090 668 1035 l 708 1090 q 667 981 686 1018 q 628 931 649 943 q 583 918 608 918 q 533 933 557 918 q 489 969 510 949 q 447 1004 468 989 q 404 1019 426 1019 q 359 997 378 1019 q 318 918 340 974 l 300 918 z "},"ņ":{"ha":990,"x_min":86,"x_max":904,"o":"m 86 0 l 86 28 l 183 63 l 183 717 l 86 750 l 86 778 l 268 778 l 742 181 l 742 717 l 631 750 l 631 778 l 904 778 l 904 750 l 808 717 l 808 -6 l 764 -6 l 249 636 l 249 67 l 365 28 l 365 0 l 86 0 m 464 -332 q 441 -331 454 -332 q 418 -328 428 -331 l 418 -308 q 439 -312 428 -311 q 457 -312 450 -312 q 546 -251 546 -312 q 516 -201 546 -215 q 417 -187 486 -187 l 417 -142 q 427 -124 417 -131 q 469 -117 438 -117 q 578 -144 542 -117 q 614 -222 614 -172 q 572 -303 614 -275 q 464 -332 529 -332 z "},"ṅ":{"ha":990,"x_min":86,"x_max":904,"o":"m 86 0 l 86 28 l 183 63 l 183 717 l 86 750 l 86 778 l 268 778 l 742 181 l 742 717 l 631 750 l 631 778 l 904 778 l 904 750 l 808 717 l 808 -6 l 764 -6 l 249 636 l 249 67 l 365 28 l 365 0 l 86 0 m 504 933 q 454 954 475 933 q 433 1004 433 975 q 454 1054 433 1033 q 504 1075 475 1075 q 554 1054 533 1075 q 575 1004 575 1033 q 554 954 575 975 q 504 933 533 933 z "},"ṇ":{"ha":990,"x_min":86,"x_max":904,"o":"m 86 0 l 86 28 l 183 63 l 183 717 l 86 750 l 86 778 l 268 778 l 742 181 l 742 717 l 631 750 l 631 778 l 904 778 l 904 750 l 808 717 l 808 -6 l 764 -6 l 249 636 l 249 67 l 365 28 l 365 0 l 86 0 m 511 -282 q 461 -261 482 -282 q 440 -211 440 -240 q 461 -161 440 -182 q 511 -140 482 -140 q 561 -161 540 -140 q 582 -211 582 -182 q 561 -261 582 -240 q 511 -282 540 -282 z "},"ṉ":{"ha":990,"x_min":86,"x_max":904,"o":"m 86 0 l 86 28 l 183 63 l 183 717 l 86 750 l 86 778 l 268 778 l 742 181 l 742 717 l 631 750 l 631 778 l 904 778 l 904 750 l 808 717 l 808 -6 l 764 -6 l 249 636 l 249 67 l 365 28 l 365 0 l 86 0 m 329 -237 l 329 -176 l 693 -176 l 693 -237 l 329 -237 z "},"ò":{"ha":972,"x_min":97,"x_max":875,"o":"m 485 -14 q 286 38 374 -14 q 148 181 199 90 q 97 389 97 272 q 148 597 97 506 q 286 741 199 689 q 485 793 374 793 q 685 741 597 793 q 824 597 774 689 q 875 389 875 506 q 824 181 875 272 q 685 38 774 90 q 485 -14 597 -14 m 510 47 q 702 131 631 47 q 774 354 774 214 q 734 553 774 468 q 625 686 694 639 q 465 733 556 733 q 271 650 344 733 q 197 428 197 567 q 238 228 197 314 q 349 94 278 142 q 510 47 419 47 m 469 882 l 314 1040 q 278 1088 288 1068 q 268 1128 268 1107 l 363 1128 l 486 882 l 469 882 z "},"ó":{"ha":972,"x_min":97,"x_max":875,"o":"m 485 -14 q 286 38 374 -14 q 148 181 199 90 q 97 389 97 272 q 148 597 97 506 q 286 741 199 689 q 485 793 374 793 q 685 741 597 793 q 824 597 774 689 q 875 389 875 506 q 824 181 875 272 q 685 38 774 90 q 485 -14 597 -14 m 510 47 q 702 131 631 47 q 774 354 774 214 q 734 553 774 468 q 625 686 694 639 q 465 733 556 733 q 271 650 344 733 q 197 428 197 567 q 238 228 197 314 q 349 94 278 142 q 510 47 419 47 m 475 882 l 600 1128 l 693 1128 q 683 1088 693 1107 q 647 1040 674 1068 l 492 882 l 475 882 z "},"ô":{"ha":972,"x_min":97,"x_max":875,"o":"m 485 -14 q 286 38 374 -14 q 148 181 199 90 q 97 389 97 272 q 148 597 97 506 q 286 741 199 689 q 485 793 374 793 q 685 741 597 793 q 824 597 774 689 q 875 389 875 506 q 824 181 875 272 q 685 38 774 90 q 485 -14 597 -14 m 510 47 q 702 131 631 47 q 774 354 774 214 q 734 553 774 468 q 625 686 694 639 q 465 733 556 733 q 271 650 344 733 q 197 428 197 567 q 238 228 197 314 q 349 94 278 142 q 510 47 419 47 m 281 882 l 460 1128 l 496 1128 l 675 882 l 658 882 l 478 1029 l 297 882 l 281 882 z "},"õ":{"ha":972,"x_min":97,"x_max":875,"o":"m 485 -14 q 286 38 374 -14 q 148 181 199 90 q 97 389 97 272 q 148 597 97 506 q 286 741 199 689 q 485 793 374 793 q 685 741 597 793 q 824 597 774 689 q 875 389 875 506 q 824 181 875 272 q 685 38 774 90 q 485 -14 597 -14 m 510 47 q 702 131 631 47 q 774 354 774 214 q 734 553 774 468 q 625 686 694 639 q 465 733 556 733 q 271 650 344 733 q 197 428 197 567 q 238 228 197 314 q 349 94 278 142 q 510 47 419 47 m 274 918 q 315 1028 296 990 q 353 1078 333 1065 q 399 1090 374 1090 q 449 1075 425 1090 q 493 1040 472 1060 q 535 1004 514 1019 q 578 989 556 989 q 623 1012 604 989 q 664 1090 642 1035 l 682 1090 q 641 981 660 1018 q 602 931 622 943 q 557 918 582 918 q 507 933 531 918 q 463 969 483 949 q 421 1004 442 989 q 378 1019 400 1019 q 333 997 351 1019 q 292 918 314 974 l 274 918 z "}}}
